<?xml version="1.0" encoding="UTF-8"?>
<svg width="90px" height="185px" viewBox="0 0 90 185" version="1.1" xmlns="http://www.w3.org/2000/svg" xmlns:xlink="http://www.w3.org/1999/xlink">
    <!-- Generator: Sketch 56.2 (81672) - https://sketch.com -->
    <title>_leaf</title>
    <desc>Created with Sketch.</desc>
    <defs>
        <path d="M101.597052,4.83426154 C98.4393082,6.48243182 95.7974093,9.12872479 92.7360848,12.1922469 C85.0900051,19.8498996 75.5685629,29.3793204 51.4612354,29.492272 C39.4569867,29.54529 32.7341253,31.0413215 29.6607484,34.3399672 C26.3029335,37.952111 27.0333125,44.2082426 28.045719,52.8686283 C28.4313977,56.1373072 28.8652862,59.8416564 29.1328507,63.8710293 C30.7623431,88.6396861 15.9185352,105.946627 15.2869864,106.668133 C6.64778413,116.501832 -3.12917022,136.070108 0.959023709,147.252309 C2.54753774,151.597485 6.18014874,154.347509 11.7628475,155.428617 C31.222747,159.188289 36.5933226,147.545061 45.4976789,128.251096 C47.1295818,124.715021 48.8193365,121.056775 50.7356774,117.181846 C61.0477609,96.3641876 70.6680333,92.7520438 85.2322242,87.2911831 C88.7274371,85.9772572 92.687875,84.4904462 97.0098866,82.634814 C115.413991,74.7235966 112.094744,63.8618088 108.580247,52.3638041 C108.076454,50.7202441 107.577482,49.0766841 107.141183,47.4561754 C104.923531,39.180747 109.296163,34.9162505 114.82101,29.5199335 C118.803142,25.6380892 123.310762,21.2398949 126.873468,14.1124229 C128.74401,10.378107 130.286725,5.30220359 127.018098,2.34010736 C122.717781,-1.5601781 111.788611,-0.488291137 101.597052,4.83426154 Z" id="path-1"></path>
    </defs>
    <g id="Page-1" stroke="none" stroke-width="1" fill="none" fill-rule="evenodd" opacity="0.359877232">
        <g id="01_LANDING_PAGE_desktop" transform="translate(-1127.000000, -3175.000000)">
            <g id="NOUS_REJOINDRE" transform="translate(0.000000, 2834.000000)">
                <g id="_leaf" transform="translate(1175.500000, 435.002479) rotate(-19.000000) translate(-1175.500000, -435.002479) translate(1111.000000, 356.502479)">
                    <mask id="mask-2" fill="white">
                        <use xlink:href="#path-1"></use>
                    </mask>
                    <use id="Clip-12" stroke="#FFFFFF" fill="#0083FF" xlink:href="#path-1"></use>
                    <path d="M2.24213328,175.380781 C12.3596605,98.348893 51.5052269,70.488385 108.743464,18.1797151" id="Path-6" stroke="#FFFFFF" stroke-linecap="round" mask="url(#mask-2)"></path>
                </g>
            </g>
        </g>
    </g>
</svg>