<?xml version="1.0" encoding="UTF-8"?>
<svg width="930px" height="579px" viewBox="0 0 930 579" version="1.1" xmlns="http://www.w3.org/2000/svg" xmlns:xlink="http://www.w3.org/1999/xlink">
    <!-- Generator: Sketch 56.2 (81672) - https://sketch.com -->
    <title>Fill 5</title>
    <desc>Created with Sketch.</desc>
    <g id="Page-1" stroke="none" stroke-width="1" fill="none" fill-rule="evenodd" opacity="0.825334821">
        <g id="01_LANDING_PAGE_desktop" transform="translate(0.000000, -2834.000000)" fill="#FDF9F5">
            <g id="NOUS_REJOINDRE" transform="translate(0.000000, 2834.000000)">
                <g id="_BACKGROUND_FORM">
                    <path d="M718.813766,722.610085 C678.644265,759.933401 635.121154,792.348546 593.33251,812.765429 C593.899902,811.852066 594.453455,810.934091 595.020847,810.020728 C611.023144,783.270276 619.40486,749.969445 620.678032,711.156149 C622.63392,650.851155 607.429662,576.365976 577.205664,491.843034 C551.497737,419.982619 524.382862,371.422176 496.548368,343.896749 C485.131336,332.608879 473.405237,324.573134 461.443877,319.692641 C486.1877,260.102653 572.864885,250.664573 648.148103,242.490439 C691.943377,237.743721 732.509592,233.338362 761.423514,219.794763 C778.210011,256.587591 795.061089,299.022047 814.130993,347.024324 C832.693472,393.744204 853.198001,445.390705 876.101259,498.76706 C865.122457,554.583662 799.554095,647.585191 718.813766,722.610085 L718.813766,722.610085 Z M574.691611,709.726137 C573.676763,740.674367 567.421614,766.525295 555.510997,786.388625 C544.361515,805.015686 527.731858,818.72535 505.225313,826.78416 C487.151805,833.246892 465.346427,836.22224 439.633886,835.382685 C412.975693,834.520065 389.274395,830.363804 368.922094,822.867772 C341.373603,812.714686 320.117165,796.172675 306.204531,773.052609 C291.733731,749.00534 284.639026,717.369782 285.912198,677.836867 C287.34221,634.595146 298.78692,582.275155 321.547177,520.549374 C346.369419,453.154287 372.03583,404.91675 397.734532,379.005853 C409.783537,366.878428 421.085245,360.374179 431.464366,359.977466 C441.502128,359.603818 452.444027,365.033251 464.262385,376.727059 C487.101062,399.293573 510.401034,442.097065 533.742522,507.351746 C562.130569,586.731257 576.458367,655.501 574.691611,709.726137 L574.691611,709.726137 Z M145.821754,722.610085 C65.067586,647.585191 -0.486936809,554.583662 -11.4657394,498.76706 C11.4236802,445.390705 31.9420474,393.744204 50.4953013,347.024324 C69.5744306,299.008208 86.4255087,256.587591 103.212006,219.794763 C132.125928,233.338362 172.692142,237.743721 216.496642,242.490439 C291.835216,250.664573 378.60466,260.102653 403.256224,319.840255 C390.12779,325.205107 377.377617,334.163441 365.097965,346.549191 C334.551061,377.340581 305.341911,431.192069 278.268552,504.67624 C253.847636,570.922704 241.512628,628.09551 239.939615,676.393016 C238.343537,725.211784 247.703197,765.289027 266.703906,796.855391 C271.160008,804.226873 276.105082,811.127834 281.548354,817.525985 C236.669039,797.625752 189.271057,762.982556 145.821754,722.610085 L145.821754,722.610085 Z M71.5026405,140.724319 C63.5729927,132.319538 56.0446709,122.447842 49.5035187,111.925721 C30.8349413,81.8908535 19.9576234,48.0503089 33.5242866,33.6809937 L70.7184403,-5.67201696 C84.9078507,-20.6825311 121.622258,-11.424356 154.152727,5.92953288 C165.094626,11.755679 175.43223,18.6197371 184.325983,25.9450894 C185.746769,27.1167768 187.093748,28.302303 188.422276,29.4878291 C145.15749,55.7446966 113.554222,96.8506253 84.32662,152.676453 C80.0365837,149.198294 75.7280956,145.212712 71.5026405,140.724319 L71.5026405,140.724319 Z M432.313147,40.9925072 L529.028095,40.9925072 C638.493215,40.9925072 693.041258,87.2234147 741.315699,178.601188 C720.57591,188.29298 683.552435,192.324692 643.281449,196.702374 C564.058779,205.28706 474.318599,215.048045 432.299308,275.163909 C390.280017,215.07111 300.562902,205.28706 221.367909,196.702374 C181.096923,192.324692 144.05961,188.306819 123.319821,178.601188 C171.585036,87.2234147 226.142305,40.9925072 335.607425,40.9925072 L432.313147,40.9925072 Z M680.309537,25.9450894 C689.189451,18.6197371 699.540893,11.755679 710.482793,5.92953288 C743.017874,-11.424356 779.732282,-20.6825311 793.91708,-5.67201696 L831.10662,33.6809937 C844.691735,48.0503089 833.800579,81.8908535 815.132001,111.925721 C808.590849,122.447842 801.062527,132.319538 793.146718,140.724319 C788.912037,145.212712 784.598936,149.202907 780.3089,152.681066 C751.081298,96.8506253 719.47803,55.7493095 676.208631,29.4878291 C677.541772,28.302303 678.888751,27.1167768 680.309537,25.9450894 L680.309537,25.9450894 Z M921.082059,486.639635 C895.411036,427.109615 875.137154,376.081248 856.869903,330.0856 C836.683667,279.255589 818.762387,234.210208 800.799589,194.847971 C809.67489,188.68508 818.430255,181.041435 826.678196,172.276845 C836.73441,161.620948 846.17249,149.28594 854.254365,136.27283 C882.730057,90.4570873 895.000484,34.2345467 864.656549,2.12846844 L827.45317,-37.2245422 C796.712523,-69.76885 737.463892,-60.5890948 688.857319,-34.6505204 C675.198397,-27.3620716 662.259094,-18.7912248 651.095774,-9.57456613 C643.858067,-3.60080587 637.29385,2.70508623 631.63377,9.17243131 C602.609137,-0.334842735 569.017692,-5.18304507 529.028095,-5.18304507 L432.313147,-5.18304507 L335.607425,-5.18304507 C295.617828,-5.18304507 262.026383,-0.330229793 233.00175,9.17243131 C227.34167,2.70508623 220.77284,-3.60080587 213.539746,-9.57456613 C202.376426,-18.7912248 189.437123,-27.3620716 175.79204,-34.6505204 C127.171628,-60.5890948 67.9229972,-69.76885 37.168511,-37.2245422 L-0.00719081172,2.12846844 C-30.3511251,34.2345467 -18.0945375,90.4570873 10.3811552,136.27283 C18.4630301,149.28594 27.9149488,161.620948 37.9573242,172.276845 C46.2144909,181.036822 54.9606294,188.680467 63.8359304,194.838745 C45.8731331,234.205595 27.9518524,279.255589 7.76561693,330.0856 C-10.5016345,376.081248 -30.7755158,427.109615 -56.4603785,486.639635 L-58.0841342,498.716318 C-49.6470627,563.329801 23.8048173,672.093754 114.435294,756.330693 C190.442744,826.964065 279.693952,881.765819 355.29085,881.765819 L432.313147,881.765819 L509.34467,881.765819 C584.927729,881.765819 674.192776,826.964065 750.200226,756.330693 C840.830703,672.093754 914.273357,563.329801 922.719654,498.716318 L921.082059,486.639635 Z" id="Fill-5" style="mix-blend-mode: multiply;" transform="translate(432.317760, 411.839408) rotate(-15.000000) translate(-432.317760, -411.839408) "></path>
                </g>
            </g>
        </g>
    </g>
</svg>