<?xml version="1.0" encoding="UTF-8"?>
<svg width="117px" height="148px" viewBox="0 0 117 148" version="1.1" xmlns="http://www.w3.org/2000/svg" xmlns:xlink="http://www.w3.org/1999/xlink">
    <!-- Generator: Sketch 56.2 (81672) - https://sketch.com -->
    <title>Group 16</title>
    <desc>Created with Sketch.</desc>
    <defs>
        <path d="M90.6253464,4.52055743 C87.8086145,6.06177491 85.4520205,8.53634507 82.7212957,11.4010696 C75.9009342,18.5618031 67.4077351,27.4728423 45.9038149,27.5784642 C35.1959334,27.6280418 29.1990897,29.0269931 26.4576141,32.1115836 C23.4624175,35.4893288 24.1139211,41.3394885 25.0169955,49.4378858 C25.3610238,52.4944542 25.7480556,55.9584213 25.9867253,59.7263208 C27.4402449,82.887694 14.199455,99.0715552 13.6361086,99.7462421 C5.9298742,108.941814 -2.79124373,127.240269 0.855456471,137.696836 C2.27242312,141.760046 5.51273986,144.331616 10.4925498,145.342568 C27.8509288,148.858269 32.6415231,137.970591 40.584277,119.928647 C42.0399468,116.622035 43.5472209,113.201178 45.2566116,109.577701 C54.4550688,90.1109384 63.0364252,86.7331932 76.0277947,81.6266978 C79.1455513,80.398035 82.6782922,79.0077059 86.5335595,77.272489 C102.950161,69.8746451 99.9893672,59.7176986 96.8544091,48.9658206 C96.4050222,47.4289142 95.9599355,45.8920078 95.5707535,44.376657 C93.5925906,36.6382363 97.4930117,32.6504708 102.421217,27.6043308 C105.97331,23.9743864 109.994141,19.8615991 113.172102,13.1966418 C114.84064,9.70465258 116.216753,4.95813386 113.301113,2.1882535 C109.465197,-1.45893528 99.7162947,-0.456605028 90.6253464,4.52055743 Z" id="path-1"></path>
    </defs>
    <g id="Page-1" stroke="none" stroke-width="1" fill="none" fill-rule="evenodd">
        <g id="01_LANDING_PAGE_desktop" transform="translate(-1113.000000, -778.000000)">
            <g id="NOTRE_MISSION" transform="translate(0.000000, 680.000000)">
                <g id="Group-16-+-Group-6-Mask">
                    <g id="Group-16" transform="translate(1114.000000, 99.000000)">
                        <mask id="mask-2" fill="white">
                            <use xlink:href="#path-1"></use>
                        </mask>
                        <use id="Clip-12" stroke="#FFFFFF" xlink:href="#path-1"></use>
                        <path d="M2,164 C11.0249115,91.9668525 45.9430557,65.9142642 97,17" id="Path-6" stroke="#FFFFFF" stroke-linecap="round" mask="url(#mask-2)"></path>
                    </g>
                </g>
            </g>
        </g>
    </g>
</svg>