<?xml version="1.0" encoding="UTF-8"?>
<svg width="219px" height="96px" viewBox="0 0 219 96" version="1.1" xmlns="http://www.w3.org/2000/svg" xmlns:xlink="http://www.w3.org/1999/xlink">
    <!-- Generator: Sketch 56.2 (81672) - https://sketch.com -->
    <title>Group 13</title>
    <desc>Created with Sketch.</desc>
    <g id="Page-1" stroke="none" stroke-width="1" fill="none" fill-rule="evenodd">
        <g id="02_LANDING_PAGE_mobile" transform="translate(0.000000, -4356.000000)">
            <g id="NOUS-REJOINDRE" transform="translate(-334.000000, 3712.000000)">
                <g id="_background_FORM">
                    <g id="Group-13" transform="translate(328.123296, 645.000000)">
                        <path d="M18.3337305,91.2039931 C18.0341988,91.3264847 17.8395304,91.6120788 17.8395304,91.9276035 L17.8395304,93.7250266 L9.49931045,93.7250266 L9.49931045,91.9190331 C9.49931045,91.6050906 9.3062699,91.3201557 9.00918009,91.196873 C4.83893446,89.4677499 1.94793857,85.5589612 1.64270931,81.2381311 C1.63375592,81.1108928 1.63456986,80.9853685 1.62968619,80.8590531 L12.8618516,80.8590531 L12.8618516,86.3782971 C12.8618516,86.8115667 13.2236501,87.1632193 13.6694204,87.1632193 C14.1151908,87.1632193 14.4768536,86.8115667 14.4768536,86.3782971 L14.4768536,80.8590531 L25.7082051,80.8590531 C25.5306295,85.3973091 22.6807378,89.4268754 18.3337305,91.2039931 L18.3337305,91.2039931 Z M7.7090391,70.2362985 C9.21008877,69.4043046 10.1728497,67.870588 10.3044374,66.1720548 L12.8618516,66.1720548 L12.8618516,79.2892087 L1.67418184,79.2892087 C2.04072826,75.5201844 4.23647973,72.1584547 7.7090391,70.2362985 L7.7090391,70.2362985 Z M9.15691105,50.2928397 C9.15691105,49.5887435 9.74552872,49.0165005 10.4699395,49.0165005 L16.8672735,49.0165005 C17.5915486,49.0165005 18.1803019,49.5887435 18.1803019,50.2928397 L18.1803019,64.6022104 L9.15691105,64.6022104 L9.15691105,50.2928397 Z M19.5952091,70.2166523 C23.0377882,72.1082186 25.2859034,75.5162288 25.6630311,79.2892087 L14.4768536,79.2892087 L14.4768536,66.1720548 L17.0344034,66.1720548 C17.1653129,67.8761258 18.1141011,69.4027224 19.5952091,70.2166523 L19.5952091,70.2166523 Z M20.3905687,68.8501256 C19.4134281,68.3132192 18.7721754,67.3092888 18.649541,66.1720548 L18.9894986,66.1720548 C19.435269,66.1720548 19.7970674,65.8204023 19.7970674,65.3871326 L19.7970674,50.2928397 C19.7970674,48.7229952 18.483225,47.4467879 16.8689014,47.4467879 L10.4715674,47.4467879 C8.85656546,47.4467879 7.54340136,48.7237863 7.54340136,50.2928397 L7.54340136,65.3871326 C7.54340136,65.8204023 7.90519977,66.1720548 8.35097015,66.1720548 L8.69092772,66.1720548 C8.56571589,67.3062562 7.90994778,68.317966 6.91028804,68.8720132 C2.30485332,71.4223182 -0.330156968,76.20147 0.0332693369,81.3455915 C0.367664948,86.0770125 3.42904659,90.3712081 7.88580076,92.4261406 L7.88580076,94.5099488 C7.88580076,94.9430867 8.24746352,95.2947392 8.69336955,95.2947392 L18.6487271,95.2947392 C19.0943618,95.2947392 19.4561602,94.9430867 19.4561602,94.5099488 L19.4561602,92.4377436 C24.2644028,90.2542543 27.3419277,85.58876 27.3419277,80.410884 C27.3402998,75.635556 24.6770728,71.2055515 20.3905687,68.8501256 L20.3905687,68.8501256 Z" id="Fill-1" stroke="#FDF9F5" fill="#003362"></path>
                        <g id="SHAMPOO" transform="translate(70.473614, 9.574306)">
                            <path d="M8.9735982,20.6892748 L32.9291983,20.6892748 C36.0495139,20.6892748 37.1810158,21.0141644 38.3217565,21.6242393 C39.4624972,22.2343141 40.3577572,23.1295741 40.9678321,24.2703148 C41.5779069,25.4110556 41.9027965,26.5425574 41.9027965,29.662873 L41.9027965,81.2171967 C41.9027965,82.5544749 41.7635581,83.0394042 41.5020975,83.5282931 C41.2406368,84.017182 40.856954,84.4008649 40.3680651,84.6623255 C39.8791762,84.9237861 39.3942468,85.0630245 38.0569687,85.0630245 L3.8458278,85.0630245 C2.50854969,85.0630245 2.02362033,84.9237861 1.53473144,84.6623255 C1.04584256,84.4008649 0.662159695,84.017182 0.400699056,83.5282931 C0.139238417,83.0394042 1.01970002e-15,82.5544749 -1.75499049e-15,81.2171967 L6.95113141e-16,29.662873 C-4.03880753e-16,26.5425574 0.324889639,25.4110556 0.934964463,24.2703148 C1.54503929,23.1295741 2.4402993,22.2343141 3.58104004,21.6242393 C4.72178078,21.0141644 5.85328261,20.6892748 8.9735982,20.6892748 Z" id="Rectangle-9" stroke="#0083FF"></path>
                            <polygon id="Rectangle-10" stroke="#0083FF" stroke-linejoin="round" points="13.332708 13.6411041 30.4747611 13.6411041 30.4747611 20.6892748 13.332708 20.6892748"></polygon>
                            <ellipse id="Oval" stroke="#0083FF" cx="20.8868064" cy="53.1643903" rx="9.19725266" ry="13.2910976"></ellipse>
                            <polygon id="Rectangle-11" stroke="#0083FF" points="19.0467257 0.766354164 24.7607434 0.766354164 24.7607434 13.6411041 19.0467257 13.6411041"></polygon>
                            <path d="M8.82306087,0.653197182 C24.6742519,0.653197182 34.3994282,0.653197182 37.9985898,0.653197182 C41.5977513,0.653197182 45.6272002,2.60799901 50.0869365,6.51760268" id="Path-3" stroke="#0083FF" stroke-linecap="round"></path>
                            <path d="M50.4185544,19.1588541 C52.2863812,15.8278299 53.2202945,13.6642481 53.2202945,12.6681088 C53.2202945,11.1738998 51.9659128,9.96260413 50.4185544,9.96260413 C48.871196,9.96260413 47.6168142,11.1738998 47.6168142,12.6681088 C47.6168142,13.6642481 48.5507276,15.8278299 50.4185544,19.1588541 Z" id="Oval-6-Copy-2" transform="translate(50.418554, 14.560729) rotate(-180.000000) translate(-50.418554, -14.560729) "></path>
                        </g>
                        <path d="M130.30359,95.6848709 L145.638187,95.6848709 C146.109352,95.6848709 146.490203,95.3138715 146.490203,94.8567473 L146.490203,72.6249387 C146.490203,72.1678144 146.109352,71.796815 145.638187,71.796815 L144.491372,71.796815 L144.491372,52.6108454 C144.491372,52.1537211 144.110521,51.7827217 143.639355,51.7827217 L142.839312,51.7827217 L142.839312,41.1802541 C142.839312,40.2055526 142.342586,39.2995853 141.510166,38.755508 C140.679449,38.2122588 139.628061,38.1054309 138.699362,38.4739459 L135.919232,39.5728661 C134.20753,40.2494431 133.101613,41.8477218 133.101613,43.6439221 L133.101613,51.7835499 L132.301569,51.7835499 C131.830404,51.7835499 131.449552,52.1545493 131.449552,52.6116735 L131.449552,71.7976432 L130.302738,71.7976432 C129.831573,71.7976432 129.450721,72.1686426 129.450721,72.6257668 L129.450721,94.8567473 C129.451573,95.3138715 129.833277,95.6848709 130.30359,95.6848709 Z M134.806498,43.643094 C134.806498,42.5234708 135.49578,41.5280661 136.562505,41.1065511 L139.342635,40.007631 C139.750751,39.8461469 140.195504,39.8908656 140.560167,40.1293652 C140.926534,40.3686929 141.13613,40.7512861 141.13613,41.1802541 L141.13613,51.7827217 L134.806498,51.7827217 L134.806498,43.643094 Z M133.154438,53.4389691 L142.788191,53.4389691 L142.788191,71.796815 L133.154438,71.796815 L133.154438,53.4389691 Z M131.155607,73.4530624 L144.78617,73.4530624 L144.78617,94.0286236 L131.155607,94.0286236 L131.155607,73.4530624 Z" id="Shape" stroke="#FDF9F5" fill="#F6A69B" fill-rule="nonzero"></path>
                        <g id="CREME" transform="translate(183.876704, -0.000000)" stroke="#8DD393">
                            <polygon id="Rectangle-7" points="7.97572584 84.8 31.9029034 84.8 31.9029034 94.4 7.97572584 94.4"></polygon>
                            <polygon id="Rectangle-8" stroke-linejoin="round" points="0 5.6 39.8786292 5.6 31.9029034 84.8 7.97572584 84.8"></polygon>
                            <path d="M25.3612283,94.4 C25.3612283,91.3072054 22.8663131,88.8 19.7886792,88.8 C16.7110454,88.8 14.2161302,91.3072054 14.2161302,94.4 L25.3612283,94.4 Z" id="Oval-3"></path>
                            <polygon id="Rectangle-6" stroke-linejoin="round" points="0 0 39.7401617 0 39.7401617 5.69143737 0 5.69143737"></polygon>
                        </g>
                    </g>
                </g>
            </g>
        </g>
    </g>
</svg>