<?xml version="1.0" encoding="UTF-8"?>
<svg width="466px" height="122px" viewBox="0 0 466 122" version="1.1" xmlns="http://www.w3.org/2000/svg" xmlns:xlink="http://www.w3.org/1999/xlink">
    <!-- Generator: Sketch 56.2 (81672) - https://sketch.com -->
    <title>Group 17</title>
    <desc>Created with Sketch.</desc>
    <g id="Page-1" stroke="none" stroke-width="1" fill="none" fill-rule="evenodd">
        <g id="01_LANDING_PAGE_desktop" transform="translate(-73.000000, -3291.000000)">
            <g id="NOUS_REJOINDRE" transform="translate(0.000000, 2834.000000)">
                <g id="_BACKGROUND_FORM">
                    <g id="Group-17" transform="translate(74.264151, 458.000000)">
                        <g id="Group-7" transform="translate(398.735849, 21.000000)" stroke="#F6A69B" stroke-linecap="round" stroke-linejoin="round">
                            <path d="M17.9589297,11.25 L22.4589297,11.25" id="Line-2"></path>
                            <path d="M31.9589297,11.2083333 L35.5078077,11.2083333" id="Line-2-Copy"></path>
                            <path d="M24.7441952,4.47755368 L28.9875911,4.47755368 C30.2863101,4.47755368 31.3428757,5.37138782 31.3428757,6.46850897 L31.3428757,17.9102147 L22.3877684,17.9102147 L22.3877684,6.46850897 C22.3877684,5.37033995 23.4454762,4.47755368 24.7441952,4.47755368 Z" id="Path" fill-rule="nonzero"></path>
                            <path d="M17.9102147,23.0582892 C17.9102147,20.2194333 19.1736384,17.9102147 20.7267462,17.9102147 L33.0038979,17.9102147 C34.5570057,17.9102147 35.8204294,20.2194333 35.8204294,23.0582892 L35.8204294,29.1040989 L17.9102147,29.1040989 L17.9102147,23.0582892 Z" id="Path" fill-rule="nonzero"></path>
                            <path d="M3.03492694,33.5340996 C5.5315402,30.7187835 9.20165277,29.1040989 13.1046438,29.1040989 L40.6337405,29.1040989 C44.5367316,29.1040989 48.2068441,30.7187835 50.7034574,33.5340996 C53.2000707,36.3494157 54.2265573,40.0307011 53.504504,43.7449641 L48.6166582,94.308286 C48.3941877,95.4441836 47.3403801,96.267404 46.1109379,96.267404 L7.62874738,96.267404 C6.39930521,96.267404 5.34549763,95.4441836 5.1399401,94.419433 L0.21826841,43.6338172 C-0.488172966,40.0307011 0.538313675,36.3494157 3.03492694,33.5340996 Z" id="Path" fill-rule="nonzero"></path>
                            <path d="M50.3724789,0 C58.3968654,0 64.9245283,5.0217769 64.9245283,11.1938842 C64.9245283,17.3659915 58.3968654,22.3877684 50.3724789,22.3877684 C42.3480923,22.3877684 35.8204294,17.3659915 35.8204294,11.1938842 C35.8204294,5.0217769 42.3468109,0 50.3724789,0 Z" id="Path" fill-rule="nonzero"></path>
                        </g>
                        <path d="M78.0390801,113.769127 C77.654722,113.930843 77.404924,114.30789 77.404924,114.724452 L77.404924,117.097446 L66.702779,117.097446 L66.702779,114.713137 C66.702779,114.298664 66.45507,113.922488 66.0738452,113.759727 C60.7225986,111.476905 57.0128815,106.316445 56.6212122,100.611999 C56.6097232,100.444017 56.6107677,100.278297 56.604501,100.111533 L71.0175817,100.111533 L71.0175817,107.398148 C71.0175817,107.970159 71.4818403,108.434418 72.0538515,108.434418 C72.6258627,108.434418 73.0899473,107.970159 73.0899473,107.398148 L73.0899473,100.111533 L87.5019836,100.111533 C87.2741191,106.103028 83.6171467,111.422941 78.0390801,113.769127 L78.0390801,113.769127 Z M64.4055082,86.0871624 C66.3316506,84.9887477 67.5670625,82.9639047 67.7359155,80.7214676 L71.0175817,80.7214676 L71.0175817,98.0389935 L56.6615976,98.0389935 C57.1319489,93.0630531 59.9495306,88.6248311 64.4055082,86.0871624 L64.4055082,86.0871624 Z M66.2634131,59.7574138 C66.2634131,58.8278521 67.0187256,58.0723656 67.9482873,58.0723656 L76.1573269,58.0723656 C77.0867145,58.0723656 77.842201,58.8278521 77.842201,59.7574138 L77.842201,78.6489279 L66.2634131,78.6489279 L66.2634131,59.7574138 Z M79.6578056,86.0612252 C84.0753127,88.5585084 86.9600874,93.0578308 87.4440165,98.0389935 L73.0899473,98.0389935 L73.0899473,80.7214676 L76.3717876,80.7214676 C76.5397702,82.9712158 77.7572523,84.9866588 79.6578056,86.0612252 L79.6578056,86.0612252 Z M80.6784087,84.2571095 C79.4245448,83.5482752 78.6016912,82.2228664 78.4443272,80.7214676 L78.8805597,80.7214676 C79.4525709,80.7214676 79.9168296,80.2572089 79.9168296,79.6851977 L79.9168296,59.7574138 C79.9168296,57.6848741 78.230911,56 76.1594158,56 L67.9503762,56 C65.8780106,56 64.1929624,57.6859186 64.1929624,59.7574138 L64.1929624,79.6851977 C64.1929624,80.2572089 64.657221,80.7214676 65.2292322,80.7214676 L65.6654647,80.7214676 C65.5047933,82.2188627 64.6633136,83.5545419 63.3805533,84.286006 C57.4708734,87.6529691 54.0896362,93.9624998 54.5559837,100.753871 C54.9850791,107.000386 58.9134348,112.669668 64.6323283,115.382631 L64.6323283,118.133716 C64.6323283,118.705553 65.0964128,119.169811 65.6685981,119.169811 L78.4432828,119.169811 C79.0151199,119.169811 79.4793785,118.705553 79.4793785,118.133716 L79.4793785,115.397949 C85.6493009,112.515264 89.5983715,106.355786 89.5983715,99.5198514 C89.5962826,93.2153689 86.1788377,87.3667894 80.6784087,84.2571095 L80.6784087,84.2571095 Z" id="Fill-1" stroke="#FDF9F5" fill="#003362"></path>
                        <g id="CREME" stroke="#8DD393">
                            <polygon id="Rectangle-7" points="9.9696573 106 39.8786292 106 39.8786292 118 9.9696573 118"></polygon>
                            <polygon id="Rectangle-8" stroke-linejoin="round" points="0 7 49.8482865 7 39.8786292 106 9.9696573 106"></polygon>
                            <path d="M31.7015353,118 C31.7015353,114.134007 28.5828914,111 24.7358491,111 C20.8888068,111 17.7701628,114.134007 17.7701628,118 L31.7015353,118 Z" id="Oval-3"></path>
                            <polygon id="Rectangle-6" stroke-linejoin="round" points="0 0 49.6752022 0 49.6752022 7.11429672 0 7.11429672"></polygon>
                        </g>
                        <g id="SHAMPOO" transform="translate(134.679245, 6.000000)">
                            <path d="M8.9735982,27.3143896 L44.7959436,27.3143896 C47.9162592,27.3143896 49.047761,27.6392793 50.1885017,28.2493541 C51.3292425,28.8594289 52.2245025,29.7546889 52.8345773,30.8954297 C53.4446521,32.0361704 53.7695418,33.1676722 53.7695418,36.2879878 L53.7695418,108.456059 C53.7695418,109.793337 53.6303034,110.278266 53.3688427,110.767155 C53.1073821,111.256044 52.7236992,111.639727 52.2348103,111.901188 C51.7459214,112.162648 51.2609921,112.301887 49.923714,112.301887 L3.8458278,112.301887 C2.50854969,112.301887 2.02362033,112.162648 1.53473144,111.901188 C1.04584256,111.639727 0.662159695,111.256044 0.400699056,110.767155 C0.139238417,110.278266 6.01853049e-17,109.793337 -1.03584031e-16,108.456059 L2.41696072e-16,36.2879878 C-1.40432378e-16,33.1676722 0.324889639,32.0361704 0.934964463,30.8954297 C1.54503929,29.7546889 2.4402993,28.8594289 3.58104004,28.2493541 C4.72178078,27.6392793 5.85328261,27.3143896 8.9735982,27.3143896 Z" id="Rectangle-9" stroke="#0083FF"></path>
                            <polygon id="Rectangle-10" stroke="#0083FF" stroke-linejoin="round" points="17.1084906 18.0092554 39.1051213 18.0092554 39.1051213 27.3143896 17.1084906 27.3143896"></polygon>
                            <ellipse id="Oval" stroke="#0083FF" cx="26.8018868" cy="70.1886792" rx="11.8018868" ry="17.5471698"></ellipse>
                            <polygon id="Rectangle-11" stroke="#0083FF" points="24.4407008 1.01175592 31.7729111 1.01175592 31.7729111 18.0092554 24.4407008 18.0092554"></polygon>
                            <path d="M11.321725,0.862363834 C31.6619254,0.862363834 44.1412423,0.862363834 48.7596755,0.862363834 C53.3781087,0.862363834 58.5486853,3.44313186 64.2714054,8.60466791" id="Path-3" stroke="#0083FF" stroke-linecap="round"></path>
                            <path d="M64.6969365,25.293898 C67.0937262,20.896214 68.292121,18.0398105 68.292121,16.7246877 C68.292121,14.7520035 66.6825021,13.1528269 64.6969365,13.1528269 C62.7113709,13.1528269 61.101752,14.7520035 61.101752,16.7246877 C61.101752,18.0398105 62.3001469,20.896214 64.6969365,25.293898 Z" id="Oval-6-Copy-2" transform="translate(64.696937, 19.223362) rotate(-180.000000) translate(-64.696937, -19.223362) "></path>
                        </g>
                        <path d="M211.452889,119.684871 L231.130197,119.684871 C231.734795,119.684871 232.223503,119.19507 232.223503,118.591566 L232.223503,89.2406925 C232.223503,88.637188 231.734795,88.1473872 231.130197,88.1473872 L229.658608,88.1473872 L229.658608,62.8176908 C229.658608,62.2141863 229.169901,61.7243856 228.565303,61.7243856 L227.53869,61.7243856 L227.53869,47.7267982 C227.53869,46.4399779 226.901293,45.243902 225.833133,44.5256004 C224.767161,43.8083922 223.418022,43.6673558 222.226319,44.1538766 L218.658864,45.6046927 C216.462414,46.4979231 215.043304,48.6080023 215.043304,50.9793814 L215.043304,61.7254789 L214.01669,61.7254789 C213.412092,61.7254789 212.923385,62.2152796 212.923385,62.8187841 L212.923385,88.1484805 L211.451796,88.1484805 C210.847198,88.1484805 210.358491,88.6382813 210.358491,89.2417858 L210.358491,118.591566 C210.359584,119.19507 210.849385,119.684871 211.452889,119.684871 Z M217.231007,50.9782881 C217.231007,49.5001394 218.115491,48.1859864 219.48431,47.6294941 L223.051765,46.178678 C223.575458,45.9654835 224.146163,46.0245219 224.614098,46.3393939 C225.084219,46.6553591 225.353172,47.1604661 225.353172,47.7267982 L225.353172,61.7243856 L217.231007,61.7243856 L217.231007,50.9782881 Z M215.111089,63.9109961 L227.473091,63.9109961 L227.473091,88.1473872 L215.111089,88.1473872 L215.111089,63.9109961 Z M212.546194,90.3339978 L230.036892,90.3339978 L230.036892,117.49826 L212.546194,117.49826 L212.546194,90.3339978 Z" id="Shape" stroke="#FDF9F5" fill="#F6A69B" fill-rule="nonzero"></path>
                    </g>
                </g>
            </g>
        </g>
    </g>
</svg>