<?xml version="1.0" encoding="UTF-8"?>
<svg width="271px" height="512px" viewBox="0 0 271 512" version="1.1" xmlns="http://www.w3.org/2000/svg" xmlns:xlink="http://www.w3.org/1999/xlink">
    <!-- Generator: Sketch 56.2 (81672) - https://sketch.com -->
    <title>Fill 5</title>
    <desc>Created with Sketch.</desc>
    <g id="Page-1" stroke="none" stroke-width="1" fill="none" fill-rule="evenodd" opacity="0.825334821">
        <g id="02_LANDING_PAGE_mobile" transform="translate(-49.000000, -3768.000000)" fill="#FDF5EC">
            <g id="NOUS-REJOINDRE" transform="translate(-334.000000, 3712.000000)">
                <g id="_background_FORM">
                    <path d="M852.771205,473.69771 C829.734329,495.120222 804.774187,513.725584 780.808746,525.444288 C781.134141,524.920045 781.451599,524.393153 781.776993,523.868909 C790.954178,508.514918 795.761022,489.401198 796.491176,467.12348 C797.612861,432.510145 788.893345,389.757792 771.560134,341.244051 C756.816851,299.998237 741.266695,272.125937 725.303844,256.327133 C718.756271,249.848219 712.03145,245.235932 705.17171,242.43467 C719.362087,208.231728 769.070733,202.814541 812.245034,198.122823 C837.36126,195.398343 860.625647,192.869793 877.207541,185.096157 C886.834458,206.214183 896.498412,230.570342 907.434843,258.122271 C918.080271,284.93814 929.839448,314.581748 942.974276,345.218243 C936.678024,377.255369 899.075113,430.635576 852.771205,473.69771 L852.771205,473.69771 Z M770.118345,466.302694 C769.536338,484.066089 765.949062,498.90378 759.118422,510.304761 C752.724287,520.996159 743.187317,528.865112 730.28,533.490638 C719.914993,537.20006 707.409789,538.907825 692.663861,538.425944 C677.375608,537.930825 663.783111,535.54525 652.111235,531.242744 C636.312404,525.415164 624.122013,515.920525 616.143233,502.65027 C607.844349,488.847829 603.775595,470.689927 604.505749,447.999169 C605.325849,423.179663 611.889295,393.149491 624.942113,357.720666 C639.177463,319.037821 653.896937,291.35086 668.634929,276.47875 C675.544933,269.517956 682.026369,265.784704 687.978709,265.557002 C693.735282,265.342539 700.01037,268.458877 706.788101,275.170788 C719.885892,288.123318 733.248233,312.691293 746.634382,350.145606 C762.914692,395.707166 771.131565,435.179023 770.118345,466.302694 L770.118345,466.302694 Z M524.165042,473.69771 C477.853197,430.635576 440.258222,377.255369 433.96197,345.218243 C447.088862,314.581748 458.855975,284.93814 469.496113,258.122271 C480.437835,230.562399 490.101788,206.214183 499.728705,185.096157 C516.310599,192.869793 539.574987,195.398343 564.696504,198.122823 C607.90255,202.814541 657.664106,208.231728 671.801573,242.519396 C664.272526,245.598667 656.960407,250.740493 649.918129,257.849558 C632.399733,275.522931 615.648528,306.432139 600.122181,348.609942 C586.116988,386.63351 579.042964,419.449059 578.140854,447.17044 C577.225516,475.191011 582.593204,498.194197 593.489953,516.312384 C596.04549,520.543402 598.881449,524.504356 602.003121,528.176711 C576.265206,516.754549 549.082856,496.870349 524.165042,473.69771 L524.165042,473.69771 Z M481.543647,139.711993 C476.99606,134.88789 472.67863,129.22182 468.927333,123.182424 C458.221059,105.943273 451.983008,86.5197726 459.763376,78.2721984 L481.093915,55.6847005 C489.231424,47.0690965 510.286832,52.3830231 528.942786,62.3436569 C535.217874,65.6876975 541.146404,69.6274697 546.246897,73.8320116 C547.061707,74.5045264 547.834188,75.1849844 548.596087,75.8654424 C523.784092,90.9361302 505.65988,114.529753 488.898093,146.572174 C486.437793,144.575811 483.966911,142.288202 481.543647,139.711993 L481.543647,139.711993 Z M688.465478,82.4687972 L743.930698,82.4687972 C806.708035,82.4687972 837.990885,109.00401 865.675876,161.452228 C853.78178,167.015038 832.549124,169.329125 809.454048,171.841789 C764.020504,176.769152 712.555256,182.371677 688.457541,216.876456 C664.359827,182.384916 612.907806,176.769152 567.490135,171.841789 C544.395059,169.329125 523.154467,167.022981 511.26037,161.452228 C538.94007,109.00401 570.228211,82.4687972 633.005549,82.4687972 L688.465478,82.4687972 Z M830.689349,73.8320116 C835.781906,69.6274697 841.718372,65.6876975 847.99346,62.3436569 C866.65206,52.3830231 887.707468,47.0690965 895.842332,55.6847005 L917.170224,78.2721984 C924.961175,86.5197726 918.715187,105.943273 908.008913,123.182424 C904.257616,129.22182 899.940186,134.88789 895.400536,139.711993 C892.971981,142.288202 890.498454,144.578459 888.038153,146.574822 C871.276366,114.529753 853.152154,90.9387779 828.337514,75.8654424 C829.102058,75.1849844 829.87454,74.5045264 830.689349,73.8320116 L830.689349,73.8320116 Z M968.770392,338.257449 C954.048273,304.088928 942.42137,274.80011 931.945253,248.39993 C920.368615,219.224963 910.090909,193.370208 899.789394,170.777415 C904.879305,167.240092 909.900434,162.852859 914.63056,157.822236 C920.397715,151.706058 925.810376,144.626117 930.445264,137.156966 C946.775837,110.860045 953.812825,78.589922 936.41083,60.1619551 L915.075001,37.5744573 C897.445495,18.8949593 863.466897,24.1638751 835.591431,39.0518718 C827.758153,43.2352321 820.33757,48.154652 813.935498,53.4447494 C809.784733,56.8735162 806.02021,60.4929172 802.774201,64.2049875 C786.128815,58.7480853 766.864399,55.9653564 743.930698,55.9653564 L688.465478,55.9653564 L633.005549,55.9653564 C610.071847,55.9653564 590.807432,58.7507329 574.162046,64.2049875 C570.916037,60.4929172 567.148867,56.8735162 563.000748,53.4447494 C556.598677,48.154652 549.178094,43.2352321 541.352752,39.0518718 C513.469349,24.1638751 479.490751,18.8949593 461.853309,37.5744573 L440.533352,60.1619551 C423.131358,78.589922 430.160409,110.860045 446.490983,137.156966 C451.125871,144.626117 456.546468,151.706058 462.305687,157.822236 C467.041103,162.850212 472.056941,167.237445 477.146853,170.772119 C466.845337,193.36756 456.567632,219.224963 444.990993,248.39993 C434.514876,274.80011 422.887973,304.088928 408.157918,338.257449 L407.226708,345.189119 C412.065298,382.275402 454.189341,444.702787 506.165168,493.052371 C549.754809,533.593898 600.939636,565.048531 644.29383,565.048531 L688.465478,565.048531 L732.642417,565.048531 C775.988674,565.048531 827.181437,533.593898 870.771079,493.052371 C922.746905,444.702787 964.865657,382.275402 969.709539,345.189119 L968.770392,338.257449 Z" id="Fill-5" style="mix-blend-mode: multiply;" transform="translate(688.468123, 295.324267) rotate(-15.000000) translate(-688.468123, -295.324267) "></path>
                </g>
            </g>
        </g>
    </g>
</svg>