<?xml version="1.0" encoding="UTF-8"?>
<svg width="153px" height="35px" viewBox="0 0 153 35" version="1.1" xmlns="http://www.w3.org/2000/svg" xmlns:xlink="http://www.w3.org/1999/xlink">
    <!-- Generator: Sketch 56.2 (81672) - https://sketch.com -->
    <title>_GREEZLI_LOGO</title>
    <desc>Created with Sketch.</desc>
    <g id="Page-1" stroke="none" stroke-width="1" fill="none" fill-rule="evenodd">
        <g id="01_LANDING_PAGE_desktop" transform="translate(-65.000000, -62.000000)" fill="#0083FF">
            <g id="HEADER" transform="translate(65.000000, 54.000000)">
                <g id="_GREEZLI_LOGO" transform="translate(0.000000, 8.000000)">
                    <path d="M11.7249505,13.1072464 C12.2620844,13.1072464 12.7463286,13.4322792 12.9518808,13.9307825 C13.157433,14.4292858 13.0438133,15.0030879 12.6640023,15.3846258 C12.2841913,15.7661637 11.7129863,15.8803 11.2167393,15.6738132 C10.7204923,15.4673264 10.3969307,14.9808804 10.3969307,14.4413043 C10.3969307,13.7045245 10.9915054,13.1072464 11.7249505,13.1072464 L11.7249505,13.1072464 Z" id="Shape"></path>
                    <path d="M24.4446535,13.1072464 C24.9817873,13.1072464 25.4660315,13.4322792 25.6715838,13.9307825 C25.877136,14.4292858 25.7635163,15.0030879 25.3837053,15.3846258 C25.0038943,15.7661637 24.4326893,15.8803 23.9364423,15.6738132 C23.4401953,15.4673264 23.1166337,14.9808804 23.1166337,14.4413043 C23.1166337,13.7045245 23.7112084,13.1072464 24.4446535,13.1072464 L24.4446535,13.1072464 Z" id="Shape"></path>
                    <path d="M32.4178218,1.01449275 C31.3069307,-0.172463768 29.1507921,0.162318841 27.3834653,1.11086957 C26.8971678,1.37157558 26.437192,1.67905412 26.01,2.02898551 C25.6098968,2.35234139 25.2579136,2.73154694 24.9647525,3.15507246 C24.9193069,3.22101449 24.8789109,3.28695652 24.8435644,3.34782609 C25.3995298,3.49058648 25.9380564,3.69472804 26.4493069,3.95652174 C26.6325809,3.72294412 26.8408617,3.51031426 27.070396,3.32246377 C27.4131476,3.04260497 27.7817562,2.79631477 28.1711881,2.58695652 C29.3527723,1.95797101 30.6959406,1.61811594 31.2008911,2.16594203 L32.5491089,3.60144928 C33.0540594,4.10869565 32.650099,5.3615942 31.9684158,6.45724638 C31.7386139,6.83352227 31.4712967,7.18533395 31.1705941,7.50724638 C30.9283258,7.77671671 30.64956,8.01064695 30.3424752,8.20217391 L30.3424752,8.20217391 L30.3424752,8.20217391 C30.5949505,8.67391304 30.8474257,9.17101449 31.0847525,9.72391304 C31.1284677,9.70330384 31.1706552,9.67957145 31.2109901,9.65289855 L31.2109901,9.65289855 C31.6547006,9.38204147 32.0576719,9.04897532 32.4077228,8.66376812 C32.7865827,8.26030484 33.1248575,7.82024715 33.4176238,7.35 C34.4275248,5.67608696 34.8971287,3.62681159 33.7912871,2.45507246 L32.4178218,1.01449275 Z" id="Shape"></path>
                    <path d="M3.71643564,1.01449275 C4.83237624,-0.172463768 6.98346535,0.162318841 8.76594059,1.11086957 C9.23912073,1.37237212 9.68561629,1.67988403 10.0990099,2.02898551 C10.5006183,2.35228329 10.8542776,2.73146279 11.1493069,3.15507246 L11.270495,3.34782609 C10.7129106,3.49058775 10.1727108,3.69472164 9.65970297,3.95652174 C9.47642897,3.72294412 9.26814818,3.51031426 9.03861386,3.32246377 C8.70404269,3.04370198 8.34391667,2.7974311 7.96306931,2.58695652 C6.78148515,1.95797101 5.43831683,1.61811594 4.93336634,2.16594203 L3.58009901,3.60144928 C3.07514851,4.10869565 3.48415842,5.3615942 4.16079208,6.45724638 C4.39059406,6.83352227 4.65791122,7.18533395 4.95861386,7.50724638 C5.20368692,7.7757648 5.48397879,8.00955014 5.79178218,8.20217391 L5.79178218,8.20217391 L5.79178218,8.20217391 C5.53930693,8.67391304 5.28683168,9.17101449 5.04445545,9.72391304 L4.93841584,9.63768116 L4.93841584,9.63768116 C4.49545202,9.36576864 4.09262117,9.03281855 3.74168317,8.64855072 C3.36269763,8.24519526 3.02441282,7.80512459 2.73178218,7.33478261 C1.72188119,5.66086957 1.25227723,3.6115942 2.35306931,2.43985507 L3.71643564,1.01449275 Z" id="Shape"></path>
                    <path d="M19.9505941,26.0673913 C21.0816832,24.5456522 20.2535644,23.8507246 18.0115842,23.9166667 C15.5726733,23.9876812 15.1131683,24.8449275 16.3149505,26.1637681 C17.6227723,27.6043478 18.910396,27.4572464 19.9505941,26.0673913 Z" id="Shape"></path>
                    <path d="M17.0117822,14.0405797 C16.1129703,11.8644928 12.9721782,11.5043478 10.2252475,11.2202899 C8.63465347,11.0478261 7.16524752,10.8855072 6.1149505,10.3934783 C5.5039604,11.7326087 4.8929703,13.2847826 4.19613861,15.0347826 C3.49930693,16.7847826 2.77722772,18.6210145 1.94910891,20.5688406 C2.3480198,22.5978261 4.72633663,26.0014493 7.66009901,28.7355072 C9.10806194,30.1474224 10.7719354,31.3170869 12.5884158,32.2 C12.3904315,31.9644385 12.2114492,31.7134024 12.0531683,31.4492754 C11.3105434,30.1111687 10.9719052,28.5847747 11.0786139,27.0565217 C11.2098558,24.909017 11.680287,22.7961494 12.4722772,20.7971014 C13.4518812,18.1137681 14.5173267,16.1507246 15.6231683,15.0246377 C16.0170548,14.6105763 16.4891141,14.2794945 17.0117822,14.0507246 L17.0117822,14.0405797 Z M15.4110891,27.1985507 C15.416227,27.6505736 15.6911323,28.0552658 16.1082641,28.2248725 C16.525396,28.3944793 17.0031213,28.2958084 17.319802,27.9746377 L17.319802,27.9746377 C17.5397795,27.7679724 17.6672567,27.4807591 17.6732673,27.1782609 L18.5114851,27.1782609 C18.5089671,27.4764306 18.6253422,27.7632114 18.8346535,27.9746377 L18.8346535,27.9746377 C19.1555825,28.2641643 19.6134158,28.343028 20.0120311,28.1774457 C20.4106464,28.0118634 20.679324,27.6312118 20.7029703,27.1985507 L21.5361386,27.1985507 C21.5316029,27.7130035 21.3225255,28.2042865 20.9554455,28.5630435 C20.5898934,28.9304105 20.094007,29.136808 19.5769307,29.136808 C19.0598543,29.136808 18.563968,28.9304105 18.1984158,28.5630435 L18.1984158,28.5630435 C18.1438874,28.5092617 18.0932629,28.4516264 18.0469307,28.3905797 C17.9964356,28.4514493 17.9459406,28.5072464 17.890396,28.5630435 L17.890396,28.5630435 C17.3342802,29.1165844 16.5035104,29.2844165 15.7776111,28.9898683 C15.0517117,28.6953201 14.570053,27.9949438 14.5526733,27.2086957 L15.3908911,27.2086957 L15.4110891,27.1985507 Z M18.0671287,12.4123188 C16.5522772,10.2210145 13.280198,9.87608696 10.4019802,9.55144928 C8.94267327,9.38913043 7.59445545,9.24202899 6.86732673,8.88695652 C8.58415842,5.57971014 10.6039604,3.87028986 14.5526733,3.87028986 L21.5765347,3.87028986 C25.5555446,3.87028986 27.5349505,5.55434783 29.2871287,8.88695652 C28.5347525,9.24202899 27.1915842,9.3942029 25.7524752,9.55144928 C22.8742574,9.86086957 19.6173267,10.2210145 18.0923762,12.4123188 L18.0671287,12.4123188 Z M30.0193069,10.3833333 C28.9690099,10.8905797 27.4945545,11.0376812 25.9039604,11.2101449 C23.1721782,11.5094203 20.0212871,11.8543478 19.1224752,14.0253623 C19.6018104,14.2325669 20.0358916,14.5324624 20.4,14.907971 C21.409901,15.9224638 22.419802,17.6876812 23.3287129,20.3101449 C24.4244554,23.3891304 24.979901,26.107971 24.9092079,28.3094203 C24.9056129,29.5715001 24.5842587,30.8121576 23.9750495,31.915942 L23.9144554,32.0173913 C25.5777555,31.1432394 27.1080919,30.0346793 28.4590099,28.7253623 C31.3927723,25.9913043 33.7761386,22.5978261 34.1750495,20.5586957 C33.3418812,18.6108696 32.599604,16.7289855 31.9229703,15.0246377 C31.2463366,13.3202899 30.620198,11.7224638 30.0092079,10.3833333 L30.0193069,10.3833333 Z M15.7645545,32.3927536 C14.817423,32.0735565 14.0116095,31.4310003 13.4872277,30.5768116 C12.9109275,29.5150463 12.6547644,28.3077203 12.75,27.1021739 C12.8772924,25.1333805 13.3135664,23.1971717 14.0426733,21.3652174 C14.9465347,18.9050725 15.8756436,17.1449275 16.809802,16.2014493 C17.1198432,15.8261332 17.5566773,15.5787324 18.0368317,15.5065217 C18.5007322,15.5352542 18.9321031,15.7555926 19.2285149,16.1152174 C20.0566337,16.942029 20.899901,18.5043478 21.7532673,20.8833333 C22.7631683,23.7797101 23.3034653,26.2905797 23.2681188,28.2688406 C23.2732217,29.2444901 23.0335703,30.2057095 22.5712871,31.0637681 C22.1467375,31.7666018 21.4829683,32.2910209 20.7029703,32.5398551 C19.9349961,32.792826 19.1263671,32.8978062 18.319604,32.8492754 C17.4457347,32.8360767 16.5796507,32.6819389 15.7544554,32.3927536 L15.7645545,32.3927536 Z M2.63584158,14.415942 C5.84227723,6.3 7.47326733,2.18623188 14.5425743,2.18623188 L21.5765347,2.18623188 C28.6458416,2.18623188 30.2818812,6.31014493 33.4832673,14.415942 C34.149802,16.0949275 34.8870297,17.9666667 35.8161386,20.1275362 L35.8767327,20.5688406 C35.5687129,22.9275362 32.9025743,26.884058 29.610297,29.9681159 C26.8482178,32.5449275 23.6064356,34.5333333 20.8645545,34.5333333 L15.269703,34.5333333 C12.5227723,34.5333333 9.2809901,32.5347826 6.51891089,29.9681159 C3.22663366,26.884058 0.56049505,22.9275362 0.252475248,20.5688406 L0.313069307,20.1275362 C1.24722772,17.9565217 1.98445545,16.0949275 2.64594059,14.415942 L2.63584158,14.415942 Z" id="Shape"></path>
                    <path d="M66.2343564,21.3652174 L66.2343564,16.5615942 L61.4524752,16.5615942 L61.4524752,18.6615942 L63.8913861,18.6615942 L63.8913861,20.2442029 C63.2174396,20.7018182 62.4170242,20.9343373 61.6039604,20.9086957 C59.6548515,20.9086957 58.2712871,19.4224638 58.2712871,17.3985507 L58.2712871,17.3681159 C58.2029126,15.5422184 59.6150856,14.0035201 61.4322772,13.923913 C62.501585,13.9000823 63.5366562,14.3032241 64.310495,15.0449275 L65.8253465,13.1934783 C64.6382319,12.1376968 63.0864629,11.5913798 61.5029703,11.6717391 C59.9768507,11.6429375 58.5039422,12.2350494 57.4189318,13.3135301 C56.3339214,14.3920107 55.7289502,15.8652735 55.7414851,17.3985507 L55.7414851,17.4289855 C55.7414851,20.7007246 58.099604,23.120329 61.5332673,23.120329 C63.260089,23.126017 64.9303823,22.502441 66.2343564,21.3652174 L66.2343564,21.3652174 Z M82.8118812,22.9326087 L80.1255446,18.9811594 C81.5918865,18.5007528 82.5574035,17.0946992 82.4836634,15.5471014 L82.4836634,15.5166667 C82.4836634,13.2442029 80.9284158,11.8644928 78.3279208,11.8644928 L73.2784158,11.8644928 L73.2784158,22.9326087 L75.7021782,22.9326087 L75.7021782,19.3818841 L77.6058416,19.3818841 L79.9690099,22.9326087 L82.8118812,22.9326087 Z M80.019505,15.673913 C80.019505,16.6072464 79.3428713,17.2413043 78.1612871,17.2413043 L75.7072277,17.2413043 L75.7072277,14.065942 L78.1158416,14.065942 C79.2974257,14.065942 80.019505,14.6036232 80.019505,15.6434783 L80.019505,15.673913 Z M97.7685149,22.9326087 L97.7685149,20.7666667 L91.789901,20.7666667 L91.789901,18.4434783 L96.9807921,18.4434783 L96.9807921,16.2775362 L91.789901,16.2775362 L91.789901,14.0304348 L97.6877228,14.0304348 L97.6877228,11.8644928 L89.3762376,11.8644928 L89.3762376,22.9326087 L97.7685149,22.9326087 Z M113.028119,22.9326087 L113.028119,20.7666667 L107.049505,20.7666667 L107.049505,18.4434783 L112.240396,18.4434783 L112.240396,16.2775362 L107.049505,16.2775362 L107.049505,14.0304348 L112.952376,14.0304348 L112.952376,11.8644928 L104.640891,11.8644928 L104.640891,22.9326087 L113.028119,22.9326087 Z M128.747228,22.9326087 L128.747228,20.7971014 L122.70297,20.7971014 L128.762376,13.6956522 L128.762376,11.8644928 L119.764158,11.8644928 L119.764158,14 L125.631683,14 L119.572277,21.1014493 L119.572277,22.9528986 L128.747228,22.9326087 Z M143.678614,22.9326087 L143.678614,20.715942 L138.189802,20.715942 L138.189802,11.8644928 L135.76604,11.8644928 L135.76604,22.9326087 L143.678614,22.9326087 Z M152.767723,22.9326087 L152.767723,11.8644928 L150.34396,11.8644928 L150.34396,22.9326087 L152.767723,22.9326087 Z" id="Shape"></path>
                </g>
            </g>
        </g>
    </g>
</svg>