<?xml version="1.0" encoding="UTF-8"?>
<svg width="464px" height="466px" viewBox="0 0 464 466" version="1.1" xmlns="http://www.w3.org/2000/svg" xmlns:xlink="http://www.w3.org/1999/xlink">
    <!-- Generator: Sketch 56.2 (81672) - https://sketch.com -->
    <title>Group 13</title>
    <desc>Created with Sketch.</desc>
    <defs>
        <rect id="path-1" x="0" y="0" width="195" height="195" rx="5"></rect>
        <filter x="-12.6%" y="-9.0%" width="125.1%" height="125.1%" filterUnits="objectBoundingBox" id="filter-2">
            <feOffset dx="0" dy="7" in="SourceAlpha" result="shadowOffsetOuter1"></feOffset>
            <feGaussianBlur stdDeviation="7" in="shadowOffsetOuter1" result="shadowBlurOuter1"></feGaussianBlur>
            <feColorMatrix values="0 0 0 0 0.992156863   0 0 0 0 0.976470588   0 0 0 0 0.960784314  0 0 0 1 0" type="matrix" in="shadowBlurOuter1"></feColorMatrix>
        </filter>
        <rect id="path-3" x="0" y="10" width="195" height="195" rx="5"></rect>
        <filter x="-12.6%" y="-9.0%" width="125.1%" height="125.1%" filterUnits="objectBoundingBox" id="filter-4">
            <feOffset dx="0" dy="7" in="SourceAlpha" result="shadowOffsetOuter1"></feOffset>
            <feGaussianBlur stdDeviation="7" in="shadowOffsetOuter1" result="shadowBlurOuter1"></feGaussianBlur>
            <feColorMatrix values="0 0 0 0 0.992156863   0 0 0 0 0.976470588   0 0 0 0 0.960784314  0 0 0 1 0" type="matrix" in="shadowBlurOuter1"></feColorMatrix>
        </filter>
        <path d="M22.728838,1.20625698 C22.040905,1.58173184 21.465352,2.18459218 20.7984246,2.88250279 C19.1326816,4.62701676 17.0583799,6.79794413 11.8064581,6.82367598 C9.19126257,6.83575419 7.72664804,7.17656983 7.05709497,7.92804469 C6.32557542,8.75093855 6.48469274,10.1761676 6.7052514,12.1491173 C6.78927374,12.8937654 6.88379888,13.7376648 6.94208939,14.6556089 C7.2970838,20.2982346 4.06327374,24.2409832 3.92568715,24.405352 C2.04358659,26.6455978 -0.0863798883,31.1035084 0.804256983,33.6509609 C1.15032402,34.6408492 1.9417095,35.2673408 3.15793296,35.5136313 C7.39738547,36.3701341 8.56739665,33.7176536 10.5072626,29.3222346 C10.8627821,28.5166704 11.230905,27.6832737 11.6483911,26.800514 C13.8949385,22.0579777 15.9907709,21.2350838 19.1636648,19.9910279 C19.9251173,19.6916983 20.7879218,19.3529832 21.7294972,18.9302458 C25.7389385,17.1279665 25.0158212,14.6535084 24.2501676,12.0341117 C24.1404134,11.6596872 24.0317095,11.2852626 23.9366592,10.9160894 C23.4535307,9.03083799 24.4061341,8.05932961 25.6097542,6.82997765 C26.4772849,5.94564246 27.4592961,4.94367598 28.2354525,3.31994413 C28.6429609,2.46921788 28.9790503,1.31286034 28.2669609,0.638055866 C27.3301117,-0.250480447 24.9491285,-0.00629050279 22.728838,1.20625698 Z" id="path-5"></path>
        <path d="M3.10121788,39.8717654 L2.48207821,39.8397318 C2.51306145,39.2584022 3.29394413,25.5470056 8.79898324,21.5349385 C14.8380894,17.1326927 16.7422458,12.4011844 17.649162,9.2256648 C18.7178212,5.48404469 24.1566927,4.48417877 24.3877542,4.44321788 L24.4954078,5.05448045 C24.443419,5.06340782 19.2072514,6.02861453 18.2451955,9.3963352 C17.3135978,12.6595531 15.3579777,17.5202458 9.16395531,22.0364469 C3.89522905,25.875743 3.10856983,39.7326034 3.10121788,39.8717654" id="path-7"></path>
        <path d="M11.9049609,8.63476562 C16.6585251,14.915436 24.0861212,8.6120045 23.4365234,18.0009766 C22.2995961,34.429971 33.6689453,24.1829944 28.6376953,40.0888672 C23.6064453,55.99474 37.8179777,47.7281564 32.0708492,61.5587598 C26.3226704,75.388838 33.7723017,91.8850503 25.1248268,85.1060223 C25.1248268,85.1060223 17.5097765,68.4081564 9.65683799,63.2418324 C1.80442458,58.0755084 14.3615642,50.6517028 11.9049609,43.6342614 C8.33611173,33.4423508 -0.26252514,35.1363575 5.93727374,24.1829944 C12.1370726,13.2306816 -5.84265922,5.37721788 3.66394413,0.831083799 C6.46031285,-0.505921788 9.12172067,3.93871513 11.9049609,8.63476562 Z" id="path-9"></path>
        <path d="M16.5808827,12.4463464 C14.9282682,18.0264804 -1.81160894,14.8808939 5.21528492,28.8527598 C12.2411285,42.8251508 -3.67112849,33.5259777 1.08191061,45.7186704 C5.83494972,57.910838 1.49519553,70.9511061 6.66151955,67.6348492 C11.8273184,64.3175419 9.56449162,48.9635084 14.9366704,47.1396983 C20.3098994,45.314838 21.1868827,43.1874972 15.8672179,38.2275531 C10.5470279,33.2676089 29.8070503,28.3433743 25.053486,18.3284358 C20.3009721,8.31402235 25.854324,2.21767598 21.3339218,0.667463687 C17.4216313,-0.674268156 18.2345475,6.86673743 16.5808827,12.4463464 Z" id="path-11"></path>
        <rect id="path-13" x="0" y="5" width="195" height="195" rx="5"></rect>
        <filter x="-12.6%" y="-9.0%" width="125.1%" height="125.1%" filterUnits="objectBoundingBox" id="filter-14">
            <feOffset dx="0" dy="7" in="SourceAlpha" result="shadowOffsetOuter1"></feOffset>
            <feGaussianBlur stdDeviation="7" in="shadowOffsetOuter1" result="shadowBlurOuter1"></feGaussianBlur>
            <feColorMatrix values="0 0 0 0 0.992156863   0 0 0 0 0.976470588   0 0 0 0 0.960784314  0 0 0 1 0" type="matrix" in="shadowBlurOuter1"></feColorMatrix>
        </filter>
        <path d="M19.5938259,1.03872129 C19.0007802,1.36204687 18.5046138,1.8811766 17.9296764,2.48215518 C16.493691,3.98437554 14.7054999,5.85378523 10.1779811,5.8759432 C7.92350222,5.88634389 6.66090349,6.17982402 6.08370256,6.82692737 C5.45308226,7.53553042 5.59025236,8.76281099 5.78038914,10.4617399 C5.85282219,11.1029646 5.93430938,11.8296558 5.98455982,12.6201077 C6.29058948,17.4790354 3.50282219,20.87418 3.38421306,21.0157197 C1.76171258,22.9448203 -0.0744654209,26.7835767 0.693324986,28.9772163 C0.99165864,29.8296201 1.6738875,30.369099 2.722356,30.5811825 C6.37705644,31.3187266 7.38568677,29.0346462 9.05798497,25.249702 C9.36446735,24.5560217 9.68181468,23.8383746 10.0417164,23.0782204 C11.9783953,18.9943696 13.7851474,18.2857666 16.5204007,17.2144963 C17.1768253,16.9567402 17.9206222,16.6650689 18.7323252,16.301045 C22.1887401,14.7490822 21.5653631,12.6182989 20.9053169,10.3627073 C20.8107012,10.0402862 20.7169909,9.71786499 20.635051,9.39996586 C20.218561,7.77655493 21.0397708,6.93997827 22.0773743,5.88136965 C22.8252456,5.11985878 23.671807,4.25705431 24.3409073,2.85884078 C24.6922077,2.12627095 24.9819399,1.13051862 24.3680697,0.549436996 C23.5604411,-0.215691496 21.5078694,-0.00541682185 19.5938259,1.03872129 Z" id="path-15"></path>
        <path d="M2.67346369,34.3340202 L2.1397226,34.3064358 C2.16643229,33.8058464 2.83960701,21.9988104 7.58533038,18.5439749 C12.7914564,14.7531521 14.4329705,10.6787976 15.2147948,7.94432247 C16.1360528,4.72237182 20.8247351,3.86137616 21.023926,3.82610428 L21.1167309,4.35246927 C21.0719129,4.36015673 16.5579753,5.19130695 15.7286168,8.09128864 C14.9255153,10.9012818 13.2396359,15.0868783 7.89996147,18.9758293 C3.35795608,22.2818898 2.67980158,34.2141862 2.67346369,34.3340202" id="path-17"></path>
        <path d="M14.0299777,10.6425281 C12.6316115,15.413947 -1.53289987,12.7242426 4.41293339,24.6712004 C10.357878,36.6186072 -3.10633949,28.6671403 0.915462828,39.0927761 C4.93726515,49.5179629 1.26516545,60.6683371 5.63667039,57.8326971 C10.007731,54.996159 8.09303137,41.8673477 12.6387211,40.307858 C17.1852995,38.7474702 17.9273623,36.9284396 13.4261074,32.687328 C8.92440825,28.4462163 25.2213502,24.2356389 21.1991036,15.6721407 C17.1777456,7.10909157 21.8767357,1.89627366 18.05178,0.570729819 C14.7413803,-0.576548134 15.4292325,5.87155809 14.0299777,10.6425281 Z" id="path-19"></path>
        <polygon id="path-21" points="0.025102649 0.203287417 13.4328532 0.203287417 13.4328532 4.99116998 0.025102649 4.99116998"></polygon>
        <polygon id="path-23" points="22 115.216382 83 115.216382 83 76.2163819 22 76.2163819"></polygon>
    </defs>
    <g id="Page-1" stroke="none" stroke-width="1" fill="none" fill-rule="evenodd">
        <g id="01_LANDING_PAGE_desktop" transform="translate(-638.000000, -172.000000)">
            <g id="INTRO">
                <g id="Group-13" transform="translate(652.000000, 174.000000)">
                    <g id="BRANDS" transform="translate(0.000000, 241.000000)">
                        <g id="Rectangle-3">
                            <use fill="black" fill-opacity="1" filter="url(#filter-2)" xlink:href="#path-1"></use>
                            <use fill="#FFFFFF" fill-rule="evenodd" xlink:href="#path-1"></use>
                        </g>
                        <path d="M64.351,145.3 L65.792,145.3 L68.135,148.941 L70.478,145.3 L71.919,145.3 L71.919,153 L70.566,153 L70.566,147.478 L68.135,151.108 L68.091,151.108 L65.682,147.5 L65.682,153 L64.351,153 L64.351,145.3 Z M79.563,149.942 L78.232,146.862 L76.912,149.942 L79.563,149.942 Z M77.627,145.245 L78.881,145.245 L82.269,153 L80.839,153 L80.058,151.141 L76.417,151.141 L75.625,153 L74.239,153 L77.627,145.245 Z M87.922,149.117 C88.4060024,149.117 88.7909986,149.001501 89.077,148.7705 C89.3630014,148.539499 89.506,148.226002 89.506,147.83 L89.506,147.808 C89.506,147.389998 89.3666681,147.072834 89.088,146.8565 C88.8093319,146.640166 88.4170025,146.532 87.911,146.532 L85.942,146.532 L85.942,149.117 L87.922,149.117 Z M84.589,145.3 L88.021,145.3 C88.5050024,145.3 88.9339981,145.367833 89.308,145.5035 C89.6820019,145.639167 89.9936654,145.827999 90.243,146.07 C90.4483344,146.282668 90.6059994,146.528332 90.716,146.807 C90.8260006,147.085668 90.881,147.393665 90.881,147.731 L90.881,147.753 C90.881,148.068335 90.8351671,148.352499 90.7435,148.6055 C90.6518329,148.858501 90.5253341,149.082166 90.364,149.2765 C90.2026659,149.470834 90.0101678,149.635833 89.7865,149.7715 C89.5628322,149.907167 89.3153347,150.011666 89.044,150.085 L91.123,153 L89.528,153 L87.636,150.316 L85.942,150.316 L85.942,153 L84.589,153 L84.589,145.3 Z M97.238,151.889 C97.494668,151.889 97.7329989,151.856 97.953,151.79 C98.1730011,151.724 98.3746658,151.632334 98.558,151.515 L97.238,150.393 L98.107,149.403 L99.438,150.613 C99.7020013,150.209665 99.834,149.729336 99.834,149.172 L99.834,149.15 C99.834,148.775998 99.769834,148.422168 99.6415,148.0885 C99.513166,147.754832 99.3335012,147.465168 99.1025,147.2195 C98.8714988,146.973832 98.5946683,146.777667 98.272,146.631 C97.9493317,146.484333 97.5973352,146.411 97.216,146.411 C96.8346648,146.411 96.4845016,146.482499 96.1655,146.6255 C95.8464984,146.768501 95.5733345,146.962832 95.346,147.2085 C95.1186655,147.454168 94.940834,147.741998 94.8125,148.072 C94.684166,148.402002 94.62,148.753998 94.62,149.128 L94.62,149.15 C94.62,149.524002 94.684166,149.877832 94.8125,150.2115 C94.940834,150.545168 95.1204988,150.834832 95.3515,151.0805 C95.5825012,151.326168 95.8593317,151.522333 96.182,151.669 C96.5046683,151.815667 96.8566648,151.889 97.238,151.889 Z M99.559,152.406 C99.2289984,152.640668 98.8696686,152.820333 98.481,152.945 C98.0923314,153.069667 97.6706689,153.132 97.216,153.132 C96.621997,153.132 96.0793358,153.027501 95.588,152.8185 C95.0966642,152.609499 94.6750018,152.325335 94.323,151.966 C93.9709982,151.606665 93.696001,151.186836 93.498,150.7065 C93.299999,150.226164 93.201,149.714669 93.201,149.172 L93.201,149.15 C93.201,148.607331 93.299999,148.095836 93.498,147.6155 C93.696001,147.135164 93.9746649,146.713502 94.334,146.3505 C94.6933351,145.987498 95.1186642,145.699668 95.61,145.487 C96.1013358,145.274332 96.643997,145.168 97.238,145.168 C97.832003,145.168 98.3746642,145.272499 98.866,145.4815 C99.3573358,145.690501 99.7789982,145.974665 100.131,146.334 C100.483002,146.693335 100.757999,147.113164 100.956,147.5935 C101.154001,148.073836 101.253,148.585331 101.253,149.128 L101.253,149.15 C101.253,149.590002 101.187001,150.009831 101.055,150.4095 C100.922999,150.809169 100.728668,151.177665 100.472,151.515 L101.352,152.263 L100.483,153.231 L99.559,152.406 Z M107.049,153.121 C106.550331,153.121 106.099335,153.049501 105.696,152.9065 C105.292665,152.763499 104.948001,152.549001 104.662,152.263 C104.375999,151.976999 104.156001,151.623169 104.002,151.2015 C103.847999,150.779831 103.771,150.290336 103.771,149.733 L103.771,145.3 L105.124,145.3 L105.124,149.678 C105.124,150.39667 105.296332,150.942998 105.641,151.317 C105.985668,151.691002 106.46233,151.878 107.071,151.878 C107.672336,151.878 108.145332,151.698335 108.49,151.339 C108.834668,150.979665 109.007,150.444337 109.007,149.733 L109.007,145.3 L110.36,145.3 L110.36,149.667 C110.36,150.239003 110.281167,150.741331 110.1235,151.174 C109.965833,151.606669 109.744001,151.967832 109.458,152.2575 C109.171999,152.547168 108.825502,152.763499 108.4185,152.9065 C108.011498,153.049501 107.555003,153.121 107.049,153.121 Z M113.219,145.3 L118.928,145.3 L118.928,146.51 L114.572,146.51 L114.572,148.512 L118.433,148.512 L118.433,149.722 L114.572,149.722 L114.572,151.79 L118.983,151.79 L118.983,153 L113.219,153 L113.219,145.3 Z M124.284,153.11 C123.689997,153.11 123.121669,153.009168 122.579,152.8075 C122.036331,152.605832 121.534002,152.296002 121.072,151.878 L121.886,150.91 C122.260002,151.232668 122.637665,151.480166 123.019,151.6525 C123.400335,151.824834 123.832998,151.911 124.317,151.911 C124.735002,151.911 125.066832,151.823001 125.3125,151.647 C125.558168,151.470999 125.681,151.236335 125.681,150.943 L125.681,150.921 C125.681,150.781666 125.657167,150.658834 125.6095,150.5525 C125.561833,150.446166 125.473834,150.345334 125.3455,150.25 C125.217166,150.154666 125.041168,150.066667 124.8175,149.986 C124.593832,149.905333 124.302335,149.824667 123.943,149.744 C123.532331,149.648666 123.167502,149.540501 122.8485,149.4195 C122.529498,149.298499 122.261834,149.151834 122.0455,148.9795 C121.829166,148.807166 121.664167,148.596335 121.5505,148.347 C121.436833,148.097665 121.38,147.797002 121.38,147.445 L121.38,147.423 C121.38,147.092998 121.445999,146.790501 121.578,146.5155 C121.710001,146.240499 121.891499,146.005834 122.1225,145.8115 C122.353501,145.617166 122.630332,145.465001 122.953,145.355 C123.275668,145.244999 123.627665,145.19 124.009,145.19 C124.573669,145.19 125.081498,145.272499 125.5325,145.4375 C125.983502,145.602501 126.406998,145.842665 126.803,146.158 L126.077,147.181 C125.724998,146.924332 125.376668,146.728167 125.032,146.5925 C124.687332,146.456833 124.339002,146.389 123.987,146.389 C123.590998,146.389 123.283001,146.476999 123.063,146.653 C122.842999,146.829001 122.733,147.045332 122.733,147.302 L122.733,147.324 C122.733,147.470667 122.758666,147.600833 122.81,147.7145 C122.861334,147.828167 122.954833,147.930833 123.0905,148.0225 C123.226167,148.114167 123.413165,148.200333 123.6515,148.281 C123.889835,148.361667 124.192331,148.446 124.559,148.534 C124.962335,148.636667 125.319832,148.750333 125.6315,148.875 C125.943168,148.999667 126.201666,149.151832 126.407,149.3315 C126.612334,149.511168 126.768166,149.720165 126.8745,149.9585 C126.980834,150.196835 127.034,150.473665 127.034,150.789 L127.034,150.811 C127.034,151.170335 126.966167,151.492999 126.8305,151.779 C126.694833,152.065001 126.506001,152.306999 126.264,152.505 C126.021999,152.703001 125.732335,152.853333 125.395,152.956 C125.057665,153.058667 124.687335,153.11 124.284,153.11 Z M41.161,165.768 C41.5643353,165.768 41.9309983,165.703834 42.261,165.5755 C42.5910016,165.447166 42.8714988,165.267501 43.1025,165.0365 C43.3335012,164.805499 43.513166,164.530502 43.6415,164.2115 C43.769834,163.892498 43.834,163.546002 43.834,163.172 L43.834,163.15 C43.834,162.775998 43.769834,162.427668 43.6415,162.105 C43.513166,161.782332 43.3335012,161.505501 43.1025,161.2745 C42.8714988,161.043499 42.5910016,160.862001 42.261,160.73 C41.9309983,160.597999 41.5643353,160.532 41.161,160.532 L39.643,160.532 L39.643,165.768 L41.161,165.768 Z M38.29,159.3 L41.161,159.3 C41.7623363,159.3 42.3141642,159.397166 42.8165,159.5915 C43.3188358,159.785834 43.7514982,160.055332 44.1145,160.4 C44.4775018,160.744668 44.757999,161.149831 44.956,161.6155 C45.154001,162.081169 45.253,162.585331 45.253,163.128 L45.253,163.15 C45.253,163.692669 45.154001,164.198664 44.956,164.668 C44.757999,165.137336 44.4775018,165.544332 44.1145,165.889 C43.7514982,166.233668 43.3188358,166.504999 42.8165,166.703 C42.3141642,166.901001 41.7623363,167 41.161,167 L38.29,167 L38.29,159.3 Z M47.892,159.3 L53.601,159.3 L53.601,160.51 L49.245,160.51 L49.245,162.512 L53.106,162.512 L53.106,163.722 L49.245,163.722 L49.245,165.79 L53.656,165.79 L53.656,167 L47.892,167 L47.892,159.3 Z M64.137,167.132 C63.5723305,167.132 63.0516691,167.029334 62.575,166.824 C62.098331,166.618666 61.6858351,166.338168 61.3375,165.9825 C60.9891649,165.626832 60.716001,165.207002 60.518,164.723 C60.319999,164.238998 60.221,163.722003 60.221,163.172 L60.221,163.15 C60.221,162.599997 60.3181657,162.084836 60.5125,161.6045 C60.7068343,161.124164 60.9799982,160.702502 61.332,160.3395 C61.6840018,159.976498 62.1019976,159.690501 62.586,159.4815 C63.0700024,159.272499 63.6053304,159.168 64.192,159.168 C64.5440018,159.168 64.8648319,159.197333 65.1545,159.256 C65.4441681,159.314667 65.7099988,159.397166 65.952,159.5035 C66.1940012,159.609834 66.4176656,159.736333 66.623,159.883 C66.8283344,160.029667 67.0226658,160.190999 67.206,160.367 L66.337,161.368 C66.0289985,161.081999 65.7026684,160.851001 65.358,160.675 C65.0133316,160.498999 64.6210022,160.411 64.181,160.411 C63.8143315,160.411 63.4751682,160.482499 63.1635,160.6255 C62.8518318,160.768501 62.5823345,160.962832 62.355,161.2085 C62.1276655,161.454168 61.9516673,161.741998 61.827,162.072 C61.7023327,162.402002 61.64,162.753998 61.64,163.128 L61.64,163.15 C61.64,163.524002 61.7023327,163.877832 61.827,164.2115 C61.9516673,164.545168 62.1276655,164.836665 62.355,165.086 C62.5823345,165.335335 62.8518318,165.531499 63.1635,165.6745 C63.4751682,165.817501 63.8143315,165.889 64.181,165.889 C64.6503357,165.889 65.053665,165.799168 65.391,165.6195 C65.728335,165.439832 66.0619983,165.196002 66.392,164.888 L67.261,165.768 C67.062999,165.980668 66.8558344,166.169499 66.6395,166.3345 C66.4231656,166.499501 66.1903346,166.642499 65.941,166.7635 C65.6916654,166.884501 65.4185015,166.976166 65.1215,167.0385 C64.8244985,167.100834 64.4963351,167.132 64.137,167.132 Z M73.376,165.889 C73.7573352,165.889 74.1074984,165.817501 74.4265,165.6745 C74.7455016,165.531499 75.0186655,165.337168 75.246,165.0915 C75.4733345,164.845832 75.651166,164.558002 75.7795,164.228 C75.907834,163.897998 75.972,163.546002 75.972,163.172 L75.972,163.15 C75.972,162.775998 75.907834,162.422168 75.7795,162.0885 C75.651166,161.754832 75.4715012,161.465168 75.2405,161.2195 C75.0094988,160.973832 74.7326683,160.777667 74.41,160.631 C74.0873317,160.484333 73.7353352,160.411 73.354,160.411 C72.9726648,160.411 72.6225016,160.482499 72.3035,160.6255 C71.9844984,160.768501 71.7113345,160.962832 71.484,161.2085 C71.2566655,161.454168 71.078834,161.741998 70.9505,162.072 C70.822166,162.402002 70.758,162.753998 70.758,163.128 L70.758,163.15 C70.758,163.524002 70.822166,163.877832 70.9505,164.2115 C71.078834,164.545168 71.2584988,164.834832 71.4895,165.0805 C71.7205012,165.326168 71.9973317,165.522333 72.32,165.669 C72.6426683,165.815667 72.9946648,165.889 73.376,165.889 Z M73.354,167.132 C72.759997,167.132 72.2173358,167.027501 71.726,166.8185 C71.2346642,166.609499 70.8130018,166.325335 70.461,165.966 C70.1089982,165.606665 69.834001,165.186836 69.636,164.7065 C69.437999,164.226164 69.339,163.714669 69.339,163.172 L69.339,163.15 C69.339,162.607331 69.437999,162.095836 69.636,161.6155 C69.834001,161.135164 70.1126649,160.713502 70.472,160.3505 C70.8313351,159.987498 71.2566642,159.699668 71.748,159.487 C72.2393358,159.274332 72.781997,159.168 73.376,159.168 C73.970003,159.168 74.5126642,159.272499 75.004,159.4815 C75.4953358,159.690501 75.9169982,159.974665 76.269,160.334 C76.6210018,160.693335 76.895999,161.113164 77.094,161.5935 C77.292001,162.073836 77.391,162.585331 77.391,163.128 L77.391,163.15 C77.391,163.692669 77.292001,164.204164 77.094,164.6845 C76.895999,165.164836 76.6173351,165.586498 76.258,165.9495 C75.8986649,166.312502 75.4733358,166.600332 74.982,166.813 C74.4906642,167.025668 73.948003,167.132 73.354,167.132 Z M82.725,167.11 C82.130997,167.11 81.5626694,167.009168 81.02,166.8075 C80.4773306,166.605832 79.9750023,166.296002 79.513,165.878 L80.327,164.91 C80.7010019,165.232668 81.0786648,165.480166 81.46,165.6525 C81.8413352,165.824834 82.2739976,165.911 82.758,165.911 C83.1760021,165.911 83.5078321,165.823001 83.7535,165.647 C83.9991679,165.470999 84.122,165.236335 84.122,164.943 L84.122,164.921 C84.122,164.781666 84.0981669,164.658834 84.0505,164.5525 C84.0028331,164.446166 83.914834,164.345334 83.7865,164.25 C83.658166,164.154666 83.4821678,164.066667 83.2585,163.986 C83.0348322,163.905333 82.7433351,163.824667 82.384,163.744 C81.9733313,163.648666 81.6085016,163.540501 81.2895,163.4195 C80.9704984,163.298499 80.7028344,163.151834 80.4865,162.9795 C80.2701656,162.807166 80.1051672,162.596335 79.9915,162.347 C79.8778328,162.097665 79.821,161.797002 79.821,161.445 L79.821,161.423 C79.821,161.092998 79.8869993,160.790501 80.019,160.5155 C80.1510007,160.240499 80.3324988,160.005834 80.5635,159.8115 C80.7945012,159.617166 81.0713317,159.465001 81.394,159.355 C81.7166683,159.244999 82.0686648,159.19 82.45,159.19 C83.0146695,159.19 83.5224977,159.272499 83.9735,159.4375 C84.4245023,159.602501 84.847998,159.842665 85.244,160.158 L84.518,161.181 C84.1659982,160.924332 83.8176684,160.728167 83.473,160.5925 C83.1283316,160.456833 82.7800018,160.389 82.428,160.389 C82.031998,160.389 81.7240011,160.476999 81.504,160.653 C81.2839989,160.829001 81.174,161.045332 81.174,161.302 L81.174,161.324 C81.174,161.470667 81.1996664,161.600833 81.251,161.7145 C81.3023336,161.828167 81.3958327,161.930833 81.5315,162.0225 C81.6671673,162.114167 81.8541655,162.200333 82.0925,162.281 C82.3308345,162.361667 82.6333315,162.446 83,162.534 C83.4033353,162.636667 83.7608318,162.750333 84.0725,162.875 C84.3841682,162.999667 84.6426656,163.151832 84.848,163.3315 C85.0533344,163.511168 85.2091661,163.720165 85.3155,163.9585 C85.4218339,164.196835 85.475,164.473665 85.475,164.789 L85.475,164.811 C85.475,165.170335 85.4071673,165.492999 85.2715,165.779 C85.1358327,166.065001 84.9470012,166.306999 84.705,166.505 C84.4629988,166.703001 84.173335,166.853333 83.836,166.956 C83.498665,167.058667 83.1283354,167.11 82.725,167.11 Z M88.07,159.3 L89.511,159.3 L91.854,162.941 L94.197,159.3 L95.638,159.3 L95.638,167 L94.285,167 L94.285,161.478 L91.854,165.108 L91.81,165.108 L89.401,161.5 L89.401,167 L88.07,167 L88.07,159.3 Z M101.841,156.858 L103.051,157.397 L101.709,158.662 L100.675,158.662 L101.841,156.858 Z M98.618,159.3 L104.327,159.3 L104.327,160.51 L99.971,160.51 L99.971,162.512 L103.832,162.512 L103.832,163.722 L99.971,163.722 L99.971,165.79 L104.382,165.79 L104.382,167 L98.618,167 L98.618,159.3 Z M108.88,160.554 L106.438,160.554 L106.438,159.3 L112.686,159.3 L112.686,160.554 L110.244,160.554 L110.244,167 L108.88,167 L108.88,160.554 Z M115.193,159.3 L116.546,159.3 L116.546,167 L115.193,167 L115.193,159.3 Z M123.299,165.889 C123.555668,165.889 123.793999,165.856 124.014,165.79 C124.234001,165.724 124.435666,165.632334 124.619,165.515 L123.299,164.393 L124.168,163.403 L125.499,164.613 C125.763001,164.209665 125.895,163.729336 125.895,163.172 L125.895,163.15 C125.895,162.775998 125.830834,162.422168 125.7025,162.0885 C125.574166,161.754832 125.394501,161.465168 125.1635,161.2195 C124.932499,160.973832 124.655668,160.777667 124.333,160.631 C124.010332,160.484333 123.658335,160.411 123.277,160.411 C122.895665,160.411 122.545502,160.482499 122.2265,160.6255 C121.907498,160.768501 121.634334,160.962832 121.407,161.2085 C121.179666,161.454168 121.001834,161.741998 120.8735,162.072 C120.745166,162.402002 120.681,162.753998 120.681,163.128 L120.681,163.15 C120.681,163.524002 120.745166,163.877832 120.8735,164.2115 C121.001834,164.545168 121.181499,164.834832 121.4125,165.0805 C121.643501,165.326168 121.920332,165.522333 122.243,165.669 C122.565668,165.815667 122.917665,165.889 123.299,165.889 Z M125.62,166.406 C125.289998,166.640668 124.930669,166.820333 124.542,166.945 C124.153331,167.069667 123.731669,167.132 123.277,167.132 C122.682997,167.132 122.140336,167.027501 121.649,166.8185 C121.157664,166.609499 120.736002,166.325335 120.384,165.966 C120.031998,165.606665 119.757001,165.186836 119.559,164.7065 C119.360999,164.226164 119.262,163.714669 119.262,163.172 L119.262,163.15 C119.262,162.607331 119.360999,162.095836 119.559,161.6155 C119.757001,161.135164 120.035665,160.713502 120.395,160.3505 C120.754335,159.987498 121.179664,159.699668 121.671,159.487 C122.162336,159.274332 122.704997,159.168 123.299,159.168 C123.893003,159.168 124.435664,159.272499 124.927,159.4815 C125.418336,159.690501 125.839998,159.974665 126.192,160.334 C126.544002,160.693335 126.818999,161.113164 127.017,161.5935 C127.215001,162.073836 127.314,162.585331 127.314,163.128 L127.314,163.15 C127.314,163.590002 127.248001,164.009831 127.116,164.4095 C126.983999,164.809169 126.789668,165.177665 126.533,165.515 L127.413,166.263 L126.544,167.231 L125.62,166.406 Z M133.11,167.121 C132.611331,167.121 132.160335,167.049501 131.757,166.9065 C131.353665,166.763499 131.009001,166.549001 130.723,166.263 C130.436999,165.976999 130.217001,165.623169 130.063,165.2015 C129.908999,164.779831 129.832,164.290336 129.832,163.733 L129.832,159.3 L131.185,159.3 L131.185,163.678 C131.185,164.39667 131.357332,164.942998 131.702,165.317 C132.046668,165.691002 132.52333,165.878 133.132,165.878 C133.733336,165.878 134.206332,165.698335 134.551,165.339 C134.895668,164.979665 135.068,164.444337 135.068,163.733 L135.068,159.3 L136.421,159.3 L136.421,163.667 C136.421,164.239003 136.342167,164.741331 136.1845,165.174 C136.026833,165.606669 135.805001,165.967832 135.519,166.2575 C135.232999,166.547168 134.886502,166.763499 134.4795,166.9065 C134.072498,167.049501 133.616003,167.121 133.11,167.121 Z M139.28,159.3 L144.989,159.3 L144.989,160.51 L140.633,160.51 L140.633,162.512 L144.494,162.512 L144.494,163.722 L140.633,163.722 L140.633,165.79 L145.044,165.79 L145.044,167 L139.28,167 L139.28,159.3 Z M150.345,167.11 C149.750997,167.11 149.182669,167.009168 148.64,166.8075 C148.097331,166.605832 147.595002,166.296002 147.133,165.878 L147.947,164.91 C148.321002,165.232668 148.698665,165.480166 149.08,165.6525 C149.461335,165.824834 149.893998,165.911 150.378,165.911 C150.796002,165.911 151.127832,165.823001 151.3735,165.647 C151.619168,165.470999 151.742,165.236335 151.742,164.943 L151.742,164.921 C151.742,164.781666 151.718167,164.658834 151.6705,164.5525 C151.622833,164.446166 151.534834,164.345334 151.4065,164.25 C151.278166,164.154666 151.102168,164.066667 150.8785,163.986 C150.654832,163.905333 150.363335,163.824667 150.004,163.744 C149.593331,163.648666 149.228502,163.540501 148.9095,163.4195 C148.590498,163.298499 148.322834,163.151834 148.1065,162.9795 C147.890166,162.807166 147.725167,162.596335 147.6115,162.347 C147.497833,162.097665 147.441,161.797002 147.441,161.445 L147.441,161.423 C147.441,161.092998 147.506999,160.790501 147.639,160.5155 C147.771001,160.240499 147.952499,160.005834 148.1835,159.8115 C148.414501,159.617166 148.691332,159.465001 149.014,159.355 C149.336668,159.244999 149.688665,159.19 150.07,159.19 C150.634669,159.19 151.142498,159.272499 151.5935,159.4375 C152.044502,159.602501 152.467998,159.842665 152.864,160.158 L152.138,161.181 C151.785998,160.924332 151.437668,160.728167 151.093,160.5925 C150.748332,160.456833 150.400002,160.389 150.048,160.389 C149.651998,160.389 149.344001,160.476999 149.124,160.653 C148.903999,160.829001 148.794,161.045332 148.794,161.302 L148.794,161.324 C148.794,161.470667 148.819666,161.600833 148.871,161.7145 C148.922334,161.828167 149.015833,161.930833 149.1515,162.0225 C149.287167,162.114167 149.474165,162.200333 149.7125,162.281 C149.950835,162.361667 150.253332,162.446 150.62,162.534 C151.023335,162.636667 151.380832,162.750333 151.6925,162.875 C152.004168,162.999667 152.262666,163.151832 152.468,163.3315 C152.673334,163.511168 152.829166,163.720165 152.9355,163.9585 C153.041834,164.196835 153.095,164.473665 153.095,164.789 L153.095,164.811 C153.095,165.170335 153.027167,165.492999 152.8915,165.779 C152.755833,166.065001 152.567001,166.306999 152.325,166.505 C152.082999,166.703001 151.793335,166.853333 151.456,166.956 C151.118665,167.058667 150.748335,167.11 150.345,167.11 Z" id="MARQUESDECOSMÉTIQUES" fill="#003362" fill-rule="nonzero"></path>
                        <g id="_illu_BRAND" transform="translate(14.000000, 51.000000)">
                            <path d="M67.046875,53.765625 C48.8602141,54.7138162 22.0056495,48.0274699 5.1640625,61.0664062 C-1.77929687,66.4420292 -1.77929687,78.6230469 8.01367188,78.6230469 C44.9047409,78.6230469 49.8965117,74.8375127 80.6333408,78.6230469 C104.804803,81.5999935 117.124841,83.039703 138.542969,81.5253906 C162.286152,79.8466912 167.419266,66.603983 139.583984,57.8378906 C115.634438,50.2955226 100.403614,48.8198901 75.5566406,53.1855469 L67.046875,53.765625 Z" id="Path-5" fill="#F6FBFF"></path>
                            <g id="Group-7" transform="translate(15.000000, 13.000000)">
                                <path d="M10.0474138,6.62931034 L25.6767241,6.62931034" id="Line-2" stroke="#F6A69B" stroke-linecap="round" stroke-linejoin="round"></path>
                                <path d="M14.1015306,2.55172414 L16.51981,2.55172414 C17.2599402,2.55172414 17.862069,3.06111349 17.862069,3.68635458 L17.862069,10.2068966 L12.7586207,10.2068966 L12.7586207,3.68635458 C12.7586207,3.06051631 13.3614004,2.55172414 14.1015306,2.55172414 Z" id="Path" fill="#F6A69B" fill-rule="nonzero"></path>
                                <path d="M10.2068966,13.1407455 C10.2068966,11.5229028 10.9269122,10.2068966 11.8120166,10.2068966 L18.808673,10.2068966 C19.6937774,10.2068966 20.4137931,11.5229028 20.4137931,13.1407455 L20.4137931,16.5862069 L10.2068966,16.5862069 L10.2068966,13.1407455 Z" id="Path" fill="#E99286" fill-rule="nonzero"></path>
                                <path d="M1.72958202,19.1108309 C3.15238313,17.5064035 5.24395265,16.5862069 7.46823786,16.5862069 L23.1568629,16.5862069 C25.3811481,16.5862069 27.4727176,17.5064035 28.8955187,19.1108309 C30.3183198,20.7152584 30.9033068,22.8131952 30.4918141,24.9299258 L27.7062676,53.7455823 C27.5794833,54.3929218 26.9789263,54.862069 26.2782765,54.862069 L4.34756571,54.862069 C3.64691587,54.862069 3.04635886,54.3929218 2.92921318,53.8089242 L0.124389524,24.866584 C-0.278206099,22.8131952 0.306780912,20.7152584 1.72958202,19.1108309 Z" id="Path" fill="#F6A69B" fill-rule="nonzero"></path>
                                <path d="M28.7068966,0 C33.279934,0 37,2.86187286 37,6.37931034 C37,9.89674783 33.279934,12.7586207 28.7068966,12.7586207 C24.1338591,12.7586207 20.4137931,9.89674783 20.4137931,6.37931034 C20.4137931,2.86187286 24.1331288,0 28.7068966,0 Z" id="Path" fill="#E99286" fill-rule="nonzero"></path>
                            </g>
                            <path d="M89.0760349,64.9221909 C88.8569921,65.0143515 88.7146341,65.2292278 88.7146341,65.4666233 L88.7146341,66.8189744 L82.6155622,66.8189744 L82.6155622,65.460175 C82.6155622,65.2239699 82.4743947,65.0095897 82.2571376,64.9168338 C79.2075024,63.6158705 77.0933625,60.6749631 76.8701532,57.4240427 C76.8636057,57.3283107 76.8642009,57.2338683 76.8606296,57.1388307 L85.0745358,57.1388307 L85.0745358,61.2914177 C85.0745358,61.6174026 85.3391133,61.8819801 85.6650982,61.8819801 C85.9910831,61.8819801 86.2555614,61.6174026 86.2555614,61.2914177 L86.2555614,57.1388307 L94.4688723,57.1388307 C94.3390141,60.5533388 92.2549331,63.5851172 89.0760349,64.9221909 L89.0760349,64.9221909 Z M81.3063649,49.1464474 C82.404059,48.5204691 83.1081109,47.3665263 83.2043389,46.0885783 L85.0745358,46.0885783 L85.0745358,55.957706 L76.8931686,55.957706 C77.1612182,53.121955 78.7669368,50.5926457 81.3063649,49.1464474 L81.3063649,49.1464474 Z M82.3651709,34.1413218 C82.3651709,33.6115716 82.7956178,33.1810256 83.325368,33.1810256 L88.0036379,33.1810256 C88.5332889,33.1810256 88.963835,33.6115716 88.963835,34.1413218 L88.963835,44.9074535 L82.3651709,44.9074535 L82.3651709,34.1413218 Z M89.9985344,49.131666 C92.5160384,50.5548489 94.1600498,53.1189789 94.4358374,55.957706 L86.2555614,55.957706 L86.2555614,46.0885783 L88.1258574,46.0885783 C88.2215894,47.3706929 88.9154234,48.5192787 89.9985344,49.131666 L89.9985344,49.131666 Z M90.5801684,48.103514 C89.8656008,47.6995547 89.3966627,46.9442142 89.3069822,46.0885783 L89.5555878,46.0885783 C89.8815727,46.0885783 90.1461502,45.8240008 90.1461502,45.4980159 L90.1461502,34.1413218 C90.1461502,32.9601971 89.1853579,32 88.0048283,32 L83.3265585,32 C82.1455329,32 81.1852366,32.9607923 81.1852366,34.1413218 L81.1852366,45.4980159 C81.1852366,45.8240008 81.4498141,46.0885783 81.775799,46.0885783 L82.0244046,46.0885783 C81.9328392,46.9419325 81.4532863,47.703126 80.7222508,48.1199819 C77.3543687,50.0387888 75.4274271,53.6345429 75.693195,57.5048941 C75.9377333,61.0647362 78.1764736,64.2956174 81.4356279,65.8417142 L81.4356279,67.4095368 C81.4356279,67.7354225 81.7001062,68 82.0261903,68 L89.306387,68 C89.6322726,68 89.8968501,67.7354225 89.8968501,67.4095368 L89.8968501,65.8504442 C93.4130425,64.2076233 95.6635881,60.6973832 95.6635881,56.8016358 C95.6623976,53.2087586 93.7148215,49.8756972 90.5801684,48.103514 L90.5801684,48.103514 Z" id="Fill-1" fill="#003362"></path>
                            <g id="Group-9-Copy" transform="translate(41.000000, 0.000000)">
                                <g id="CREME" transform="translate(15.000000, 0.000000)">
                                    <polygon id="Rectangle-7" fill="#7AC581" points="5.68163265 60.387172 22.7265306 60.387172 22.7265306 68 5.68163265 68"></polygon>
                                    <polygon id="Rectangle-8" fill="#8DD393" points="0 5.1941691 28.4081633 5.1941691 22.7265306 61.3387755 5.68163265 61.3387755"></polygon>
                                    <path d="M17.044898,67.5241983 C17.044898,65.94753 15.7730212,64.6693878 14.2040816,64.6693878 C12.6351421,64.6693878 11.3632653,65.94753 11.3632653,67.5241983 L17.044898,67.5241983 Z" id="Oval-3" fill="#5CA562"></path>
                                    <rect id="Rectangle-6" fill="#7AC581" x="0" y="0" width="28.3095238" height="5.55102041"></rect>
                                </g>
                                <g id="CREME-Copy" transform="translate(0.000000, 19.000000)" stroke="#0083FF">
                                    <polygon id="Rectangle-7" points="4.57460938 42.3387755 18.2984375 42.3387755 18.2984375 49 4.57460938 49"></polygon>
                                    <polygon id="Rectangle-8" stroke-linejoin="round" points="0 4 22.8730469 4 18.2984375 42.3387755 4.57460938 42.3387755"></polygon>
                                    <path d="M14.1050456,49 C14.1050456,47.1605536 12.9103075,45.6693878 11.4365234,45.6693878 C9.96273936,45.6693878 8.7680013,47.1605536 8.7680013,49 L14.1050456,49 Z" id="Oval-3"></path>
                                    <rect id="Rectangle-6" stroke-linejoin="round" x="0" y="0" width="23" height="4"></rect>
                                </g>
                                <g id="SHAMPOO" transform="translate(57.000000, 4.000000)">
                                    <path d="M8.9735982,15.5662651 L21.6692589,15.5662651 C24.7895745,15.5662651 25.9210764,15.8911547 27.0618171,16.5012295 C28.2025578,17.1113043 29.0978179,18.0065644 29.7078927,19.1473051 C30.3179675,20.2880458 30.6428571,21.4195477 30.6428571,24.5398633 L30.6428571,60.1541722 C30.6428571,61.4914503 30.5036187,61.9763797 30.2421581,62.4652686 C29.9806974,62.9541574 29.5970146,63.3378403 29.1081257,63.5993009 C28.6192368,63.8607616 28.1343075,64 26.7970293,64 L3.8458278,64 C2.50854969,64 2.02362033,63.8607616 1.53473144,63.5993009 C1.04584256,63.3378403 0.662159695,62.9541574 0.400699056,62.4652686 C0.139238417,61.9763797 -7.15388826e-17,61.4914503 1.23124504e-16,60.1541722 L6.95113141e-16,24.5398633 C-4.03880753e-16,21.4195477 0.324889639,20.2880458 0.934964463,19.1473051 C1.54503929,18.0065644 2.4402993,17.1113043 3.58104004,16.5012295 C4.72178078,15.8911547 5.85328261,15.5662651 8.9735982,15.5662651 Z" id="Rectangle-9" fill="#003362"></path>
                                    <polygon id="Rectangle-10" stroke="#003362" points="9.75 10.2633391 22.2857143 10.2633391 22.2857143 22 9.75 22"></polygon>
                                    <ellipse id="Oval" stroke="#FFFFFF" cx="16" cy="40" rx="6" ry="10"></ellipse>
                                    <polygon id="Rectangle-11" fill="#003362" points="13.9285714 0.576592083 18.1071429 0.576592083 18.1071429 10.2633391 13.9285714 10.2633391"></polygon>
                                    <path d="M6.45216588,0.491454658 C18.043893,0.491454658 25.1557617,0.491454658 27.787772,0.491454658 C30.4197824,0.491454658 33.3664551,1.96221493 36.6277902,4.90373548" id="Path-3" stroke="#003362"></path>
                                    <path d="M36.8702972,14.4148021 C38.2362095,11.908595 38.9191657,10.2807522 38.9191657,9.53127364 C38.9191657,8.40705575 38.001856,7.49569707 36.8702972,7.49569707 C35.7387383,7.49569707 34.8214286,8.40705575 34.8214286,9.53127364 C34.8214286,10.2807522 35.5043848,11.908595 36.8702972,14.4148021 Z" id="Oval-6-Copy-2" fill="#003362" transform="translate(36.870297, 10.955250) rotate(-180.000000) translate(-36.870297, -10.955250) "></path>
                                </g>
                            </g>
                            <path d="M132.62369,68.2075071 L143.837639,68.2075071 C144.182195,68.2075071 144.460706,67.9283733 144.460706,67.5844407 L144.460706,50.857599 C144.460706,50.5136663 144.182195,50.2345325 143.837639,50.2345325 L142.998992,50.2345325 L142.998992,35.7993292 C142.998992,35.4553965 142.720481,35.1762627 142.375925,35.1762627 L141.790866,35.1762627 L141.790866,27.1991431 C141.790866,26.4657939 141.427618,25.7841592 140.818882,25.3748045 C140.211393,24.966073 139.442529,24.8856974 138.763386,25.1629619 L136.73032,25.9897711 C135.47858,26.4988164 134.66984,27.7013346 134.66984,29.0527657 L134.66984,35.1768858 L134.08478,35.1768858 C133.740225,35.1768858 133.461714,35.4560196 133.461714,35.7999522 L133.461714,50.2351556 L132.623066,50.2351556 C132.278511,50.2351556 132,50.5142893 132,50.858222 L132,67.5844407 C132.000623,67.9283733 132.279757,68.2075071 132.62369,68.2075071 Z M135.916596,29.0521427 C135.916596,28.2097569 136.420656,27.460831 137.200736,27.1436902 L139.233801,26.316881 C139.53225,26.195383 139.857491,26.2290286 140.124163,26.4084718 C140.392082,26.588538 140.545356,26.8763947 140.545356,27.1991431 L140.545356,35.1762627 L135.916596,35.1762627 L135.916596,29.0521427 Z M134.70847,36.4223956 L141.753482,36.4223956 L141.753482,50.2345325 L134.70847,50.2345325 L134.70847,36.4223956 Z M133.246756,51.4806654 L143.214573,51.4806654 L143.214573,66.9613742 L133.246756,66.9613742 L133.246756,51.4806654 Z" id="Shape" fill="#F6A69B" fill-rule="nonzero"></path>
                        </g>
                    </g>
                    <g id="CLIENTS" transform="translate(241.000000, 231.000000)">
                        <g id="Rectangle-3-Copy">
                            <use fill="black" fill-opacity="1" filter="url(#filter-4)" xlink:href="#path-3"></use>
                            <use fill="#FFFFFF" fill-rule="evenodd" xlink:href="#path-3"></use>
                        </g>
                        <path d="M51.1707705,120.140625 C46.8534984,120.79872 14.7302564,122.162857 23.5046147,141.476562 C24.1151082,142.820352 25.8444163,142.999606 27.1434245,143.253906 C37.427122,145.267093 47.9623482,145.595559 58.134407,148.255859 C79.9817419,153.969597 76.8391035,158.238531 92.6708529,159.585937 C108.52983,160.935661 98.6515483,158.245635 118.746727,154.732422 C129.837717,152.793399 141.119751,152.633454 152.235996,150.896484 C155.360097,150.408328 158.520491,149.623993 161.370359,148.072266 C167.247092,144.872438 168.932422,142.435481 169.819051,135.599609 C172.039008,118.483832 153.347192,122.629186 140.372526,121.517578 C127.628076,120.425694 114.793562,122.035732 102.034339,121.203125 C48.556948,117.713441 102.091101,115.76859 56.7223315,118.619141 L51.1707705,120.140625 Z" id="Path-4" fill="#0083FF" opacity="0.0367745536" transform="translate(95.996920, 138.593753) rotate(-2.000000) translate(-95.996920, -138.593753) "></path>
                        <path d="M74.244,178.132 C73.6793305,178.132 73.1586691,178.029334 72.682,177.824 C72.205331,177.618666 71.7928351,177.338168 71.4445,176.9825 C71.0961649,176.626832 70.823001,176.207002 70.625,175.723 C70.426999,175.238998 70.328,174.722003 70.328,174.172 L70.328,174.15 C70.328,173.599997 70.4251657,173.084836 70.6195,172.6045 C70.8138343,172.124164 71.0869982,171.702502 71.439,171.3395 C71.7910018,170.976498 72.2089976,170.690501 72.693,170.4815 C73.1770024,170.272499 73.7123304,170.168 74.299,170.168 C74.6510018,170.168 74.9718319,170.197333 75.2615,170.256 C75.5511681,170.314667 75.8169988,170.397166 76.059,170.5035 C76.3010012,170.609834 76.5246656,170.736333 76.73,170.883 C76.9353344,171.029667 77.1296658,171.190999 77.313,171.367 L76.444,172.368 C76.1359985,172.081999 75.8096684,171.851001 75.465,171.675 C75.1203316,171.498999 74.7280022,171.411 74.288,171.411 C73.9213315,171.411 73.5821682,171.482499 73.2705,171.6255 C72.9588318,171.768501 72.6893345,171.962832 72.462,172.2085 C72.2346655,172.454168 72.0586673,172.741998 71.934,173.072 C71.8093327,173.402002 71.747,173.753998 71.747,174.128 L71.747,174.15 C71.747,174.524002 71.8093327,174.877832 71.934,175.2115 C72.0586673,175.545168 72.2346655,175.836665 72.462,176.086 C72.6893345,176.335335 72.9588318,176.531499 73.2705,176.6745 C73.5821682,176.817501 73.9213315,176.889 74.288,176.889 C74.7573357,176.889 75.160665,176.799168 75.498,176.6195 C75.835335,176.439832 76.1689983,176.196002 76.499,175.888 L77.368,176.768 C77.169999,176.980668 76.9628344,177.169499 76.7465,177.3345 C76.5301656,177.499501 76.2973346,177.642499 76.048,177.7635 C75.7986654,177.884501 75.5255015,177.976166 75.2285,178.0385 C74.9314985,178.100834 74.6033351,178.132 74.244,178.132 Z M79.787,170.3 L81.14,170.3 L81.14,176.768 L85.188,176.768 L85.188,178 L79.787,178 L79.787,170.3 Z M87.673,170.3 L89.026,170.3 L89.026,178 L87.673,178 L87.673,170.3 Z M92.083,170.3 L97.792,170.3 L97.792,171.51 L93.436,171.51 L93.436,173.512 L97.297,173.512 L97.297,174.722 L93.436,174.722 L93.436,176.79 L97.847,176.79 L97.847,178 L92.083,178 L92.083,170.3 Z M100.453,170.3 L101.707,170.3 L105.832,175.624 L105.832,170.3 L107.163,170.3 L107.163,178 L106.03,178 L101.784,172.522 L101.784,178 L100.453,178 L100.453,170.3 Z M112.035,171.554 L109.593,171.554 L109.593,170.3 L115.841,170.3 L115.841,171.554 L113.399,171.554 L113.399,178 L112.035,178 L112.035,171.554 Z M120.966,178.11 C120.371997,178.11 119.803669,178.009168 119.261,177.8075 C118.718331,177.605832 118.216002,177.296002 117.754,176.878 L118.568,175.91 C118.942002,176.232668 119.319665,176.480166 119.701,176.6525 C120.082335,176.824834 120.514998,176.911 120.999,176.911 C121.417002,176.911 121.748832,176.823001 121.9945,176.647 C122.240168,176.470999 122.363,176.236335 122.363,175.943 L122.363,175.921 C122.363,175.781666 122.339167,175.658834 122.2915,175.5525 C122.243833,175.446166 122.155834,175.345334 122.0275,175.25 C121.899166,175.154666 121.723168,175.066667 121.4995,174.986 C121.275832,174.905333 120.984335,174.824667 120.625,174.744 C120.214331,174.648666 119.849502,174.540501 119.5305,174.4195 C119.211498,174.298499 118.943834,174.151834 118.7275,173.9795 C118.511166,173.807166 118.346167,173.596335 118.2325,173.347 C118.118833,173.097665 118.062,172.797002 118.062,172.445 L118.062,172.423 C118.062,172.092998 118.127999,171.790501 118.26,171.5155 C118.392001,171.240499 118.573499,171.005834 118.8045,170.8115 C119.035501,170.617166 119.312332,170.465001 119.635,170.355 C119.957668,170.244999 120.309665,170.19 120.691,170.19 C121.255669,170.19 121.763498,170.272499 122.2145,170.4375 C122.665502,170.602501 123.088998,170.842665 123.485,171.158 L122.759,172.181 C122.406998,171.924332 122.058668,171.728167 121.714,171.5925 C121.369332,171.456833 121.021002,171.389 120.669,171.389 C120.272998,171.389 119.965001,171.476999 119.745,171.653 C119.524999,171.829001 119.415,172.045332 119.415,172.302 L119.415,172.324 C119.415,172.470667 119.440666,172.600833 119.492,172.7145 C119.543334,172.828167 119.636833,172.930833 119.7725,173.0225 C119.908167,173.114167 120.095165,173.200333 120.3335,173.281 C120.571835,173.361667 120.874331,173.446 121.241,173.534 C121.644335,173.636667 122.001832,173.750333 122.3135,173.875 C122.625168,173.999667 122.883666,174.151832 123.089,174.3315 C123.294334,174.511168 123.450166,174.720165 123.5565,174.9585 C123.662834,175.196835 123.716,175.473665 123.716,175.789 L123.716,175.811 C123.716,176.170335 123.648167,176.492999 123.5125,176.779 C123.376833,177.065001 123.188001,177.306999 122.946,177.505 C122.703999,177.703001 122.414335,177.853333 122.077,177.956 C121.739665,178.058667 121.369335,178.11 120.966,178.11 Z" fill="#003362" fill-rule="nonzero"></path>
                        <g id="_illu_CLIENT" transform="translate(27.000000, 0.000000)">
                            <g id="_plant" transform="translate(77.000000, 40.000000)">
                                <g id="Group-16" transform="translate(24.646156, 43.890950)">
                                    <mask id="mask-6" fill="white">
                                        <use xlink:href="#path-5"></use>
                                    </mask>
                                    <use id="Clip-12" stroke="#003362" xlink:href="#path-5"></use>
                                    <mask id="mask-8" fill="white">
                                        <use xlink:href="#path-7"></use>
                                    </mask>
                                    <use id="Clip-15" stroke="#003362" stroke-width="0.2" fill="#003362" xlink:href="#path-7"></use>
                                </g>
                                <g id="Group-5">
                                    <mask id="mask-10" fill="white">
                                        <use xlink:href="#path-9"></use>
                                    </mask>
                                    <use id="Clip-8" fill="#8DD393" xlink:href="#path-9"></use>
                                    <path d="M27.8634302,78.821676 C24.1144581,76.186 19.7279665,57.8139888 19.4659218,46.8716536 C19.331486,41.2663128 17.6751955,38.9310168 16.2126816,36.8703687 C14.8158101,34.901095 13.608514,33.2001676 14.3111508,29.2952291 C15.6555084,21.8308939 12.1228939,18.609162 12.0871844,18.5787039 L12.495743,18.1118547 C12.6532849,18.2494413 16.3313631,21.5725251 14.9218883,29.4049832 C14.2644134,33.0536536 15.3477765,34.5797095 16.7183911,36.5116983 C18.1562235,38.5387374 19.9474749,41.0620335 20.0850615,46.8558994 C20.3665363,58.6001229 24.8517542,75.9460112 28.22,78.3154413 L27.8634302,78.821676" id="Fill-10" fill="#FFFFFF" mask="url(#mask-10)"></path>
                                </g>
                                <g id="Group-6" transform="translate(19.000000, 14.000000)">
                                    <mask id="mask-12" fill="white">
                                        <use xlink:href="#path-11"></use>
                                    </mask>
                                    <use id="Clip-18" fill="#F6A69B" xlink:href="#path-11"></use>
                                    <path d="M7.32275391,66.7695312 C6.64397207,53.2266517 7.68448696,31.3077657 16.9628906,20.1953125" id="Path-3" stroke="#FFFFFF" stroke-width="0.6" mask="url(#mask-12)"></path>
                                </g>
                                <polyline id="Clip-22" fill="#003362" points="36.9525475 74.5092291 31.367162 95.7033408 18.8824916 95.7033408 13.296581 74.5092291 36.9525475 74.5092291"></polyline>
                            </g>
                            <polyline id="Fill-43" fill="#0083FF" points="0.142280863 0 42.9174413 0.197612309 42.7446717 37.7315297 36.244356 31.1708011 0 31.0042421 0.142280863 0"></polyline>
                            <polygon id="Fill-133" fill="#003362" points="67.5245475 104.915978 68.4556201 104.77314 73.290581 136.927966 72.3595084 137.07133"></polygon>
                            <polyline id="Fill-134" fill="#003362" points="66.4553631 137.07133 61.6204022 104.915978 62.552 104.77314 67.3869609 136.927966 66.4553631 137.07133"></polyline>
                            <polyline id="Fill-135" fill="#003362" points="37.3752291 137.07133 36.4441564 136.927966 41.2791173 104.77314 42.2096648 104.915978 37.3752291 137.07133"></polyline>
                            <path d="M56.182581,105.24419 L69.0374749,105.24419 L73.2924805,73.9355469 C64.9713799,67.8738788 46.930589,70.1710431 43.4340069,73.9355469 C43.6052309,77.827703 44.4535632,87.7837577 45.9790039,103.803711" id="Fill-136" stroke="#0083FF"></path>
                            <path d="M54.5683017,135.042715 C54.5683017,135.042715 54.4144358,140.408067 55.1806145,140.729978 C55.9462682,141.052939 58.8460894,139.187642 60.1248045,137.342302 C61.4040447,135.498011 58.5226034,131.203944 58.0494525,128.835564 C57.8514749,127.842525 55.5986257,126.059151 54.5000335,126.569587 C53.4014413,127.081598 52.5995531,128.391296 52.5995531,128.391296 C52.5995531,128.391296 55.3953966,130.307006 54.5683017,135.042715" id="Fill-140" fill="#003362"></path>
                            <path d="M52.5995531,128.391296 C52.5995531,128.391296 53.5511061,130.221933 54.0400112,131.642436 C54.5294413,133.063464 54.6208156,136.997285 54.9290726,137.270358 C55.2368045,137.54343 57.6671508,136.317754 57.991162,134.846838 C58.3151732,133.375397 57.3300112,130.435665 56.3921117,128.889654 C55.4542123,127.344168 54.5000335,126.569587 54.5000335,126.569587 C54.5000335,126.569587 52.8432179,126.892022 52.5995531,128.391296" id="Fill-141" fill="#E4BBA7"></path>
                            <path d="M48.6515531,86.7036089 C48.6515531,86.7036089 49.9281676,88.8593073 48.6515531,90.4289497 C47.3744134,91.9985922 38.7904804,96.310514 38.8534972,98.8007263 C38.916514,101.291989 40.4887821,105.189575 41.0538324,106.178413 C41.6188827,107.167251 43.7036872,111.270693 44.7865251,113.673207 C45.8698883,116.074145 52.1327039,127.563676 53.3573296,130.153665 C54.5814302,132.743654 53.8278547,119.79476 53.8278547,119.79476 L47.5650391,101.429575 L62.198581,87.1741341 C62.198581,87.1741341 60.4267598,83.2319106 48.6515531,86.7036089" id="Fill-143" fill="#E4BBA7"></path>
                            <path d="M54.2180335,62.3833408 C54.2180335,62.3833408 50.1581788,63.2834302 48.5470503,64.2260559 C46.9348715,65.1676313 43.3565698,69.5000335 43.3565698,71.3621788 C43.3565698,73.2248492 59.0073073,74.9656872 59.0073073,74.9656872 L61.9743464,85.7966927 C61.9743464,85.7966927 69.8850503,83.8652291 70.8271508,82.2640782 C71.7682011,80.6629274 67.7120223,69.2679218 67.1464469,66.865933 C66.5819218,64.4649944 63.6222346,62.8454637 60.3264581,62.3833408 C57.0301564,61.9222682 54.2180335,62.3833408 54.2180335,62.3833408" id="Fill-144" fill="#003362"></path>
                            <path d="M63.8149609,87.0596536 C63.8149609,87.0596536 63.5324358,88.9112961 64.285486,89.6963799 C65.0395866,90.4819888 68.5097095,95.0580559 66.6717207,99.5543017 C64.9839218,103.68295 61.7112514,103.604179 61.7112514,103.604179 L56.6462793,103.604179 C56.6462793,103.604179 58.1166704,111.035955 57.6424693,115.932358 C57.1672179,120.830335 54.9332737,132.013709 54.8865363,132.578235 C54.8392737,133.14381 52.7450168,134.91038 52.1327039,134.015542 C52.1327039,134.015542 52.0759888,127.281676 51.745676,124.73895 C51.4164134,122.195698 50.0137654,112.024793 49.5894525,110.518168 C49.1661899,109.011017 46.6702011,104.443352 46.6702011,103.972302 C46.6702011,103.501777 44.2325028,96.1293408 49.5542682,94.2461899 C54.8744581,92.3619888 56.7555084,87.0990391 63.8149609,87.0596536" id="Fill-145" fill="#F6CEBB"></path>
                            <path d="M49.6109832,139.209173 C49.6109832,139.209173 46.1177542,143.283207 46.5105587,144.016302 C46.9033631,144.748872 50.3304246,145.121721 52.4855978,144.491553 C54.6397207,143.861385 55.099743,138.710291 56.2219665,136.571397 C56.6919665,135.676559 56.0617989,132.871788 54.8865363,132.578235 C53.7107486,132.285207 52.2634637,132.799844 52.2634637,132.799844 C52.2634637,132.799844 53.2318212,136.046782 49.6109832,139.209173" id="Fill-146" fill="#003362"></path>
                            <path d="M52.2634637,132.799844 C52.2634637,132.799844 51.8517542,134.821106 51.3381676,136.233732 C50.8251061,137.645832 48.4231173,140.761486 48.4908603,141.167419 C48.5586034,141.573877 51.2184358,142.14838 52.3957989,141.208905 C53.5726369,140.268905 54.6554749,137.363832 54.8986145,135.571531 C55.1407039,133.780279 54.8865363,132.578235 54.8865363,132.578235 C54.8865363,132.578235 53.3956648,131.787374 52.2634637,132.799844" id="Fill-147" fill="#F6CEBB"></path>
                            <path d="M66.6717207,99.5543017 C65.0784469,103.737564 61.7112514,103.604179 61.7112514,103.604179 L56.6468045,103.604179 C56.6468045,103.604179 54.5336425,100.256413 49.3599665,99.6808603 C48.2135866,99.5537765 46.9159665,99.5621788 45.4587039,99.7738101 C45.4408492,99.7764358 45.4235196,99.7785363 45.4056648,99.7816872 C38.5315866,100.799933 39.8596648,103.323229 39.8801453,103.388872 C39.3093184,101.993575 38.7090838,99.7753855 38.8534972,98.5806927 C39.5125475,93.1397207 47.3744134,91.9985922 48.6515531,90.4289497 C49.9281676,88.8593073 48.6515531,86.7036089 48.6515531,86.7036089 C60.4272849,83.2319106 62.198581,87.1741341 62.198581,87.1741341 C62.7142682,87.1027151 64.0376201,86.3407374 64.6000447,86.3370615 C64.6000447,86.3370615 65.1892514,87.6241788 65.6041117,88.7863128 C65.9701341,89.8108603 68.4004804,95.0149944 66.6717207,99.5543017" id="Fill-149" fill="#003362"></path>
                            <polyline id="Fill-150" fill="#EBEBEB" points="61.7858212 69.5971844 63.5282346 85.7966927 40.5959106 85.7966927 38.8534972 69.5971844 61.7858212 69.5971844"></polyline>
                            <path d="M52.8719888,78.6872737 C52.8719888,79.6188715 52.2286927,80.3745475 51.4352067,80.3745475 C50.6427709,80.3745475 50,79.6188715 50,78.6872737 C50,77.755676 50.6427709,77 51.4352067,77 C52.2286927,77 52.8719888,77.755676 52.8719888,78.6872737" id="Fill-105" fill="#6E6E6E"></path>
                            <polygon id="Fill-151" fill="#EBEBEB" points="61.5232514 85.7966927 65.353095 85.7966927 65.353095 84.338905 61.5232514 84.338905"></polygon>
                            <polygon id="Fill-152" fill="#C1E1FF" points="24.7913073 88.0012291 87.9572067 88.0012291 87.9572067 85.7966927 24.7913073 85.7966927"></polygon>
                            <path d="M54.0297852,44.3254395 C51.4625651,44.6441243 49.5448405,48.1031087 48.2766113,54.7023926 C47.786377,56.3010254 47.3494466,57.4575195 46.9658203,58.171875 C46.582194,58.8862305 49.1062826,59.0963542 54.5380859,58.8022461 C62.1246745,59.0276693 65.7886556,58.8175456 65.5300293,58.171875 C63.4175618,50.5511068 60.9727376,46.2550456 58.1955566,45.2836914" id="Path-2" fill="#003362"></path>
                            <path d="M56.7560335,44.7024134 C56.7560335,44.7024134 61.894,46.2221676 61.1598547,53.352514 C60.4257095,60.4833855 57.070067,60.1157877 56.7560335,60.1683017 C56.4414749,60.2208156 52.4572402,60.4833855 51.1984804,51.8327598 C49.9407709,43.1821341 56.7560335,44.7024134 56.7560335,44.7024134" id="Fill-153" fill="#F6CEBB"></path>
                            <path d="M59.2042346,58.8570279 C59.2042346,58.8570279 58.9327374,61.2175307 59.3869832,62.6858212 C59.8412291,64.1541117 53.4024916,64.1940223 53.4061656,62.9867263 C53.4098436,61.6155866 54.0646927,60.4697318 53.4481788,58.120257 C52.8316648,55.7692067 59.2042346,58.8570279 59.2042346,58.8570279" id="Fill-154" fill="#F6CEBB"></path>
                            <path d="M61.1598547,53.352514 C61.1598547,53.352514 62.7641564,45.9013073 56.1379441,44.3390168 C49.5106816,42.7788268 50.5488827,51.8663687 51.0435642,54.2898883 C51.0435642,54.2898883 52.4231061,50.7247151 55.4295307,47.8821341 C55.4295307,47.8821341 58.2216983,52.3232402 61.1598547,53.352514 Z" id="Fill-155" fill="#003362"></path>
                            <path d="M54.2101564,59.157933 C54.2101564,59.157933 56.2429721,61.2758212 58.8429385,59.3784916 C58.8429385,59.3784916 58.6281564,60.7323017 56.7581341,60.9076983 C54.8886369,61.0820447 54.2101564,59.157933 54.2101564,59.157933" id="Fill-156" fill="#A77860" opacity="0.421205357"></path>
                            <path d="M60.0444581,62.3455307 C60.0444581,62.3455307 59.9530838,67.2813184 56.039743,67.4278324 C52.125352,67.5748715 52.9403687,62.6947486 52.9403687,62.6947486 C52.9403687,62.6947486 55.8034302,61.5347151 60.0444581,62.3455307" id="Fill-158" fill="#F6CEBB"></path>
                            <polygon id="Fill-159" fill="#003362" points="86.3350503 138.649899 87.9572067 138.649899 87.9572067 88.0012291 86.3350503 88.0012291"></polygon>
                            <polygon id="Fill-160" fill="#003362" points="24.7913073 138.649899 26.4134637 138.649899 26.4134637 88.0012291 24.7913073 88.0012291"></polygon>
                            <g id="Group" transform="translate(5.000000, 5.000000)" fill="#FFFFFF" fill-rule="nonzero">
                                <path d="M0.913050484,0 C0.408772702,0 0,0.416065409 0,0.929305162 C0,1.44254491 0.408772702,1.85861032 0.913050484,1.85861032 L4.55575673,1.85861032 C6.06691615,5.66798397 7.55540148,9.4843305 9.05441733,13.3006739 L7.67534588,16.6790699 C7.55981456,16.9607423 7.59231915,17.3003724 7.75907261,17.5540417 C7.9258565,17.807711 8.22192833,17.9678303 8.52180455,17.9666375 L23.7393126,17.9666375 C24.2216772,17.9733752 24.6653588,17.528269 24.6653588,17.0372551 C24.6653588,16.5462412 24.2216772,16.1010111 23.7393126,16.1079499 L9.89138027,16.1079499 L10.6808037,14.191258 L25.337151,13.0005703 C25.7207843,12.9699033 26.0680479,12.6657417 26.155092,12.2842309 L27.981193,4.23027454 C28.10062,3.68779885 27.6333512,3.09587173 27.0871644,3.09768387 L7.00954947,3.09768387 L6.02041144,0.580815726 C5.88497562,0.240126258 5.5350338,0 5.17395277,0 L0.913050484,0 Z M7.74190726,4.9562942 L13.3914071,4.9562942 L13.3914071,7.74420968 L8.83565043,7.74420968 L7.74190726,4.9562942 Z M15.2175081,4.9562942 L18.86971,4.9562942 L18.86971,7.74420968 L15.2175081,7.74420968 L15.2175081,4.9562942 Z M20.695811,4.9562942 L25.9363556,4.9562942 L25.3086029,7.74420968 L20.695811,7.74420968 L20.695811,4.9562942 Z M9.56800823,9.60282001 L13.3914071,9.60282001 L13.3914071,12.1099862 L10.64276,12.3326477 L9.56800823,9.60282001 Z M15.2175081,9.60282001 L18.86971,9.60282001 L18.86971,11.6647065 L15.2175081,11.9648102 L15.2175081,9.60282001 Z M20.695811,9.60282001 L24.8806257,9.60282001 L24.5192099,11.2097497 L20.695811,11.5195181 L20.695811,9.60282001 Z" id="Shape" stroke="#0083FF" stroke-width="0.6"></path>
                                <path d="M10.4665785,18 C9.66182288,18 9,18.6735901 9,19.4926873 C9,20.3117697 9.66182288,20.9853747 10.4665785,20.9853747 C11.2713341,20.9853747 11.933157,20.3117697 11.933157,19.4926873 C11.933157,18.673605 11.2713341,18 10.4665785,18 L10.4665785,18 Z" id="Path"></path>
                                <path d="M21.4665785,18 C20.6618229,18 20,18.673605 20,19.4926873 C20,20.3117697 20.6618229,20.9853747 21.4665785,20.9853747 C22.2713341,20.9853747 22.933157,20.3117697 22.933157,19.4926873 C22.933157,18.6735901 22.2713341,18 21.4665785,18 L21.4665785,18 Z" id="Path"></path>
                            </g>
                        </g>
                    </g>
                    <g id="Group-10" transform="translate(126.000000, 0.000000)">
                        <g id="Rectangle-3-Copy-2">
                            <use fill="black" fill-opacity="1" filter="url(#filter-14)" xlink:href="#path-13"></use>
                            <use fill="#FFFFFF" fill-rule="evenodd" xlink:href="#path-13"></use>
                        </g>
                        <path d="M65.423,167.117 C65.9070024,167.117 66.2919986,167.001501 66.578,166.7705 C66.8640014,166.539499 67.007,166.226002 67.007,165.83 L67.007,165.808 C67.007,165.389998 66.8676681,165.072834 66.589,164.8565 C66.3103319,164.640166 65.9180025,164.532 65.412,164.532 L63.443,164.532 L63.443,167.117 L65.423,167.117 Z M62.09,163.3 L65.522,163.3 C66.0060024,163.3 66.4349981,163.367833 66.809,163.5035 C67.1830019,163.639167 67.4946654,163.827999 67.744,164.07 C67.9493344,164.282668 68.1069995,164.528332 68.217,164.807 C68.3270006,165.085668 68.382,165.393665 68.382,165.731 L68.382,165.753 C68.382,166.068335 68.3361671,166.352499 68.2445,166.6055 C68.1528329,166.858501 68.0263341,167.082166 67.865,167.2765 C67.7036659,167.470834 67.5111678,167.635833 67.2875,167.7715 C67.0638322,167.907167 66.8163347,168.011666 66.545,168.085 L68.624,171 L67.029,171 L65.137,168.316 L63.443,168.316 L63.443,171 L62.09,171 L62.09,163.3 Z M71.043,163.3 L76.752,163.3 L76.752,164.51 L72.396,164.51 L72.396,166.512 L76.257,166.512 L76.257,167.722 L72.396,167.722 L72.396,169.79 L76.807,169.79 L76.807,171 L71.043,171 L71.043,163.3 Z M81.305,164.554 L78.863,164.554 L78.863,163.3 L85.111,163.3 L85.111,164.554 L82.669,164.554 L82.669,171 L81.305,171 L81.305,164.554 Z M92.205,167.942 L90.874,164.862 L89.554,167.942 L92.205,167.942 Z M90.269,163.245 L91.523,163.245 L94.911,171 L93.481,171 L92.7,169.141 L89.059,169.141 L88.267,171 L86.881,171 L90.269,163.245 Z M97.308,163.3 L98.661,163.3 L98.661,171 L97.308,171 L97.308,163.3 Z M101.718,163.3 L103.071,163.3 L103.071,169.768 L107.119,169.768 L107.119,171 L101.718,171 L101.718,163.3 Z M109.527,163.3 L115.236,163.3 L115.236,164.51 L110.88,164.51 L110.88,166.512 L114.741,166.512 L114.741,167.722 L110.88,167.722 L110.88,169.79 L115.291,169.79 L115.291,171 L109.527,171 L109.527,163.3 Z M121.23,167.117 C121.714002,167.117 122.098999,167.001501 122.385,166.7705 C122.671001,166.539499 122.814,166.226002 122.814,165.83 L122.814,165.808 C122.814,165.389998 122.674668,165.072834 122.396,164.8565 C122.117332,164.640166 121.725003,164.532 121.219,164.532 L119.25,164.532 L119.25,167.117 L121.23,167.117 Z M117.897,163.3 L121.329,163.3 C121.813002,163.3 122.241998,163.367833 122.616,163.5035 C122.990002,163.639167 123.301665,163.827999 123.551,164.07 C123.756334,164.282668 123.913999,164.528332 124.024,164.807 C124.134001,165.085668 124.189,165.393665 124.189,165.731 L124.189,165.753 C124.189,166.068335 124.143167,166.352499 124.0515,166.6055 C123.959833,166.858501 123.833334,167.082166 123.672,167.2765 C123.510666,167.470834 123.318168,167.635833 123.0945,167.7715 C122.870832,167.907167 122.623335,168.011666 122.352,168.085 L124.431,171 L122.836,171 L120.944,168.316 L119.25,168.316 L119.25,171 L117.897,171 L117.897,163.3 Z M129.545,171.11 C128.950997,171.11 128.382669,171.009168 127.84,170.8075 C127.297331,170.605832 126.795002,170.296002 126.333,169.878 L127.147,168.91 C127.521002,169.232668 127.898665,169.480166 128.28,169.6525 C128.661335,169.824834 129.093998,169.911 129.578,169.911 C129.996002,169.911 130.327832,169.823001 130.5735,169.647 C130.819168,169.470999 130.942,169.236335 130.942,168.943 L130.942,168.921 C130.942,168.781666 130.918167,168.658834 130.8705,168.5525 C130.822833,168.446166 130.734834,168.345334 130.6065,168.25 C130.478166,168.154666 130.302168,168.066667 130.0785,167.986 C129.854832,167.905333 129.563335,167.824667 129.204,167.744 C128.793331,167.648666 128.428502,167.540501 128.1095,167.4195 C127.790498,167.298499 127.522834,167.151834 127.3065,166.9795 C127.090166,166.807166 126.925167,166.596335 126.8115,166.347 C126.697833,166.097665 126.641,165.797002 126.641,165.445 L126.641,165.423 C126.641,165.092998 126.706999,164.790501 126.839,164.5155 C126.971001,164.240499 127.152499,164.005834 127.3835,163.8115 C127.614501,163.617166 127.891332,163.465001 128.214,163.355 C128.536668,163.244999 128.888665,163.19 129.27,163.19 C129.834669,163.19 130.342498,163.272499 130.7935,163.4375 C131.244502,163.602501 131.667998,163.842665 132.064,164.158 L131.338,165.181 C130.985998,164.924332 130.637668,164.728167 130.293,164.5925 C129.948332,164.456833 129.600002,164.389 129.248,164.389 C128.851998,164.389 128.544001,164.476999 128.324,164.653 C128.103999,164.829001 127.994,165.045332 127.994,165.302 L127.994,165.324 C127.994,165.470667 128.019666,165.600833 128.071,165.7145 C128.122334,165.828167 128.215833,165.930833 128.3515,166.0225 C128.487167,166.114167 128.674165,166.200333 128.9125,166.281 C129.150835,166.361667 129.453331,166.446 129.82,166.534 C130.223335,166.636667 130.580832,166.750333 130.8925,166.875 C131.204168,166.999667 131.462666,167.151832 131.668,167.3315 C131.873334,167.511168 132.029166,167.720165 132.1355,167.9585 C132.241834,168.196835 132.295,168.473665 132.295,168.789 L132.295,168.811 C132.295,169.170335 132.227167,169.492999 132.0915,169.779 C131.955833,170.065001 131.767001,170.306999 131.525,170.505 C131.282999,170.703001 130.993335,170.853333 130.656,170.956 C130.318665,171.058667 129.948335,171.11 129.545,171.11 Z" id="RETAILERS" fill="#003362" fill-rule="nonzero"></path>
                        <g id="_illu_SHOP" transform="translate(25.000000, 0.000000)">
                            <g id="Group-5" transform="translate(8.000000, 88.000000)" fill="#FFFFFF">
                                <path d="M11.7347743,38 C8.94619316,36.3502556 5.68340874,24.8506924 5.48849321,18.0015743 C5.38849647,14.4930324 4.15650532,13.0313043 3.06865011,11.7414862 C2.02962143,10.5088619 1.13160379,9.44420321 1.65424303,7 C2.65421047,2.32785212 0.0265616354,0.311278729 0,0.292214139 L0.303896358,0 C0.421080043,0.0861193526 3.15692849,2.16613181 2.10852511,7.06868961 C1.61947853,9.35249596 2.42531168,10.3076976 3.44480974,11.5169843 C4.51430617,12.7857656 5.84668468,14.3651682 5.9490251,17.9917133 C6.15839328,25.3427561 9.49461281,36.2000398 12,37.6831334 L11.7347743,38" id="Fill-10"></path>
                            </g>
                            <g id="Group-16" transform="translate(123.000000, 96.000000)">
                                <mask id="mask-16" fill="white">
                                    <use xlink:href="#path-15"></use>
                                </mask>
                                <use id="Clip-12" stroke="#003362" stroke-width="0.7" xlink:href="#path-15"></use>
                                <mask id="mask-18" fill="white">
                                    <use xlink:href="#path-17"></use>
                                </mask>
                                <use id="Clip-15" stroke="#003362" stroke-width="0.2" fill="#003362" xlink:href="#path-17"></use>
                            </g>
                            <g id="Group-6" transform="translate(119.000000, 70.000000)">
                                <mask id="mask-20" fill="white">
                                    <use xlink:href="#path-19"></use>
                                </mask>
                                <use id="Clip-18" fill="#8DD393" xlink:href="#path-19"></use>
                                <path d="M6.19617638,57.0927876 C5.62182252,45.5126442 6.5022582,26.7704083 14.3532151,17.2684556" id="Path-3" stroke="#FFFFFF" stroke-width="0.6" mask="url(#mask-20)"></path>
                            </g>
                            <polygon id="Fill-1" fill="#DBEDFF" points="16.0430055 131.534263 126.713602 131.534263 126.713602 52.38517 16.0430055 52.38517"></polygon>
                            <g id="Group-4" transform="translate(122.732892, 126.543093)">
                                <mask id="mask-22" fill="white">
                                    <use xlink:href="#path-21"></use>
                                </mask>
                                <g id="Clip-3"></g>
                            </g>
                            <g id="_briques" transform="translate(33.000000, 64.216382)" fill="#0083FF" opacity="0.171484375">
                                <polygon id="Fill-17" points="67.6554305 8.12172406 74.7293863 8.12172406 74.7293863 5.37070861 67.6554305 5.37070861"></polygon>
                                <polygon id="Fill-18" points="76.5869823 8.12172406 83.6609382 8.12172406 83.6609382 5.37070861 76.5869823 5.37070861"></polygon>
                                <polygon id="Fill-19" points="72.1501258 3.54217881 79.2240817 3.54217881 79.2240817 0.791163355 72.1501258 0.791163355"></polygon>
                                <polygon id="Fill-23" points="13.9358896 8.12172406 21.0095519 8.12172406 21.0095519 5.37070861 13.9358896 5.37070861"></polygon>
                                <polygon id="Fill-24" points="9.49903311 3.54217881 16.572989 3.54217881 16.572989 0.791163355 9.49903311 0.791163355"></polygon>
                                <polygon id="Fill-26" points="13.4622583 64.3569603 20.5359205 64.3569603 20.5359205 61.6059448 13.4622583 61.6059448"></polygon>
                                <polygon id="Fill-27" points="35 59.7510155 42.0739558 59.7510155 42.0739558 57 35 57"></polygon>
                                <polygon id="Fill-30" points="0 58.7510155 7.07366225 58.7510155 7.07366225 56 0 56"></polygon>
                            </g>
                            <g id="_porte" transform="translate(90.000000, 76.000000)">
                                <polygon id="Fill-7" fill="#003362" points="0 55.2163819 29 55.2163819 29 0 0 0"></polygon>
                                <path d="M5.21464283,23.5724605 C4.78892539,23.5724605 4.44394746,23.8335705 4.44394746,24.1557913 L4.44394746,31.87798 C4.44394746,32.1999786 4.78892539,32.4613108 5.21464283,32.4613108 C5.64036026,32.4613108 5.98533819,32.1999786 5.98533819,31.87798 L5.98533819,24.1557913 C5.98533819,23.8335705 5.64036026,23.5724605 5.21464283,23.5724605" id="Fill-11" fill="#FFFFFF"></path>
                            </g>
                            <g id="rideau" transform="translate(12.000000, 37.000000)">
                                <path d="M13.4198349,18.2683927 C13.4198349,22.3417746 16.4240004,25.643874 20.1298592,25.643874 C23.8354508,25.643874 26.8396163,22.3417746 26.8396163,18.2683927 L26.8396163,13.668002 L13.4198349,13.668002 L13.4198349,18.2683927 Z" id="Fill-41" fill="#003362"></path>
                                <path d="M40.2595046,18.2683927 C40.2595046,22.3417746 43.2636702,25.643874 46.9695289,25.643874 C50.6751205,25.643874 53.6792861,22.3417746 53.6792861,18.2683927 L53.6792861,13.668002 L40.2595046,13.668002 L40.2595046,18.2683927 Z" id="Fill-42" fill="#003362"></path>
                                <path d="M67.0990675,18.2683927 C67.0990675,22.3417746 70.1032331,25.643874 73.8090918,25.643874 C77.5149506,25.643874 80.518849,22.3417746 80.518849,18.2683927 L80.518849,13.668002 L67.0990675,13.668002 L67.0990675,18.2683927 Z" id="Fill-43" fill="#003362"></path>
                                <path d="M93.9390044,13.6680313 L93.9390044,18.2684221 C93.9390044,22.3415104 96.9429029,25.6439033 100.648762,25.6439033 C104.35462,25.6439033 107.358786,22.3415104 107.358786,18.2684221 L107.358786,13.6680313 L93.9390044,13.6680313 Z" id="Fill-44" fill="#003362"></path>
                                <polygon id="Fill-45" fill="#003D75" points="13.4198349 13.6678974 26.8396163 13.6678974 28.4425325 0.121946057 15.6638106 0.121946057"></polygon>
                                <polygon id="Fill-46" fill="#003D75" points="40.2595046 13.6678974 53.6792861 13.6678974 53.9998159 0.121946057 41.2213611 0.121946057"></polygon>
                                <polygon id="Fill-47" fill="#003D75" points="66.7787247 0.122168049 67.0989874 13.6681194 80.519036 13.6681194 79.5574466 0.122168049"></polygon>
                                <polygon id="Fill-48" fill="#003D75" points="105.114757 0.122168049 92.3360349 0.122168049 93.938951 13.6681194 107.358732 13.6681194"></polygon>
                                <path d="M0,18.2683927 C0,22.3417746 3.00416556,25.643874 6.71002428,25.643874 C10.4156159,25.643874 13.4197815,22.3417746 13.4197815,18.2683927 L13.4197815,13.668002 L0,13.668002 L0,18.2683927 Z" id="Fill-49" fill="#F6A69B"></path>
                                <path d="M26.8396698,18.2683927 C26.8396698,22.3417746 29.8438353,25.643874 33.549694,25.643874 C37.2552857,25.643874 40.2594512,22.3417746 40.2594512,18.2683927 L40.2594512,13.668002 L26.8396698,13.668002 L26.8396698,18.2683927 Z" id="Fill-50" fill="#F6A69B"></path>
                                <path d="M53.6793395,18.2683927 C53.6793395,22.3417746 56.6835051,25.643874 60.3893638,25.643874 C64.0952225,25.643874 67.099121,22.3417746 67.099121,18.2683927 L67.099121,13.668002 L53.6793395,13.668002 L53.6793395,18.2683927 Z" id="Fill-51" fill="#F6A69B"></path>
                                <path d="M80.5189024,18.2683927 C80.5189024,22.3417746 83.523068,25.643874 87.2289267,25.643874 C90.9347854,25.643874 93.938951,22.3417746 93.938951,18.2683927 L93.938951,13.668002 L80.5189024,13.668002 L80.5189024,18.2683927 Z" id="Fill-52" fill="#F6A69B"></path>
                                <path d="M107.358839,13.6680313 L107.358839,18.2684221 C107.358839,22.3415104 110.362738,25.6439033 114.068596,25.6439033 C117.774455,25.6439033 120.778621,22.3415104 120.778621,18.2684221 L120.778621,13.6680313 L107.358839,13.6680313 Z" id="Combined-Shape" fill="#F6A69B"></path>
                                <polygon id="Fill-58" fill="#F6A69B" points="117.893425 0.122168049 105.114703 0.122168049 107.358946 13.6681194 120.778728 13.6681194"></polygon>
                                <polygon id="Fill-54" fill="#F6A69B" points="0 13.6678974 13.4197815 13.6678974 15.6640243 0.121946057 2.88530243 0.121946057"></polygon>
                                <polygon id="Fill-55" fill="#F6A69B" points="26.8396698 13.6678974 40.2594512 13.6678974 41.2213077 0.121946057 28.4425859 0.121946057"></polygon>
                                <polygon id="Fill-56" fill="#F6A69B" points="53.9999227 0.122168049 53.6793929 13.6681194 67.0991744 13.6681194 66.7786446 0.122168049"></polygon>
                                <polygon id="Fill-57" fill="#F6A69B" points="79.5574199 0.122168049 80.5192764 13.6681194 93.9390578 13.6681194 92.3361417 0.122168049"></polygon>
                            </g>
                            <mask id="mask-24" fill="white">
                                <use xlink:href="#path-23"></use>
                            </mask>
                            <use id="Fill-7-Copy" fill="#FFFFFF" xlink:href="#path-23"></use>
                            <polygon id="Rectangle-4" fill="#EBEBEB" opacity="0.338113839" mask="url(#mask-24)" points="34.0769231 76 75 76 31.9230769 118 -9 118"></polygon>
                            <g id="_shoppingBAG" transform="translate(0.000000, 101.000000)">
                                <path d="M4.10157646,5.12335526 L25.839549,5.12335526 C26.348147,5.12335526 26.7757306,5.50510285 26.8331546,6.01044863 L29.5463353,29.8870934 C29.6086919,30.4358466 29.2143895,30.931249 28.6656363,30.9936056 C28.6281515,30.9978651 28.5904557,31 28.5527297,31 L1.3883958,31 C0.836111053,31 0.388395803,30.5522847 0.388395803,30 C0.388395803,29.962274 0.390530682,29.9245782 0.394790201,29.8870934 L3.10797086,6.01044863 C3.16539494,5.50510285 3.59297849,5.12335526 4.10157646,5.12335526 Z" id="Rectangle-4-Copy" fill="#8DD393"></path>
                                <path d="M20,8 C20,3.581722 17.7614237,0 15,0 C12.2385763,0 10,3.581722 10,8" id="Oval-Copy" stroke="#003362"></path>
                            </g>
                        </g>
                    </g>
                    <g id="ARROW-Copy-2" transform="translate(217.000000, 427.000000) rotate(-180.000000) translate(-217.000000, -427.000000) translate(155.000000, 365.000000)">
                        <g id="Group-11" transform="translate(61.702900, 61.826389) rotate(-315.000000) translate(-61.702900, -61.826389) translate(18.202900, 18.326389)">
                            <path d="M82.7941176,82.7941176 C82.7941176,38.9849421 47.2797638,3.47058824 3.47058824,3.47058824" id="Oval-6" stroke="#0083FF" transform="translate(43.132353, 43.132353) rotate(-90.000000) translate(-43.132353, -43.132353) "></path>
                            <polygon id="Triangle" fill="#0083FF" transform="translate(3.500000, 83.058824) rotate(-360.000000) translate(-3.500000, -83.058824) " points="3.5 86.0588235 0.5 80.0588235 6.5 80.0588235"></polygon>
                            <polygon id="Triangle-Copy" fill="#0083FF" transform="translate(83.494748, 3.470588) rotate(-90.000000) translate(-83.494748, -3.470588) " points="83.4947476 6.47058824 80.4947476 0.470588235 86.4947476 0.470588235"></polygon>
                        </g>
                        <circle id="Oval-5" stroke="#0083FF" fill="#FDF9F5" cx="61.5" cy="38.5" r="12.5"></circle>
                        <path d="M55.9065,40.319 C56.2845019,40.319 56.5814989,40.2470007 56.7975,40.103 C57.0135011,39.9589993 57.1215,39.7430014 57.1215,39.455 L57.1215,39.437 C57.1215,39.1669987 57.0150011,38.9585007 56.802,38.8115 C56.5889989,38.6644993 56.2635022,38.591 55.8255,38.591 L54.0705,38.591 L54.0705,40.319 L55.9065,40.319 Z M55.5825,37.655 C55.9425018,37.655 56.2304989,37.5845007 56.4465,37.4435 C56.6625011,37.3024993 56.7705,37.0880014 56.7705,36.8 L56.7705,36.782 C56.7705,36.5299987 56.6760009,36.3335007 56.487,36.1925 C56.2979991,36.0514993 56.0235018,35.981 55.6635,35.981 L54.0705,35.981 L54.0705,37.655 L55.5825,37.655 Z M52.9815,35 L55.8075,35 C56.5335036,35 57.0824981,35.1859981 57.4545,35.558 C57.7365014,35.8400014 57.8775,36.1879979 57.8775,36.602 L57.8775,36.62 C57.8775,36.812001 57.8520003,36.9814993 57.801,37.1285 C57.7499997,37.2755007 57.6840004,37.4044994 57.603,37.5155 C57.5219996,37.6265006 57.4260006,37.7239996 57.315,37.808 C57.2039994,37.8920004 57.0915006,37.9639997 56.9775,38.024 C57.1635009,38.0900003 57.3329992,38.1664996 57.486,38.2535 C57.6390008,38.3405004 57.7709994,38.4439994 57.882,38.564 C57.9930006,38.6840006 58.0784997,38.8249992 58.1385,38.987 C58.1985003,39.1490008 58.2285,39.3379989 58.2285,39.554 L58.2285,39.572 C58.2285,39.8540014 58.1730006,40.1029989 58.062,40.319 C57.9509994,40.5350011 57.793501,40.7149993 57.5895,40.859 C57.385499,41.0030007 57.1395014,41.1124996 56.8515,41.1875 C56.5634986,41.2625004 56.2455017,41.3 55.8975,41.3 L52.9815,41.3 L52.9815,35 Z M59.1105,40.427 L61.2795,38.582 C61.4955011,38.4019991 61.6784992,38.2385007 61.8285,38.0915 C61.9785007,37.9444993 62.0999995,37.8050007 62.193,37.673 C62.2860005,37.5409993 62.3534998,37.4120006 62.3955,37.286 C62.4375002,37.1599994 62.4585,37.0250007 62.4585,36.881 C62.4585,36.5689984 62.361001,36.3275009 62.166,36.1565 C61.970999,35.9854991 61.7295014,35.9 61.4415,35.9 C61.1534986,35.9 60.9000011,35.9779992 60.681,36.134 C60.4619989,36.2900008 60.2295012,36.5269984 59.9835,36.845 L59.2005,36.233 C59.3505007,36.022999 59.5034992,35.8355008 59.6595,35.6705 C59.8155008,35.5054992 59.9849991,35.3675006 60.168,35.2565 C60.3510009,35.1454994 60.5519989,35.0600003 60.771,35 C60.9900011,34.9399997 61.2404986,34.91 61.5225,34.91 C61.8285015,34.91 62.1089987,34.9549996 62.364,35.045 C62.6190013,35.1350005 62.8379991,35.2624992 63.021,35.4275 C63.2040009,35.5925008 63.3464995,35.7904988 63.4485,36.0215 C63.5505005,36.2525012 63.6015,36.5089986 63.6015,36.791 L63.6015,36.809 C63.6015,37.0550012 63.5685003,37.278499 63.5025,37.4795 C63.4364997,37.680501 63.3360007,37.8739991 63.201,38.06 C63.0659993,38.2460009 62.895001,38.4334991 62.688,38.6225 C62.480999,38.8115009 62.2395014,39.0199989 61.9635,39.248 L60.6675,40.328 L63.6645,40.328 L63.6645,41.3 L59.1105,41.3 L59.1105,40.427 Z M67.9215,41.408 C67.4594977,41.408 67.0335019,41.3240008 66.6435,41.156 C66.253498,40.9879992 65.9160014,40.7585015 65.631,40.4675 C65.3459986,40.1764985 65.1225008,39.833002 64.9605,39.437 C64.7984992,39.040998 64.7175,38.6180023 64.7175,38.168 L64.7175,38.15 C64.7175,37.6999978 64.7969992,37.278502 64.956,36.8855 C65.1150008,36.492498 65.3384986,36.1475015 65.6265,35.8505 C65.9145014,35.5534985 66.256498,35.3195009 66.6525,35.1485 C67.048502,34.9774991 67.4864976,34.892 67.9665,34.892 C68.2545014,34.892 68.5169988,34.9159998 68.754,34.964 C68.9910012,35.0120002 69.208499,35.0794996 69.4065,35.1665 C69.604501,35.2535004 69.7874992,35.3569994 69.9555,35.477 C70.1235008,35.5970006 70.2824992,35.7289993 70.4325,35.873 L69.7215,36.692 C69.4694987,36.4579988 69.2025014,36.2690007 68.9205,36.125 C68.6384986,35.9809993 68.3175018,35.909 67.9575,35.909 C67.6574985,35.909 67.3800013,35.9674994 67.125,36.0845 C66.8699987,36.2015006 66.6495009,36.360499 66.4635,36.5615 C66.2774991,36.762501 66.1335005,36.9979987 66.0315,37.268 C65.9294995,37.5380014 65.8785,37.8259985 65.8785,38.132 L65.8785,38.15 C65.8785,38.4560015 65.9294995,38.7454986 66.0315,39.0185 C66.1335005,39.2915014 66.2774991,39.529999 66.4635,39.734 C66.6495009,39.938001 66.8699987,40.0984994 67.125,40.2155 C67.3800013,40.3325006 67.6574985,40.391 67.9575,40.391 C68.3415019,40.391 68.6714986,40.3175007 68.9475,40.1705 C69.2235014,40.0234993 69.4964986,39.8240013 69.7665,39.572 L70.4775,40.292 C70.3154992,40.4660009 70.1460009,40.6204993 69.969,40.7555 C69.7919991,40.8905007 69.601501,41.0074995 69.3975,41.1065 C69.193499,41.2055005 68.9700012,41.2804997 68.727,41.3315 C68.4839988,41.3825003 68.2155015,41.408 67.9215,41.408 Z" id="B2C" fill="#0083FF" fill-rule="nonzero" transform="translate(61.729500, 38.150000) rotate(-180.000000) translate(-61.729500, -38.150000) "></path>
                    </g>
                    <g id="ARROW-Copy-3" transform="translate(107.200914, 213.200914) rotate(-51.000000) translate(-107.200914, -213.200914) translate(45.200914, 151.200914)">
                        <g id="Group-11" transform="translate(61.702900, 61.826389) rotate(-315.000000) translate(-61.702900, -61.826389) translate(18.202900, 18.326389)">
                            <path d="M82.7941176,82.7941176 C82.7941176,38.9849421 47.2797638,3.47058824 3.47058824,3.47058824" id="Oval-6" stroke="#0083FF" transform="translate(43.132353, 43.132353) rotate(-90.000000) translate(-43.132353, -43.132353) "></path>
                            <polygon id="Triangle" fill="#0083FF" transform="translate(3.500000, 83.058824) rotate(-360.000000) translate(-3.500000, -83.058824) " points="3.5 86.0588235 0.5 80.0588235 6.5 80.0588235"></polygon>
                            <polygon id="Triangle-Copy" fill="#0083FF" transform="translate(83.494748, 3.470588) rotate(-90.000000) translate(-83.494748, -3.470588) " points="83.4947476 6.47058824 80.4947476 0.470588235 86.4947476 0.470588235"></polygon>
                        </g>
                        <circle id="Oval-5" stroke="#0083FF" fill="#FDF9F5" cx="61.5" cy="38.5" r="12.5"></circle>
                        <path d="M56.1725591,40.5673844 C56.550561,40.5673844 56.8475581,40.4953851 57.0635591,40.3513844 C57.2795602,40.2073837 57.3875591,39.9913858 57.3875591,39.7033844 L57.3875591,39.6853844 C57.3875591,39.415383 57.2810602,39.2068851 57.0680591,39.0598844 C56.8550581,38.9128836 56.5295613,38.8393844 56.0915591,38.8393844 L54.3365591,38.8393844 L54.3365591,40.5673844 L56.1725591,40.5673844 Z M55.8485591,37.9033844 C56.2085609,37.9033844 56.4965581,37.8328851 56.7125591,37.6918844 C56.9285602,37.5508837 57.0365591,37.3363858 57.0365591,37.0483844 L57.0365591,37.0303844 C57.0365591,36.7783831 56.9420601,36.5818851 56.7530591,36.4408844 C56.5640582,36.2998837 56.2895609,36.2293844 55.9295591,36.2293844 L54.3365591,36.2293844 L54.3365591,37.9033844 L55.8485591,37.9033844 Z M53.2475591,35.2483844 L56.0735591,35.2483844 C56.7995628,35.2483844 57.3485573,35.4343825 57.7205591,35.8063844 C58.0025606,36.0883858 58.1435591,36.4363823 58.1435591,36.8503844 L58.1435591,36.8683844 C58.1435591,37.0603853 58.1180594,37.2298836 58.0670591,37.3768844 C58.0160589,37.5238851 57.9500596,37.6528838 57.8690591,37.7638844 C57.7880587,37.8748849 57.6920597,37.972384 57.5810591,38.0563844 C57.4700586,38.1403848 57.3575597,38.2123841 57.2435591,38.2723844 C57.4295601,38.3383847 57.5990584,38.4148839 57.7520591,38.5018844 C57.9050599,38.5888848 58.0370586,38.6923838 58.1480591,38.8123844 C58.2590597,38.932385 58.3445588,39.0733836 58.4045591,39.2353844 C58.4645594,39.3973852 58.4945591,39.5863833 58.4945591,39.8023844 L58.4945591,39.8203844 C58.4945591,40.1023858 58.4390597,40.3513833 58.3280591,40.5673844 C58.2170586,40.7833855 58.0595602,40.9633837 57.8555591,41.1073844 C57.6515581,41.2513851 57.4055606,41.360884 57.1175591,41.4358844 C56.8295577,41.5108848 56.5115609,41.5483844 56.1635591,41.5483844 L53.2475591,41.5483844 L53.2475591,35.2483844 Z M59.3765591,40.6753844 L61.5455591,38.8303844 C61.7615602,38.6503835 61.9445584,38.4868851 62.0945591,38.3398844 C62.2445599,38.1928836 62.3660587,38.053385 62.4590591,37.9213844 C62.5520596,37.7893837 62.6195589,37.660385 62.6615591,37.5343844 C62.7035594,37.4083837 62.7245591,37.2733851 62.7245591,37.1293844 C62.7245591,36.8173828 62.6270601,36.5758852 62.4320591,36.4048844 C62.2370582,36.2338835 61.9955606,36.1483844 61.7075591,36.1483844 C61.4195577,36.1483844 61.1660602,36.2263836 60.9470591,36.3823844 C60.7280581,36.5383852 60.4955604,36.7753828 60.2495591,37.0933844 L59.4665591,36.4813844 C59.6165599,36.2713833 59.7695584,36.0838852 59.9255591,35.9188844 C60.0815599,35.7538836 60.2510582,35.6158849 60.4340591,35.5048844 C60.6170601,35.3938838 60.8180581,35.3083847 61.0370591,35.2483844 C61.2560602,35.1883841 61.5065577,35.1583844 61.7885591,35.1583844 C62.0945607,35.1583844 62.3750579,35.2033839 62.6300591,35.2933844 C62.8850604,35.3833848 63.1040582,35.5108836 63.2870591,35.6758844 C63.4700601,35.8408852 63.6125586,36.0388832 63.7145591,36.2698844 C63.8165597,36.5008855 63.8675591,36.757383 63.8675591,37.0393844 L63.8675591,37.0573844 C63.8675591,37.3033856 63.8345595,37.5268834 63.7685591,37.7278844 C63.7025588,37.9288854 63.6020598,38.1223834 63.4670591,38.3083844 C63.3320585,38.4943853 63.1610602,38.6818834 62.9540591,38.8708844 C62.7470581,39.0598853 62.5055605,39.2683832 62.2295591,39.4963844 L60.9335591,40.5763844 L63.9305591,40.5763844 L63.9305591,41.5483844 L59.3765591,41.5483844 L59.3765591,40.6753844 Z M68.1875591,40.5673844 C68.565561,40.5673844 68.8625581,40.4953851 69.0785591,40.3513844 C69.2945602,40.2073837 69.4025591,39.9913858 69.4025591,39.7033844 L69.4025591,39.6853844 C69.4025591,39.415383 69.2960602,39.2068851 69.0830591,39.0598844 C68.8700581,38.9128836 68.5445613,38.8393844 68.1065591,38.8393844 L66.3515591,38.8393844 L66.3515591,40.5673844 L68.1875591,40.5673844 Z M67.8635591,37.9033844 C68.2235609,37.9033844 68.5115581,37.8328851 68.7275591,37.6918844 C68.9435602,37.5508837 69.0515591,37.3363858 69.0515591,37.0483844 L69.0515591,37.0303844 C69.0515591,36.7783831 68.9570601,36.5818851 68.7680591,36.4408844 C68.5790582,36.2998837 68.3045609,36.2293844 67.9445591,36.2293844 L66.3515591,36.2293844 L66.3515591,37.9033844 L67.8635591,37.9033844 Z M65.2625591,35.2483844 L68.0885591,35.2483844 C68.8145628,35.2483844 69.3635573,35.4343825 69.7355591,35.8063844 C70.0175606,36.0883858 70.1585591,36.4363823 70.1585591,36.8503844 L70.1585591,36.8683844 C70.1585591,37.0603853 70.1330594,37.2298836 70.0820591,37.3768844 C70.0310589,37.5238851 69.9650596,37.6528838 69.8840591,37.7638844 C69.8030587,37.8748849 69.7070597,37.972384 69.5960591,38.0563844 C69.4850586,38.1403848 69.3725597,38.2123841 69.2585591,38.2723844 C69.4445601,38.3383847 69.6140584,38.4148839 69.7670591,38.5018844 C69.9200599,38.5888848 70.0520586,38.6923838 70.1630591,38.8123844 C70.2740597,38.932385 70.3595588,39.0733836 70.4195591,39.2353844 C70.4795594,39.3973852 70.5095591,39.5863833 70.5095591,39.8023844 L70.5095591,39.8203844 C70.5095591,40.1023858 70.4540597,40.3513833 70.3430591,40.5673844 C70.2320586,40.7833855 70.0745602,40.9633837 69.8705591,41.1073844 C69.6665581,41.2513851 69.4205606,41.360884 69.1325591,41.4358844 C68.8445577,41.5108848 68.5265609,41.5483844 68.1785591,41.5483844 L65.2625591,41.5483844 L65.2625591,35.2483844 Z" id="B2B" fill="#0083FF" fill-rule="nonzero" transform="translate(61.878559, 38.353384) rotate(-308.000000) translate(-61.878559, -38.353384) "></path>
                    </g>
                    <g id="ARROW-Copy-4" transform="translate(339.200914, 213.200914) scale(-1, 1) rotate(-51.000000) translate(-339.200914, -213.200914) translate(277.200914, 151.200914)">
                        <g id="Group-11" transform="translate(61.702900, 61.826389) rotate(-315.000000) translate(-61.702900, -61.826389) translate(18.202900, 18.326389)">
                            <path d="M82.7941176,82.7941176 C82.7941176,38.9849421 47.2797638,3.47058824 3.47058824,3.47058824" id="Oval-6" stroke="#0083FF" transform="translate(43.132353, 43.132353) rotate(-90.000000) translate(-43.132353, -43.132353) "></path>
                            <polygon id="Triangle" fill="#0083FF" transform="translate(3.500000, 83.058824) rotate(-360.000000) translate(-3.500000, -83.058824) " points="3.5 86.0588235 0.5 80.0588235 6.5 80.0588235"></polygon>
                            <polygon id="Triangle-Copy" fill="#0083FF" transform="translate(83.494748, 3.470588) rotate(-90.000000) translate(-83.494748, -3.470588) " points="83.4947476 6.47058824 80.4947476 0.470588235 86.4947476 0.470588235"></polygon>
                        </g>
                    </g>
                </g>
            </g>
        </g>
    </g>
</svg>