<?xml version="1.0" encoding="utf-8"?>
<!-- Generator: Adobe Illustrator 23.0.2, SVG Export Plug-In . SVG Version: 6.00 Build 0)  -->
<svg version="1.1" id="Capa_1" xmlns="http://www.w3.org/2000/svg" xmlns:xlink="http://www.w3.org/1999/xlink" x="0px" y="0px"
	 viewBox="0 0 717 680" style="enable-background:new 0 0 717 680;" xml:space="preserve">
<style type="text/css">
	.st0{opacity:0.8253;clip-path:url(#SVGID_2_);}
	.st1{fill-rule:evenodd;clip-rule:evenodd;fill:#FDF5EC;}
</style>
<title>Fill 5</title>
<desc>Created with Sketch.</desc>
<g>
	<defs>
		<rect id="SVGID_1_" x="0.3" width="716.7" height="680"/>
	</defs>
	<clipPath id="SVGID_2_">
		<use xlink:href="#SVGID_1_"  style="overflow:visible;"/>
	</clipPath>
	<g id="Page-1" class="st0">
		<g transform="translate(-563.000000, 0.000000)">
			<g id="INTRO">
				<g id="_background_01">
					<path id="Fill-5" class="st1" d="M1451.5,500.9c-29.1,46.4-62.8,89-97.9,119.6c0.3-1,0.6-2.1,0.9-3.1c8.5-30,8-64.3-0.8-102.1
						c-13.7-58.8-47.7-126.8-98.8-200.6c-43.4-62.8-82.2-102.6-116.2-122c-13.9-7.9-27.4-12.7-40.2-14.3
						c8.5-64,89.8-95.5,160.4-122.9c41.1-15.9,79.1-30.7,103.5-51.2c25.7,31.2,53,67.8,83.8,109.3c30,40.3,63.2,84.9,99.1,130.5
						C1549.3,300.7,1510.1,407.5,1451.5,500.9L1451.5,500.9z M1308.9,525.7c7,30.2,7.7,56.7,1.3,79c-5.9,20.9-18.5,38.4-38.1,52
						c-15.8,10.9-36.1,19.4-61.1,25.3c-26,6.1-49.9,8.2-71.5,6.2c-29.2-2.7-54.1-13.2-73.5-31.9c-20.2-19.5-35.2-48.2-44.2-86.7
						c-9.8-42.1-12.3-95.6-6.3-161.2c6.5-71.5,18.8-124.8,37-156.4c8.5-14.8,17.7-24,27.7-27.1c9.6-3,21.6-0.5,36,7.7
						c27.9,15.9,61.5,51.2,100.9,108.2C1265,410.2,1296.6,472.9,1308.9,525.7L1308.9,525.7z M898,649.2
						c-97.4-51.6-184.8-124.4-209.9-175.5c8.3-57.5,14.7-112.7,20.6-162.6c6-51.3,11.3-96.7,18-136.5c31.4,5.6,71.8-0.6,115.3-7.4
						c74.9-11.6,161.1-24.9,200.4,26.4c-11.3,8.6-21.3,20.5-29.9,35.7c-21.5,37.6-35.8,97.2-42.9,175.2
						c-6.4,70.3-3.6,128.7,7.4,175.8c11.1,47.6,30.5,83.9,57,109.4c6.2,6,12.8,11.4,19.7,16.1C1005.2,698.1,950.4,676.9,898,649.2
						L898,649.2z M675.6,106.3c-9.8-6.1-19.7-13.7-28.7-22.1c-25.8-24.2-45.1-54.1-35.7-71.4L637-34.9c9.8-18.2,47.7-18.7,83.6-10.4
						c12.1,2.8,23.8,6.8,34.3,11.5c1.7,0.8,3.3,1.6,4.9,2.4c-35,36.6-54.9,84.4-68.7,145.9C686.1,112.3,680.9,109.6,675.6,106.3
						L675.6,106.3z M998.3-83.4l93.4-25c105.7-28.3,170.4,2.2,240.7,78c-17.5,14.7-52.2,28.2-90,42.9
						c-74.3,28.8-158.5,61.5-183.5,130.4c-56.1-47.2-145.3-33.4-224.1-21.2c-40,6.2-76.8,11.9-99.4,7.9
						C758.5,28.8,799.2-30,904.9-58.3L998.3-83.4z M1234-162.1c6.7-9.4,14.9-18.7,24-27.1c26.9-25.2,60-43.6,77.6-32.8l46.1,28.4
						c16.8,10.4,15.1,45.9,4.8,79.7c-3.6,11.9-8.3,23.3-13.8,33.5c-2.9,5.4-6.1,10.4-9.3,14.9c-42.7-46.4-83.8-77.9-132.4-92.1
						C1231.9-159.1,1232.9-160.6,1234-162.1L1234-162.1z M1585.8,220.6c-40.2-50.9-73-94.9-102.5-134.6
						c-32.7-43.9-61.6-82.7-89.2-116.1c7-8.3,13.5-17.9,19.2-28.5c7-12.9,12.9-27.3,17.3-41.9c15.6-51.6,12.9-109.1-24.7-132.3
						l-46.1-28.4c-38.1-23.5-93,0.7-133.2,38.4c-11.3,10.6-21.6,22.2-30,34c-5.4,7.6-10.2,15.4-13.9,23.1
						c-30.5-1.7-64.2,2.3-102.8,12.7l-93.4,25l-93.4,25c-38.6,10.4-69.8,23.7-95.4,40.4c-7.1-4.8-15.1-9.2-23.7-13.1
						c-13.2-6-27.9-10.9-43-14.5c-53.7-12.5-113.3-6-134.6,33.4L570.7-9c-21,38.9,5.4,90,44.8,126.9c11.2,10.5,23.5,19.9,36,27.6
						c10.2,6.3,20.7,11.4,30.8,15.1c-7.2,42.7-12.8,90.8-19.2,145.2c-5.7,49.2-12.1,103.7-21.5,167.8l1.6,12.1
						c24.9,60.2,124,146.3,233.3,204.2c91.7,48.6,192.1,78.4,265.1,58.8l74.4-19.9l74.4-19.9c73-19.6,145-95.6,200.2-183.5
						c65.7-104.8,108.5-228.9,100-293.5L1585.8,220.6z"/>
				</g>
			</g>
		</g>
	</g>
</g>
</svg>
