<?xml version="1.0" encoding="UTF-8"?>
<svg width="182px" height="192px" viewBox="0 0 182 192" version="1.1" xmlns="http://www.w3.org/2000/svg" xmlns:xlink="http://www.w3.org/1999/xlink">
    <!-- Generator: Sketch 56.2 (81672) - https://sketch.com -->
    <title>_iconSETTINGS</title>
    <desc>Created with Sketch.</desc>
    <g id="Page-1" stroke="none" stroke-width="1" fill="none" fill-rule="evenodd" opacity="0.375446429">
        <g id="01_LANDING_PAGE_desktop" transform="translate(-31.000000, -1029.000000)" fill="#0083FF" fill-rule="nonzero">
            <g id="DASHBOARD" transform="translate(0.000000, 951.000000)">
                <g id="_iconSETTINGS" transform="translate(118.000000, 180.000000) rotate(16.000000) translate(-118.000000, -180.000000) translate(33.000000, 70.000000)">
                    <path d="M167.222651,57.2654762 C166.176497,56.597619 157.924959,51.6607143 154.655728,50.1547619 L150.601882,40.3333333 C151.804959,37.0857143 154.119574,27.9845238 154.524959,26.4 C154.855031,24.934214 154.410634,23.4013723 153.348036,22.3404762 L146.95342,15.9761905 C145.896642,14.9076597 144.363463,14.4619198 142.899574,14.797619 C141.696497,15.072619 132.438036,17.4166667 128.985728,18.7261905 L119.178036,14.6666667 C117.752651,11.5238095 112.95342,3.4702381 112.077267,2.08214286 C111.289693,0.790334852 109.887912,0.00165871067 108.376497,0 L99.3795743,0 C97.8778725,0 96.4812068,0.771725102 95.6788051,2.04285714 C95.011882,3.09047619 90.081882,11.3535714 88.5780358,14.627381 L78.7703435,18.6869048 C75.5272666,17.4821429 66.4388051,15.1642857 64.8564974,14.7583333 C63.3927614,14.4277993 61.8620635,14.8728179 60.8026512,15.9369048 L54.4472666,22.3404762 C53.3802302,23.3987352 52.9351138,24.9340613 53.2703435,26.4 C53.5449589,27.6047619 55.8857281,36.8761905 57.1934204,40.3333333 L53.1395743,50.1547619 C50.0011128,51.5821429 41.9588051,56.3880952 40.5726512,57.2654762 C39.2826499,58.0541531 38.4950768,59.4578974 38.4934204,60.9714286 L38.4934204,69.9678571 C38.4934204,71.4716621 39.2640662,72.870284 40.5334204,73.6738095 C41.5795743,74.3416667 49.8311128,79.2785714 53.1003435,80.7845238 L57.1541897,90.6059524 C55.9511128,93.8535714 53.6364974,102.954762 53.2311128,104.539286 C52.901041,106.005072 53.3454372,107.537913 54.4080358,108.59881 L60.7634204,114.963095 C61.8201994,116.031626 63.3533782,116.477366 64.8172666,116.141667 C66.0203435,115.866667 75.2788051,113.522619 78.7311128,112.213095 L88.5388051,116.272619 C89.9641897,119.415476 94.7634204,127.469048 95.6395743,128.857143 C96.4311754,130.16597 97.8515736,130.961711 99.3795743,130.952462 L108.36342,130.952462 C109.865122,130.952462 111.261788,130.180656 112.06419,128.909524 C112.731113,127.861905 117.661113,119.59881 119.164959,116.325 L128.972651,112.265476 C132.215728,113.470238 141.30419,115.788095 142.886497,116.194048 C144.350233,116.524582 145.880931,116.079563 146.940344,115.015476 L153.295728,108.65119 C154.362765,107.592931 154.807881,106.057605 154.472651,104.591667 C154.198036,103.386905 151.857267,94.1154762 150.549574,90.6583333 L154.60342,80.8369048 C157.741882,79.4095238 165.78419,74.6035714 167.170344,73.7261905 C168.47734,72.9334807 169.271969,71.5110931 169.262785,69.9809524 L169.262785,60.9714286 C169.274481,59.4644056 168.50144,58.0600663 167.222651,57.2654762 Z M103.878036,93.9845238 C88.1409041,93.9700526 75.3951517,81.1829901 75.409586,65.4238176 C75.4240449,49.664645 88.1932197,36.9010379 103.930352,36.915488 C119.667483,36.9299626 132.413243,49.7170179 132.398817,65.4761905 C132.362766,81.2263835 119.60624,93.9773469 103.878036,93.9845238 L103.878036,93.9845238 Z" id="Shape" opacity="0.182142857"></path>
                    <path d="M104.305224,155.514296 C103.548568,155.031253 97.5804471,151.460519 95.2158983,150.371304 L92.2838579,143.267722 C93.1540119,140.918805 94.8281124,134.336153 95.1213164,133.190108 C95.3600486,132.129944 95.0386286,131.02128 94.2700789,130.253962 L89.6450216,125.650841 C88.8806811,124.878001 87.7717732,124.555609 86.7129812,124.798411 C85.8428272,124.997311 79.1464253,126.6927 76.6494618,127.639844 L69.5558157,124.703697 C68.5248724,122.430551 65.0537149,116.605614 64.4200159,115.601641 C63.8503844,114.667311 62.836513,114.096882 61.7433467,114.095682 L55.2361087,114.095682 C54.1499672,114.095682 53.1397956,114.653851 52.5594395,115.573227 C52.0770716,116.330942 48.5113321,122.307422 47.4236397,124.675282 L40.3299936,127.611429 C37.9843612,126.740057 31.4109158,125.063612 30.2664742,124.769997 C29.2077925,124.53093 28.1006789,124.852801 27.3344338,125.622427 L22.7377511,130.253962 C21.9659918,131.019373 21.6440508,132.129834 21.8865136,133.190108 C22.0851357,134.061481 23.7781526,140.767262 24.723972,143.267722 L21.7919316,150.371304 C19.5219649,151.403691 13.705175,154.87971 12.7026064,155.514296 C11.7695824,156.084726 11.1999514,157.100017 11.1987534,158.194714 L11.1987534,164.701595 C11.1987534,165.789257 11.7561412,166.800844 12.6742318,167.382013 C13.4308874,167.865056 19.3990083,171.43579 21.7635571,172.525006 L24.6955975,179.628587 C23.8254435,181.977504 22.151343,188.560156 21.858139,189.706201 C21.6194068,190.766365 21.9408269,191.875029 22.7093765,192.642348 L27.3060592,197.245468 C28.0703997,198.018309 29.1793076,198.3407 30.2380997,198.097898 C31.1082536,197.898998 37.8046555,196.20361 40.301619,195.256466 L47.3952651,198.192612 C48.4262084,200.465758 51.8973659,206.290695 52.5310649,207.294668 C53.1036092,208.241308 54.130946,208.816847 55.2361087,208.810157 L61.7338885,208.810157 C62.82003,208.810157 63.8302016,208.25193 64.4105577,207.332554 C64.8929256,206.574838 68.4586651,200.598359 69.5463575,198.230498 L76.6400036,195.294351 C78.985636,196.165724 85.5590814,197.842169 86.703523,198.135784 C87.7622047,198.37485 88.8693183,198.05298 89.6355634,197.283354 L94.2322461,192.680233 C95.0040054,191.914822 95.3259465,190.804361 95.0834836,189.744086 C94.8848615,188.872714 93.1918446,182.166933 92.2460252,179.666473 L95.1780656,172.562891 C97.4480323,171.530504 103.264822,168.054485 104.267391,167.419899 C105.212707,166.846552 105.787441,165.817777 105.780799,164.711066 L105.780799,158.194714 C105.789258,157.104724 105.230138,156.089003 104.305224,155.514296 Z M58.4897277,182.072219 C47.1074738,182.061752 37.888806,172.813206 37.899246,161.41501 C37.9097037,150.016815 47.1453123,140.785233 58.5275663,140.795685 C69.9098202,140.806154 79.1284931,150.054695 79.1180596,161.45289 C79.0919845,172.844591 69.8655247,182.067028 58.4897277,182.072219 L58.4897277,182.072219 Z" id="Shape-Copy" opacity="0.182142857" transform="translate(58.489776, 161.452920) rotate(-15.000000) translate(-58.489776, -161.452920) "></path>
                </g>
            </g>
        </g>
    </g>
</svg>