<?xml version="1.0" encoding="UTF-8"?>
<svg width="121px" height="95px" viewBox="0 0 121 95" version="1.1" xmlns="http://www.w3.org/2000/svg" xmlns:xlink="http://www.w3.org/1999/xlink">
    <!-- Generator: Sketch 56.2 (81672) - https://sketch.com -->
    <title>_iconSHOP</title>
    <desc>Created with Sketch.</desc>
    <g id="Page-1" stroke="none" stroke-width="1" fill="none" fill-rule="evenodd">
        <g id="01_LANDING_PAGE_desktop" transform="translate(-810.000000, -1622.000000)" fill="#FFFFFF" fill-rule="nonzero">
            <g id="ESHOP-B2B" transform="translate(0.000000, 1496.000000)">
                <g id="_iconSHOP" transform="translate(879.000000, 174.000000) rotate(-18.000000) translate(-879.000000, -174.000000) translate(820.000000, 129.000000)">
                    <path d="M3.8435095,0 C1.7207392,0 0,1.77106147 0,3.95576399 C0,6.14046651 1.7207392,7.91152798 3.8435095,7.91152798 L19.1775751,7.91152798 C25.5388396,24.1268507 31.8046569,40.3718548 38.1148027,56.6168457 L32.3095659,70.9976301 C31.8232338,72.1966222 31.9600628,73.6423221 32.6620157,74.7221138 C33.3640968,75.8019055 34.6104188,76.4834836 35.8727554,76.4784063 L99.9312471,76.4784063 C101.961773,76.5070864 103.829463,74.6124073 103.829463,72.5223134 C103.829463,70.4322196 101.961773,68.5370131 99.9312471,68.5665495 L41.6380197,68.5665495 L44.961118,60.4077862 L106.657389,55.3393977 C108.272303,55.2088575 109.734118,53.9141359 110.100533,52.2901629 L117.787552,18.0069673 C118.290283,15.6978165 116.323303,13.1781662 114.024115,13.18588 L29.5068788,13.18588 L25.3430768,2.47235249 C24.7729563,1.02214304 23.2998672,0 21.7798873,0 L3.8435095,0 Z M32.5897578,21.0974079 L56.3714728,21.0974079 L56.3714728,32.9646999 L37.1938978,32.9646999 L32.5897578,21.0974079 Z M64.0584918,21.0974079 L79.4325298,21.0974079 L79.4325298,32.9646999 L64.0584918,32.9646999 L64.0584918,21.0974079 Z M87.1195488,21.0974079 L109.179756,21.0974079 L106.537215,32.9646999 L87.1195488,32.9646999 L87.1195488,21.0974079 Z M40.2767768,40.8762279 L56.3714728,40.8762279 L56.3714728,51.5484572 L44.8009718,52.4962582 L40.2767768,40.8762279 Z M64.0584918,40.8762279 L79.4325298,40.8762279 L79.4325298,49.6530397 L64.0584918,50.9304877 L64.0584918,40.8762279 Z M87.1195488,40.8762279 L104.735634,40.8762279 L103.214245,47.7164295 L87.1195488,49.0350175 L87.1195488,40.8762279 Z" id="Shape"></path>
                    <path d="M44.0875519,76.4784063 C40.6315287,76.4784063 37.7893302,79.3205418 37.7893302,82.776628 C37.7893302,86.2326512 40.6315287,89.0748497 44.0875519,89.0748497 C47.543575,89.0748497 50.3857735,86.2326512 50.3857735,82.776628 C50.3857735,79.3206048 47.543575,76.4784063 44.0875519,76.4784063 L44.0875519,76.4784063 Z" id="Path"></path>
                    <path d="M90.8743416,76.4784063 C87.4183184,76.4784063 84.5761199,79.3206048 84.5761199,82.776628 C84.5761199,86.2326512 87.4183184,89.0748497 90.8743416,89.0748497 C94.3303648,89.0748497 97.1725633,86.2326512 97.1725633,82.776628 C97.1725633,79.3205418 94.3303648,76.4784063 90.8743416,76.4784063 L90.8743416,76.4784063 Z" id="Path"></path>
                </g>
            </g>
        </g>
    </g>
</svg>