<?xml version="1.0" encoding="UTF-8"?>
<svg width="14px" height="14px" viewBox="0 0 14 14" version="1.1" xmlns="http://www.w3.org/2000/svg" xmlns:xlink="http://www.w3.org/1999/xlink">
    <!-- Generator: Sketch 56.2 (81672) - https://sketch.com -->
    <title>Shape</title>
    <desc>Created with Sketch.</desc>
    <g id="Page-1" stroke="none" stroke-width="1" fill="none" fill-rule="evenodd">
        <g id="01_LANDING_PAGE_desktop" transform="translate(-310.000000, -3493.000000)" fill="#FFFFFF">
            <g id="FOOTER" transform="translate(0.000000, 3410.000000)">
                <g id="linkedin" transform="translate(302.000000, 76.000000)">
                    <path d="M8.52577397,11.6720423 L11.1836141,11.6720423 L11.1836141,20.9349558 L8.52577397,20.9349558 L8.52577397,11.6720423 Z M9.78694518,10.5134142 L9.7677029,10.5134142 C8.80558881,10.5134142 8.18181818,9.80531513 8.18181818,8.90862251 C8.18181818,7.99359439 8.82402933,7.29946524 9.8053857,7.29946524 C10.7859403,7.29946524 11.3888651,7.99184816 11.4081074,8.90600315 C11.4081074,9.80269578 10.7859403,10.5134142 9.78694518,10.5134142 L9.78694518,10.5134142 Z M21.8181818,20.9358289 L18.8043594,20.9358289 L18.8043594,16.1415356 C18.8043594,14.8868644 18.3329235,14.0312083 17.2962456,14.0312083 C16.5033033,14.0312083 16.0623343,14.6083396 15.8570833,15.1662623 C15.7801142,15.3653333 15.7921406,15.6438581 15.7921406,15.923256 L15.7921406,20.9358289 L12.8063799,20.9358289 C12.8063799,20.9358289 12.8448644,12.443879 12.8063799,11.6720423 L15.7921406,11.6720423 L15.7921406,13.1257845 C15.9685282,12.4901543 16.9226246,11.5829843 18.4451702,11.5829843 C20.3341208,11.5829843 21.8181818,12.9162361 21.8181818,15.7844301 L21.8181818,20.9358289 L21.8181818,20.9358289 Z" id="Shape"></path>
                </g>
            </g>
        </g>
    </g>
</svg>