<?xml version="1.0" encoding="UTF-8"?>
<svg width="42px" height="42px" viewBox="0 0 42 42" version="1.1" xmlns="http://www.w3.org/2000/svg" xmlns:xlink="http://www.w3.org/1999/xlink">
    <!-- Generator: Sketch 56.2 (81672) - https://sketch.com -->
    <title>KMO</title>
    <desc>Created with Sketch.</desc>
    <g id="Page-1" stroke="none" stroke-width="1" fill="none" fill-rule="evenodd">
        <g id="01_LANDING_PAGE_desktop" transform="translate(-836.000000, -3499.000000)" fill="#FFFFFF" fill-rule="nonzero">
            <g id="KMO" transform="translate(837.000000, 3500.000000)">
                <path d="M0,0 L40,0 L40,40 L0,40 L0,0 Z M0.498,0.482 C0.462,13.424 0.494,26.57 0.482,39.534 C13.504,39.534 26.528,39.534 39.55,39.534 C39.55,26.512 39.55,13.488 39.55,0.466 C26.586,0.476 13.438,0.444 0.498,0.482 Z" id="Combined-Shape" stroke="#FFFFFF" stroke-width="0.3"></path>
                <path d="M9.3,15.91 C9.344,17.24 9.3,18.574 9.322,19.906 C11.006,18.598 12.674,17.254 14.358,15.95 C14.704,15.662 14.966,15.804 15.356,15.884 C15.348,16.028 15.338,16.172 15.33,16.314 C14.05,17.348 12.736,18.342 11.448,19.368 C12.752,20.658 14.056,21.962 15.352,23.262 C15.578,23.462 15.538,23.688 15.576,23.962 C15.262,23.934 14.828,24.068 14.604,23.806 C13.308,22.57 12.078,21.246 10.76,20.034 C10.252,20.144 9.762,20.75 9.322,21.042 C9.314,21.998 9.324,22.954 9.306,23.908 C9.032,23.936 8.758,23.96 8.484,23.986 C8.428,23.66 8.372,23.334 8.368,23.002 C8.374,20.934 8.378,18.866 8.366,16.8 C8.378,16.512 8.352,16.154 8.49,15.894 C8.8,15.662 8.978,15.814 9.3,15.91 Z" id="Shape"></path>
                <path d="M17.138,15.864 C18.242,18.118 19.344,20.372 20.43,22.636 C21.554,20.396 22.624,18.128 23.732,15.88 C23.892,15.832 24.052,15.784 24.212,15.736 C24.372,15.802 24.532,15.868 24.692,15.934 C24.714,18.594 24.71,21.256 24.692,23.916 C24.364,23.96 24.076,23.96 23.752,23.886 C23.77,21.888 23.78,19.884 23.744,17.886 C22.778,19.922 21.784,21.948 20.788,23.97 C20.552,23.96 20.316,23.954 20.08,23.952 C19.098,21.922 18.102,19.898 17.126,17.866 C17.088,19.874 17.12,21.884 17.108,23.892 C16.822,23.928 16.536,23.962 16.25,23.996 C16.198,23.598 16.156,23.2 16.16,22.798 C16.178,20.512 16.158,18.224 16.17,15.938 C16.534,15.748 16.744,15.742 17.138,15.864 Z" id="Shape"></path>
                <path d="M30.764,16.732 C31.034,16.394 31.17,16.05 31.642,15.978 C31.49,16.372 31.262,16.706 31.002,17.036 C31.686,18.408 31.472,19.726 31.48,21.204 C31.442,22.286 30.92,23.394 29.896,23.862 C28.698,24.372 27.278,24.176 26.344,23.236 C26.124,23.488 25.912,23.93 25.566,24.008 C25.292,23.74 25.974,23.212 26.1,22.95 C25.448,21.732 25.57,20.524 25.578,19.192 C25.604,18.3 25.756,17.46 26.378,16.78 C27.478,15.518 29.596,15.59 30.764,16.732 Z M30.182,17.556 C29.534,16.592 28.068,16.484 27.206,17.206 C26.7,17.67 26.494,18.326 26.496,19 C26.5,20.03 26.43,21.054 26.62,22.038 C27.136,21.734 27.368,21.222 27.75,20.75 C28.564,19.688 29.336,18.592 30.182,17.556 Z M30.476,18.002 C30.176,18.048 30.064,18.274 29.886,18.49 C28.9,19.832 27.886,21.154 26.892,22.49 C27.678,23.37 29.036,23.544 29.934,22.736 C30.556,22.156 30.592,21.404 30.622,20.606 C30.616,19.738 30.59,18.864 30.476,18.002 Z" id="Combined-Shape"></path>
            </g>
        </g>
    </g>
</svg>