<?xml version="1.0" encoding="UTF-8"?>
<svg width="63px" height="27px" viewBox="0 0 63 27" version="1.1" xmlns="http://www.w3.org/2000/svg" xmlns:xlink="http://www.w3.org/1999/xlink">
    <!-- Generator: Sketch 56.2 (81672) - https://sketch.com -->
    <title>SEMIA</title>
    <desc>Created with Sketch.</desc>
    <g id="Page-1" stroke="none" stroke-width="1" fill="none" fill-rule="evenodd">
        <g id="01_LANDING_PAGE_desktop" transform="translate(-890.000000, -3507.000000)" fill="#FFFFFF" fill-rule="nonzero">
            <g id="SEMIA" transform="translate(890.000000, 3507.000000)">
                <path d="M48.0951419,0 L48.4730541,0 C48.9472496,0.0585723759 49.3845365,0.288850073 49.6533276,0.68962955 C49.9987441,1.20273961 49.9927264,1.8811361 49.7271448,2.42714298 C49.3496338,3.21185234 48.4361455,3.67441364 47.5800259,3.51955791 C47.1627981,3.44533948 46.7760599,3.20061928 46.5473869,2.84116141 C46.3552214,2.54789835 46.2777935,2.19806882 46.3014632,1.84944283 C46.3203187,1.34756583 46.5690507,0.858125426 46.9389392,0.522337216 C47.2586802,0.228271794 47.6658786,0.056165292 48.0951419,0 Z" id="Shape"></path>
                <path d="M5.21534854,3.23271374 C5.93426428,3.20703817 6.6680237,3.27804715 7.3608627,3.47703276 C8.15078741,3.70369983 8.87772676,4.11932299 9.44138559,4.72149515 C9.9990267,5.32527204 10.3917826,6.09273064 10.5418241,6.90151085 C9.71458961,7.14743459 8.89176809,7.40780083 8.06453357,7.65412576 C7.94297583,6.96810683 7.52975975,6.34146265 6.91595335,6.00086027 C6.39120905,5.70318422 5.76777431,5.62856462 5.17402694,5.67951456 C4.57787248,5.73969166 3.97489795,6.01088979 3.60902119,6.49832428 C3.30693216,6.89067897 3.19219449,7.41502209 3.33621834,7.89322943 C3.44253122,8.28959592 3.7249624,8.60372037 4.08201319,8.79628709 C4.52491663,9.04261201 5.04645149,9.07992181 5.53789779,9.18703705 C6.31418236,9.34791049 7.15184758,9.44900802 7.88279873,9.7334451 C8.67111872,10.0287141 9.4285478,10.5233698 9.94205905,11.1981557 C10.3632987,11.738546 10.6320898,12.3976858 10.7123259,13.0776871 C10.821447,13.9117416 10.6549571,14.771873 10.2553811,15.5108477 C9.8766666,16.2141174 9.30057117,16.7946259 8.61535461,17.2018242 C7.82382518,17.6732115 6.90672619,17.907501 5.99042957,17.9508285 C5.18124819,17.9845277 4.36765381,17.9131175 3.58936334,17.6820375 C2.72241194,17.4272877 1.92245771,16.9711453 1.29982533,16.3116043 C0.580508411,15.5662107 0.111127042,14.5628579 0.000401180657,13.5326259 C0.850502993,13.3051565 1.70301189,13.0837048 2.55271252,12.8542294 C2.58320225,13.0267371 2.59563885,13.1992448 2.64297817,13.3689442 C2.77657133,13.8981015 3.04977536,14.389949 3.4573749,14.7566281 C3.90348779,15.1574076 4.46393717,15.3832723 5.0544751,15.4643108 C5.60248788,15.538128 6.19262462,15.522482 6.72097955,15.3467649 C7.09568228,15.2236024 7.45955314,14.9929235 7.68140604,14.6611471 C7.92452152,14.310114 8.00034467,13.8471516 7.90807311,13.4331331 C7.82823816,13.0720705 7.60277463,12.7659697 7.30830803,12.5485298 C6.97572927,12.302606 6.59179938,12.1710188 6.18941518,12.0919862 C5.52385647,11.958393 4.85709422,11.8235963 4.19193669,11.6883984 C3.25357513,11.4894128 2.32323719,11.0830168 1.63922417,10.3953932 C1.1241082,9.89351619 0.77548221,9.23758581 0.627446548,8.5347173 C0.477404982,7.79413781 0.513912422,7.0206615 0.766656236,6.30615875 C1.06673937,5.44602742 1.65045722,4.71989043 2.38742609,4.19233787 C3.21345706,3.60220112 4.20477447,3.28366368 5.21534854,3.23271374 Z" id="Shape"></path>
                <path d="M13.277475,3.52758152 C16.1940584,3.52076145 19.1122465,3.52838388 22.0292311,3.52397089 C22.0946235,3.5279827 22.1564053,3.50872603 22.1503876,3.59818931 C22.1507888,4.43745925 22.1503876,5.27873509 22.1503876,6.11800502 C20.1127911,6.12001093 18.0747933,6.11760384 16.0371968,6.11880738 C16.0343885,7.19196564 16.0416098,8.26552508 16.0339873,9.33868334 C16.1595569,9.35513174 16.2815158,9.35713765 16.4082889,9.35312584 C18.1277492,9.35312584 19.8472095,9.35272466 21.5670709,9.35352702 C21.5670709,10.1691273 21.5674721,10.9847276 21.5666698,11.8003278 C19.7236458,11.8003278 17.8802207,11.8003278 16.0371968,11.8003278 C16.0367956,12.888731 16.0371968,13.9771341 16.0367956,15.0655372 C18.0747933,15.0667408 20.1123899,15.0647349 22.1503876,15.0667408 C22.1507888,15.7948837 22.1503876,16.5226254 22.1503876,17.2507683 C22.1531959,17.3895768 22.1516032,17.5275829 22.1407593,17.6659902 C19.1896744,17.663182 16.2377871,17.6627808 13.2867022,17.6659902 C13.2650384,17.4738247 13.2758703,17.2828627 13.2738644,17.090296 C13.2738644,12.7306658 13.2738644,8.37143677 13.2738644,4.01180657 C13.273062,3.85053195 13.273062,3.68925732 13.277475,3.52758152 Z" id="Shape"></path>
                <path d="M25.0998678,3.52557562 C26.3122358,3.52477325 27.5246037,3.52477325 28.7365705,3.52557562 C30.1290685,6.86339868 31.5195607,10.2024253 32.9116576,13.5406495 C32.9373331,13.6032337 32.9618052,13.6666203 32.9854748,13.7300068 C33.392272,12.7559402 33.783022,11.7746523 34.1838014,10.7981786 C35.1674964,8.37584976 36.1584126,5.95432331 37.1392993,3.53119214 C37.3435003,3.51995909 37.5468989,3.52637798 37.7510998,3.52517443 C38.8001873,3.52557562 39.8496759,3.52477325 40.8987633,3.52557562 C40.8999208,8.23824479 40.9007692,12.9513152 40.8983621,17.6639843 C39.9932985,17.6639843 39.088235,17.6643855 38.1831714,17.6639843 C38.1811655,14.4372883 38.1831714,11.2101911 38.182369,7.98349508 C38.1815667,7.90767193 38.1795608,7.83184879 38.1775549,7.75602564 C37.9613185,8.31366676 37.7242207,8.86328426 37.4999607,9.41811711 C36.3682301,12.1662046 35.2405113,14.916298 34.1071759,17.6639843 C33.3425256,17.6643855 32.5774741,17.6643855 31.8124226,17.6639843 C30.5061784,14.5139138 29.2003353,11.3634421 27.8940911,8.21337159 C27.8411352,8.09141267 27.7921912,7.96865139 27.7500672,7.84227949 C27.7372295,8.02281078 27.7400377,8.20374326 27.7408401,8.38467573 C27.7400377,11.4777786 27.7420436,14.5708815 27.7396365,17.6639843 C26.8598474,17.6643855 25.9800582,17.6647867 25.0998678,17.6635832 C25.0986643,12.950914 25.0986643,8.23824479 25.0998678,3.52557562 Z" id="Shape"></path>
                <path d="M54.3844511,3.5259768 C55.4475798,3.52437207 56.5119121,3.52477325 57.5750408,3.5259768 C59.3703243,8.23904716 61.172829,12.9501116 62.9669089,17.6635832 C61.967969,17.6643855 60.9694304,17.6647867 59.9704905,17.6635832 C59.5745252,16.5868143 59.18538,15.5072371 58.7882111,14.4308694 C56.8717711,14.4328753 54.9553311,14.4288635 53.0392923,14.4328753 C52.6734156,15.4466588 52.2999164,16.4576341 51.9328361,17.4710164 C51.908364,17.5376124 51.879479,17.6022025 51.8513964,17.6671938 C50.8837487,17.6595713 49.9161009,17.667595 48.9488543,17.663182 C49.2569611,16.8279238 49.5863304,15.9986834 49.9032631,15.1662336 C51.3467111,11.4095779 52.7913627,7.65292222 54.2352119,3.89626654 C54.2833535,3.77149936 54.3250763,3.64633099 54.3844511,3.5259768 Z M55.9161588,6.58217104 C55.2650426,8.36100608 54.6091122,10.1390387 53.9628102,11.9198797 C55.2610308,11.9214844 56.5588502,11.920682 57.8570708,11.9202809 C57.8281858,11.7935078 57.7836548,11.6727524 57.7367166,11.5515958 C57.1301315,9.89512091 56.5223428,8.23904716 55.9161588,6.58217104 Z" id="Combined-Shape"></path>
                <path d="M48.819273,5.39828692 C48.806034,5.61492448 48.7430487,5.81671835 48.7029306,6.02854174 C47.9049823,9.76513838 47.1074351,13.501735 46.3086844,17.2379305 C46.281003,17.3835591 46.252118,17.5271817 46.2051798,17.6679961 C45.2375321,17.6599725 44.2698843,17.667595 43.3022366,17.6639843 C43.3840774,17.252373 43.4783549,16.8431687 43.5622017,16.4319585 C44.3521264,12.7575449 45.1280098,9.07350292 45.9239522,5.40069401 C46.8879893,5.39427512 47.8544335,5.39989165 48.819273,5.39828692 Z" id="Shape"></path>
                <path d="M11.609767,21.9317442 C11.813968,21.9160981 12.0221808,21.9297383 12.2271841,21.92693 C12.0133548,22.117892 11.7935078,22.3028363 11.5772714,22.4913912 C11.4264275,22.4929959 11.2759847,22.4929959 11.1251408,22.4917924 C11.2868166,22.3072493 11.436457,22.1050542 11.609767,21.9317442 Z" id="Shape"></path>
                <path d="M5.08897664,21.9285347 C5.29678822,21.9217146 5.50500098,21.9261276 5.71281256,21.9289359 C5.49577382,22.1142814 5.27672918,22.2984233 5.06530698,22.4905888 C4.91205597,22.4937983 4.75880496,22.4933971 4.60555394,22.4897865 C4.76843329,22.304441 4.92369021,22.1114731 5.08897664,21.9285347 Z" id="Shape"></path>
                <path d="M2.66704901,22.9675926 C2.91257157,23.1449145 3.08227099,23.3952512 3.18015907,23.6800895 C3.03934466,23.7418713 2.89772789,23.8028508 2.75611111,23.8630278 C2.69031749,23.7005497 2.62091323,23.5460951 2.49534369,23.4201244 C2.15514249,23.0522417 1.54976088,23.001693 1.11768931,23.225953 C0.843682922,23.365965 0.647906761,23.6179065 0.554431668,23.9087624 C0.437286916,24.2858723 0.450525878,24.7131297 0.606585154,25.0774017 C0.742986577,25.3931309 1.01859769,25.6382523 1.35478708,25.7200931 C1.70742488,25.8163765 2.14752006,25.7457687 2.41791582,25.4878095 C2.59002232,25.3261337 2.671462,25.115915 2.71318478,24.8872421 C2.32123128,24.8796196 1.92927778,24.8852362 1.53732428,24.8844338 C1.53331247,24.7420147 1.53331247,24.5999967 1.53491719,24.4575776 C2.07249927,24.4579788 2.61008136,24.4579788 3.14766344,24.4575776 C3.14926816,25.0096022 3.14766344,25.5616268 3.1484658,26.1140525 C3.02129153,26.1144537 2.89411726,26.1144537 2.76734417,26.1120466 C2.75410521,25.959598 2.74206979,25.8067481 2.73484854,25.6534971 C2.6028601,25.821993 2.45683034,25.9700287 2.25744356,26.0562825 C1.59750138,26.3579704 0.72653817,26.119669 0.318136261,25.5162933 C0.114336487,25.229048 0.0244720201,24.893661 0,24.5458373 L0,24.3027218 C0.0284838267,23.7936236 0.241510756,23.3089974 0.655128013,22.9992859 C1.23242698,22.5599931 2.0781158,22.5407364 2.66704901,22.9675926 Z" id="Shape"></path>
                <path d="M41.6634136,22.8460349 C41.9025173,22.9940705 42.0312963,23.2295636 42.1099277,23.4923369 C41.9695144,23.5509093 41.8258918,23.599051 41.6814667,23.6471927 C41.6381392,23.4020713 41.4728528,23.1938585 41.2345515,23.1148259 C40.9352707,23.0165367 40.5581609,23.083935 40.3844497,23.3683721 C40.2372164,23.6215171 40.3178537,23.9536947 40.5950695,24.0732465 C41.0038726,24.2244916 41.4335371,24.1883854 41.7966056,24.4776366 C42.1424233,24.7416135 42.223863,25.2370716 42.0244762,25.615385 C41.8266941,25.9876806 41.4114722,26.1842591 41.000262,26.1826544 C40.6444147,26.1987016 40.287364,26.0980053 40.0269977,25.846465 C39.8396463,25.6675384 39.734537,25.4324466 39.6871977,25.1801039 C39.8376404,25.1307587 39.9884844,25.084623 40.1389271,25.0360801 C40.1710216,25.2065819 40.216355,25.3654494 40.3351045,25.4974378 C40.5758128,25.7834797 41.0363682,25.8296154 41.3621269,25.6759632 C41.5490771,25.5913141 41.6658207,25.3963403 41.65539,25.1917382 C41.6397439,24.991549 41.5009354,24.8278673 41.3192006,24.7524454 C41.0191175,24.6397136 40.6660785,24.6324923 40.3752225,24.4972945 C40.1056291,24.3717249 39.8897939,24.1310165 39.8512806,23.8289275 C39.8372393,23.665647 39.834431,23.4871216 39.9030329,23.3346729 C40.0097469,23.0714984 40.227588,22.8636868 40.4887566,22.7553681 C40.8598488,22.5960993 41.3204041,22.6350139 41.6634136,22.8460349 Z" id="Shape"></path>
                <path d="M62.3338458,22.7605834 C62.6491738,22.8877577 62.8726314,23.1729971 62.9380239,23.5047735 C62.7980118,23.5476999 62.6612092,23.5958415 62.5248078,23.6500009 C62.4678401,23.4449976 62.3679461,23.2668734 62.1761818,23.1625664 C61.8865294,23.0049024 61.4428235,23.0482299 61.2430356,23.3310623 C61.1423392,23.4630507 61.1363215,23.6211159 61.1644042,23.7787799 C61.2073305,23.9284203 61.3308941,24.0443615 61.4777263,24.0925032 C61.7733964,24.1883854 62.1232259,24.2060373 62.40325,24.3388281 C62.6046427,24.4306985 62.778354,24.5811412 62.8770444,24.7809292 C63.0262836,25.0910418 62.9837585,25.4741694 62.7755457,25.7469722 C62.5508845,26.0482589 62.1497039,26.1974981 61.7818212,26.1830556 C61.5274727,26.190678 61.2771359,26.1276927 61.0576901,25.9989137 C60.7676365,25.8227954 60.5658426,25.5158922 60.5329458,25.1764933 C60.6809815,25.129154 60.8290171,25.0806111 60.9786575,25.038086 C61.0023272,25.2150067 61.0584925,25.3798919 61.1816549,25.5130839 C61.4167468,25.7690372 61.8175263,25.8179812 62.1340578,25.7032435 C62.3318399,25.6322345 62.4895039,25.453308 62.4862944,25.2358681 C62.4967251,25.0112069 62.3462824,24.827065 62.1428838,24.7492359 C61.7693846,24.6124333 61.3493485,24.6340971 61.0211827,24.3853651 C60.7235066,24.1699311 60.6083678,23.7803846 60.7046511,23.4309563 C60.8057487,23.0650795 61.1274956,22.7878637 61.4913664,22.6988016 C61.765774,22.6217749 62.0710725,22.6570788 62.3338458,22.7605834 Z" id="Shape"></path>
                <path d="M3.91472085,22.7312972 C4.60354804,22.7304949 5.29237523,22.7296925 5.98120242,22.7316984 C5.98120242,22.8761234 5.98120242,23.0209496 5.98120242,23.1653747 C5.44963805,23.168183 4.91847486,23.1657759 4.38691049,23.1665782 C4.38691049,23.5135995 4.38490458,23.8606208 4.38811403,24.207642 C4.86872846,24.2072409 5.34934288,24.2068397 5.82995731,24.207642 C5.82995731,24.3532706 5.82995731,24.4993004 5.82995731,24.6453301 C5.3489417,24.6457313 4.86792609,24.644929 4.38691049,24.6453301 C4.38731167,24.991549 4.38370104,25.3377679 4.38931757,25.6835857 C4.9196784,25.6839869 5.45044041,25.6811786 5.98120242,25.6847892 C5.98120242,25.8272083 5.98120242,25.9700287 5.98120242,26.1124478 C5.29237523,26.1156572 4.60274568,26.1152561 3.91391849,26.1124478 C3.91592439,24.9855313 3.91472085,23.8582137 3.91472085,22.7312972 Z" id="Shape"></path>
                <path d="M6.74384685,22.730896 C6.95366433,22.730896 7.16308063,22.7292913 7.37289812,22.7325008 C7.92813215,23.5970451 8.49700632,24.4527634 9.05304271,25.3165054 C9.05986278,24.4551705 9.05384507,23.5934344 9.05625215,22.7316984 C9.21391615,22.7304949 9.37158015,22.7304949 9.52924415,22.7304949 C9.52964533,23.8582137 9.52884297,24.9863337 9.52964533,26.1140525 C9.36596362,26.1144537 9.20188073,26.1148549 9.03819903,26.1132502 C8.42920679,25.1985583 7.82663344,24.278651 7.21082113,23.3683721 C7.20680933,24.2834652 7.20961759,25.1985583 7.20961759,26.1140525 C7.05436068,26.1144537 6.89910376,26.1144537 6.74344567,26.1140525 C6.74424803,24.9863337 6.74384685,23.8586149 6.74384685,22.730896 Z" id="Shape"></path>
                <path d="M10.4387207,22.730896 C11.1247396,22.730896 11.8107585,22.7304949 12.4963763,22.730896 C12.4967775,22.8761234 12.4967775,23.0213508 12.4963763,23.166177 C11.9652131,23.1677818 11.4340499,23.1645723 10.9028867,23.1677818 C10.9032879,23.5140007 10.9024855,23.8602196 10.9032879,24.2064385 C11.3847047,24.2080432 11.8657203,24.2068397 12.3471371,24.2072409 C12.3471371,24.3532706 12.3475383,24.4993004 12.3471371,24.644929 C11.8657203,24.6465337 11.3843035,24.642923 10.9028867,24.647336 C10.905695,24.9811183 10.8980726,25.315703 10.905695,25.6494853 C10.9269576,25.6755621 10.9530343,25.6867951 10.9831229,25.6827833 C11.4870058,25.6847892 11.9924934,25.6815798 12.4967775,25.6839869 C12.4967775,25.8272083 12.4963763,25.9704298 12.4967775,26.1136513 C11.8103574,26.1148549 11.1243384,26.1144537 10.4383195,26.1136513 C10.4395231,24.9859325 10.4379183,23.8582137 10.4387207,22.730896 Z" id="Shape"></path>
                <path d="M13.2594219,22.730896 C13.6943017,22.7316984 14.1295827,22.728489 14.5644626,22.7320996 C14.8749764,22.7369137 15.1750595,22.8580703 15.3672251,23.108407 C15.6348126,23.4574342 15.6504586,23.9769632 15.3816676,24.3304033 C15.2260095,24.5374125 15.0049589,24.6397136 14.7594364,24.7018966 C15.0210062,25.1744874 15.2922043,25.6422641 15.5605941,26.1112443 C15.376051,26.1156572 15.1919091,26.1164596 15.007366,26.1108431 C14.7574305,25.6490841 14.494256,25.1945465 14.2415121,24.7343922 C14.0726151,24.731584 13.903718,24.7319852 13.734821,24.7319852 C13.7332163,25.1925405 13.7344198,25.6530959 13.7340186,26.1136513 C13.5759534,26.1144537 13.4174871,26.1144537 13.2594219,26.1144537 C13.2590207,24.9863337 13.2590207,23.8586149 13.2594219,22.730896 Z M13.7372281,23.1621652 C13.7288033,23.5424845 13.7364257,23.9244085 13.7344198,24.3051289 C13.9839542,24.3039254 14.2338897,24.3071348 14.4838253,24.3047278 C14.654327,24.3047278 14.8200147,24.2493648 14.9415724,24.1274059 C15.1754607,23.881081 15.1261155,23.4161126 14.8224217,23.2468144 C14.6487105,23.1384956 14.4774064,23.1605605 14.2820314,23.1581534 C14.1006977,23.1617641 13.9185617,23.1517345 13.7372281,23.1621652 Z" id="Combined-Shape"></path>
                <path d="M17.2062372,22.7341055 C17.3863673,22.726483 17.5672998,22.7325008 17.7474299,22.7300843 C18.1971534,23.8578125 18.6472781,24.9855313 19.0957981,26.1136513 C18.9256975,26.1148377 18.7555969,26.1152561 18.5850951,26.1120466 C18.4651421,25.7979222 18.3403749,25.4854024 18.2204219,25.171278 C17.7201496,25.1676673 17.2198773,25.1696732 16.7196051,25.1700744 C16.6056698,25.4837977 16.4776931,25.793108 16.3693744,26.1088372 C16.1988726,26.1168608 16.0279696,26.1156572 15.8570667,26.1120466 C16.3087961,24.9879384 16.7541066,23.8578125 17.2062372,22.7341055 Z M17.4585798,23.2219412 C17.281258,23.7294347 17.0758535,24.2277011 16.8909092,24.7327875 C17.2772462,24.735997 17.6639843,24.7348057 18.0507225,24.7331887 C17.8681853,24.2662144 17.6904623,23.796833 17.5051168,23.3310623 C17.4898719,23.2945549 17.4742259,23.2580474 17.4585798,23.2219412 Z" id="Combined-Shape"></path>
                <path d="M18.9236916,22.7312972 C19.8339705,22.7296925 20.7442494,22.7312972 21.6545283,22.7304949 C21.6549295,22.8757223 21.6549295,23.0209496 21.6549295,23.166177 C21.2798256,23.1669794 20.9047217,23.1657759 20.5296178,23.1669794 C20.5284142,24.1494708 20.5292166,25.1315611 20.5292166,26.1140525 C20.374762,26.1144537 20.2207087,26.1144537 20.0662541,26.1140525 C20.0618411,25.2511129 20.0674577,24.4110406 20.0662541,23.5493046 C20.0702659,23.4201244 20.0666553,23.2941537 20.0542187,23.1653747 C19.6775101,23.1677818 19.3004002,23.1665782 18.9236916,23.1657759 C18.9236916,23.0209496 18.9236916,22.8761234 18.9236916,22.7312972 Z" id="Shape"></path>
                <path d="M22.193314,22.730896 C22.877327,22.7304949 23.5617412,22.7304949 24.2457542,22.730896 C24.2461554,22.8761234 24.2461554,23.0213508 24.2457542,23.1665782 C23.7157945,23.1665782 23.1862361,23.1665782 22.6562764,23.1665782 C22.6562764,23.5131983 22.6554741,23.8598184 22.6566776,24.2068397 C23.1364897,24.2080432 23.6167029,24.2068397 24.096515,24.2072409 C24.096515,24.3532706 24.096515,24.4993004 24.096515,24.6453301 C23.6163017,24.6453301 23.1360885,24.6453301 22.6562764,24.6453301 C22.6566776,24.9911479 22.6546717,25.3369656 22.65748,25.6827833 C23.1870384,25.6835857 23.7161957,25.6831845 24.2457542,25.6831845 C24.2461554,25.8268072 24.2461554,25.9704298 24.2457542,26.1140525 C23.5617412,26.1140525 22.8777282,26.1144537 22.193314,26.1140525 C22.1929128,24.9863337 22.193314,23.8586149 22.193314,22.730896 Z" id="Shape"></path>
                <path d="M24.9658735,22.7304949 C25.1191245,22.7304949 25.2727767,22.7304949 25.4260277,22.730896 C25.4260277,23.4582366 25.4268301,24.1859783 25.4256265,24.91372 C25.4256265,25.1098973 25.4557151,25.2980511 25.5660397,25.4641399 C25.6679396,25.6218039 25.8560934,25.7168837 26.0386306,25.739751 C26.2717165,25.7674324 26.5196462,25.7373439 26.7001775,25.5744645 C26.8819123,25.4087769 26.9332634,25.1496142 26.9328622,24.9133188 C26.9324611,24.1859783 26.9324611,23.4582366 26.9328622,22.730896 C27.0909274,22.7304949 27.2489926,22.7300937 27.4070578,22.7325008 C27.3821846,23.4867204 27.4034471,24.24094 27.3938188,24.9947585 C27.3970283,25.2783932 27.3191992,25.5552079 27.1378656,25.7762584 C26.9144079,26.0530731 26.5469264,26.1902768 26.1970969,26.1826544 C25.8873854,26.1938875 25.5720574,26.0988077 25.3361632,25.8950079 C25.0834194,25.668742 24.9614605,25.3301455 24.9662747,24.9951597 C24.9646699,24.2401377 24.9654723,23.4851157 24.9658735,22.7304949 Z" id="Shape"></path>
                <path d="M28.260369,22.7304949 C28.6824111,22.7312972 29.1048543,22.7296925 29.5268964,22.7312972 C29.7435339,22.7329019 29.956962,22.7794389 30.1403016,22.8989907 C30.6056712,23.1930562 30.7103793,23.8963258 30.3834171,24.3287986 C30.2265554,24.5374125 30.0014931,24.6409171 29.7539646,24.7031001 C30.0255639,25.1708768 30.2895408,25.6430664 30.5595354,26.1116454 C30.3753935,26.1156572 30.1912515,26.1160584 30.0071096,26.1112443 C29.7575752,25.6490841 29.4935984,25.1949476 29.2412557,24.7343922 C29.0723587,24.7311828 28.9034616,24.7319852 28.7345646,24.7327875 C28.7337622,25.1929417 28.7345646,25.6534971 28.7341634,26.1140525 C28.5760982,26.1144537 28.4176319,26.1144537 28.2595667,26.1136513 C28.2607702,24.9859325 28.2591655,23.8582137 28.260369,22.7304949 Z M28.7373728,23.1613629 C28.728948,23.5420833 28.7373728,23.9240073 28.7337622,24.3047278 C28.9853025,24.3043266 29.2368428,24.3071348 29.4879818,24.3047278 C29.6657049,24.3047278 29.8410208,24.2401377 29.9601715,24.105341 C30.1719949,23.8529983 30.1198414,23.4181185 29.8261771,23.2496226 C29.6532683,23.1380944 29.4819641,23.1609617 29.286188,23.1581534 C29.1032496,23.1621652 28.91991,23.1525369 28.7373728,23.1613629 Z" id="Combined-Shape"></path>
                <path d="M32.4450845,22.7312972 C32.8498758,22.7304949 33.254667,22.7296925 33.6594583,22.7316984 C34.1071759,22.7357102 34.544864,22.9086191 34.8425401,23.2488203 C35.2084168,23.6604316 35.3006884,24.2646097 35.213231,24.7933658 C35.1530539,25.1881276 34.9480506,25.5612256 34.6230943,25.7987245 C34.3330406,26.0165656 33.9791993,26.1132502 33.6193403,26.1144537 C33.2277879,26.1136513 32.8362356,26.1156572 32.4446833,26.112849 C32.4454856,24.9855313 32.4446833,23.8586149 32.4450845,22.7312972 Z M33.0536755,23.1396991 C33.019174,23.1437109 32.9028316,23.130472 32.9180765,23.1938585 C32.9168729,24.0239013 32.9180765,24.8655783 32.9176753,25.6968246 C33.2225726,25.688801 33.5350923,25.7164825 33.8375825,25.6771668 C34.1862085,25.6210015 34.4854893,25.3967415 34.6303155,25.0741923 C34.8044279,24.6830411 34.8040267,24.2088456 34.6467639,23.8124791 C34.5171826,23.4887263 34.2327455,23.2492214 33.8917419,23.1770089 C33.6117178,23.1336814 33.3357055,23.1392979 33.0536755,23.1396991 Z" id="Combined-Shape"></path>
                <path d="M35.9365597,22.730896 C36.6241834,22.7316984 37.3122082,22.7288901 37.9998318,22.7320996 C38.000233,22.8765246 38.000233,23.0205485 37.9998318,23.1649735 C37.4686687,23.1685841 36.9371043,23.1653747 36.4059411,23.1665782 C36.4055399,23.5135995 36.4047376,23.8606208 36.4063423,24.2072409 C36.8869567,24.2068397 37.36717,24.2072409 37.8477844,24.2072409 C37.8477844,24.3532706 37.8477844,24.4993004 37.8473832,24.6453301 C37.3667688,24.6457313 36.8861543,24.6445278 36.4051387,24.6461325 C36.4067435,24.991549 36.4031328,25.3373668 36.4075458,25.6827833 C36.9383078,25.6847892 37.4690698,25.6803762 37.9998318,25.6851904 C37.9998318,25.8272083 37.9998318,25.9692263 38.0006342,26.1116454 C37.3126094,26.1176631 36.6245846,26.112849 35.9361585,26.1140525 C35.9361585,24.9863337 35.9361585,23.8586149 35.9365597,22.730896 Z" id="Shape"></path>
                <path d="M42.4172321,22.7304949 C43.3287145,22.7312972 44.2397958,22.7304949 45.1508771,22.730896 C45.1512782,22.8761234 45.1512782,23.0213508 45.1508771,23.1665782 C44.7745696,23.166177 44.3986633,23.1669794 44.0223559,23.166177 C44.0219547,24.1486685 44.0215535,25.1307587 44.0223559,26.112849 C43.8646919,26.1148549 43.7066267,26.1148549 43.5489627,26.1132502 C43.5493639,25.1311599 43.5489627,24.1490697 43.5493639,23.1669794 C43.1718529,23.1657759 42.7947431,23.1669794 42.4176332,23.1665782 C42.4164297,23.0213508 42.4164297,22.8757223 42.4172321,22.7304949 Z" id="Shape"></path>
                <path d="M46.3319529,22.7341055 C46.5112807,22.726483 46.6914108,22.7325008 46.8711397,22.7300843 C47.3232703,23.856609 47.7717903,24.984729 48.2195079,26.112849 C48.0498085,26.1152561 47.8805103,26.1144537 47.7108108,26.1140525 C47.5904566,25.7991257 47.4648871,25.486606 47.3461376,25.1716792 C46.8454642,25.1664638 46.3451919,25.1704756 45.8445184,25.1696732 C45.7309843,25.4841989 45.6018041,25.793108 45.4942877,26.1096395 C45.3233847,26.1164596 45.1520806,26.1160584 44.9811776,26.1108431 C45.4361165,24.9879384 45.877014,23.8570101 46.3319529,22.7341055 Z M46.5814873,23.2247494 C46.4077761,23.732243 46.1979586,24.2281022 46.0170261,24.7331887 C46.4033631,24.7355958 46.7897,24.7347934 47.176037,24.7335899 C46.9746443,24.2321141 46.7953166,23.7206087 46.5814873,23.2247494 Z" id="Combined-Shape"></path>
                <path d="M48.7374321,22.7325008 C49.1538577,22.7288901 49.5706844,22.7312972 49.9871099,22.730896 C50.2362431,22.7280878 50.4793585,22.7850554 50.6807512,22.9371029 C51.104398,23.2520297 51.1834306,23.9280191 50.8596778,24.3404328 C50.7032174,24.5430291 50.4817656,24.6425219 50.2386502,24.7022978 C50.5110518,25.1704756 50.7750287,25.6430664 51.0454245,26.1120466 C50.8620849,26.1152561 50.6791465,26.1148549 50.495807,26.1132502 C50.2394525,25.6518924 49.9822957,25.1905346 49.7219295,24.7311828 C49.5526312,24.7323863 49.3837342,24.731584 49.2144359,24.7339911 C49.2156395,25.1941453 49.2148371,25.6538983 49.2148371,26.1140525 C49.0595802,26.1144664 48.9039221,26.1144664 48.748264,26.1140525 C48.7506711,25.526724 48.7374321,24.938192 48.7486652,24.3516659 C48.7322168,23.8124791 48.7550841,23.2716876 48.7374321,22.7325008 Z M49.2140348,23.1613629 C49.2156395,23.5416821 49.2152383,23.9220014 49.2140348,24.3023207 C49.458755,24.3067337 49.7038763,24.3055301 49.9485965,24.3055301 C50.1110747,24.3063325 50.2687387,24.2658132 50.3927035,24.1562909 C50.6390285,23.9504852 50.6334119,23.5119948 50.3894941,23.3061891 C50.2779659,23.208301 50.1355467,23.1589558 49.9871099,23.1597582 C49.7295519,23.1569499 49.4715927,23.1573511 49.2140348,23.1613629 Z" id="Combined-Shape"></path>
                <path d="M51.3667702,22.730896 C52.2786538,22.7304949 53.1905374,22.730896 54.1024211,22.730896 C54.1024211,22.8761234 54.1024211,23.0213508 54.1020199,23.1665782 C53.7249101,23.1669794 53.3473991,23.1657759 52.9702892,23.1669794 C52.9702892,24.1494708 52.9702892,25.1319623 52.9702892,26.1140525 C52.8138288,26.1144537 52.6569672,26.1140525 52.5005067,26.1144537 C52.5001055,25.1319623 52.5009079,24.1490697 52.5001055,23.1665782 C52.1225945,23.1669794 51.7446823,23.166177 51.3671713,23.1665782 C51.3667702,23.0213508 51.3667702,22.8761234 51.3667702,22.730896 Z" id="Shape"></path>
                <path d="M54.5794249,22.730896 C54.7362865,22.7300937 54.892747,22.7300937 55.0496086,22.7329019 C55.050411,23.4598413 55.0496086,24.1867806 55.0496086,24.9141212 C55.0508121,25.066971 55.0536204,25.2117972 55.1214199,25.3526116 C55.2084761,25.5564114 55.3962287,25.6952199 55.6132674,25.7329309 C55.8479581,25.7722466 56.1255751,25.7461699 56.3093159,25.5796799 C56.4890448,25.4188064 56.5464136,25.1861217 56.5464136,24.9526345 C56.5476172,24.2124562 56.5464136,23.4718767 56.5468148,22.7312972 C56.70488,22.7304949 56.8629452,22.7304949 57.0210103,22.7316984 C57.0206092,23.4590389 57.020208,24.1859783 57.0210103,24.9133188 C57.0234174,25.191337 56.9652462,25.4801871 56.8039716,25.7112671 C56.6346734,25.9531791 56.3767142,26.1024183 56.0894689,26.1593859 C55.7408429,26.21515 55.3886063,26.1854627 55.0849125,25.9932971 C54.7543396,25.784282 54.5926638,25.4168005 54.5810296,25.0348765 C54.5770178,24.267418 54.5802272,23.4983546 54.5794249,22.730896 Z" id="Shape"></path>
                <path d="M57.8743216,22.7312972 C58.2811188,22.7304949 58.6875148,22.7300937 59.094312,22.730896 C59.3799526,22.7312972 59.6591743,22.8139404 59.8665847,23.017339 C60.2360721,23.3715815 60.2541253,24.0287155 59.9095111,24.4054241 C59.7197526,24.618451 59.4152565,24.7299792 59.1340289,24.731584 C58.8720579,24.7335899 58.6104881,24.731584 58.3485171,24.7319852 C58.3477148,25.1925405 58.3477148,25.6526948 58.3485171,26.112849 C58.1900508,26.1148549 58.0319856,26.1148549 57.8739204,26.112849 C57.8747228,24.9859325 57.8739204,23.8586149 57.8743216,22.7312972 Z M58.3517266,23.1621652 C58.3424994,23.5424845 58.350523,23.9244085 58.3485171,24.3051289 C58.5840102,24.3043266 58.8195032,24.3067337 59.0549963,24.3051289 C59.2327193,24.3063325 59.41646,24.2505684 59.5392213,24.116574 C59.7129326,23.9296238 59.720555,23.6179065 59.5849559,23.4084902 C59.4770383,23.2468144 59.2860763,23.1605605 59.0947132,23.1601593 C58.8471834,23.1585546 58.5984527,23.1537404 58.3517266,23.1621652 Z" id="Combined-Shape"></path>
            </g>
        </g>
    </g>
</svg>