<?xml version="1.0" encoding="UTF-8"?>
<svg width="73px" height="55px" viewBox="0 0 73 55" version="1.1" xmlns="http://www.w3.org/2000/svg" xmlns:xlink="http://www.w3.org/1999/xlink">
    <!-- Generator: Sketch 56.2 (81672) - https://sketch.com -->
    <title>GREEZLI LOGO</title>
    <desc>Created with Sketch.</desc>
    <g id="Page-1" stroke="none" stroke-width="1" fill="none" fill-rule="evenodd">
        <g id="01_LANDING_PAGE_desktop" transform="translate(-64.000000, -3469.000000)" fill="#FFFFFF">
            <g id="FOOTER" transform="translate(0.000000, 3410.000000)">
                <g id="GREEZLI-LOGO" transform="translate(64.000000, 59.000000)">
                    <path d="M30.8160438,17.8492742 C31.6610741,17.8492742 32.3501499,17.1601985 32.3501499,16.3151682 C32.3501499,15.4701379 31.6610741,14.7810621 30.8160438,14.7810621 C29.9710135,14.7810621 29.2819378,15.4701379 29.2819378,16.3151682 C29.2819378,17.1601985 29.9710135,17.8492742 30.8160438,17.8492742" id="Fill-1"></path>
                    <path d="M42.9395741,17.8492742 C43.7846044,17.8492742 44.4736802,17.1601985 44.4736802,16.3151682 C44.4736802,15.4701379 43.7846044,14.7810621 42.9395741,14.7810621 C42.0945438,14.7810621 41.4054681,15.4701379 41.4054681,16.3151682 C41.4054681,17.1601985 42.0945438,17.8492742 42.9395741,17.8492742" id="Fill-3"></path>
                    <path d="M53.4541181,0.874893939 C52.1644514,-0.489984848 49.6791332,-0.105075758 47.6395575,0.983287879 C47.0666181,1.28856061 46.5235423,1.6480303 46.0556787,2.03515152 C45.5634817,2.44107576 45.1442847,2.8835 44.8434363,3.33366667 C44.7947696,3.40666667 44.748315,3.47966667 44.7051787,3.55377273 C45.3798756,3.72631818 45.9948453,3.95748485 46.5611484,4.24948485 C46.7480726,4.00725758 46.9947241,3.76171212 47.2811938,3.52501515 C47.6539363,3.2175303 48.087512,2.92995455 48.5465272,2.68551515 C49.911406,1.95772727 51.4521484,1.56839394 52.047209,2.19884848 L53.6078605,3.84909091 C54.1774817,4.45189394 53.7206787,5.87207576 52.9375878,7.13187879 C52.6632847,7.57319697 52.3469514,7.9879697 52.0151332,8.34080303 C51.6987999,8.67593939 51.371406,8.95356061 51.0572847,9.14048485 L51.0572847,9.14380303 C51.0495423,9.14822727 51.0417999,9.15265152 51.0340575,9.15707576 C51.3249514,9.69683333 51.609209,10.2730909 51.8934666,10.8847424 C51.9410272,10.8570909 51.9907999,10.8294394 52.0383605,10.8017879 L52.0405726,10.804 C52.5128605,10.5230606 52.9840423,10.128197 53.4220423,9.66365152 C53.8434514,9.21680303 54.2394211,8.69916667 54.5789817,8.15387879 C55.7735272,6.23154545 56.2878453,3.87231818 55.0147696,2.52624242 L53.4541181,0.874893939 Z" id="Fill-5"></path>
                    <path d="M20.3003938,0.874893939 C21.5911666,-0.489984848 24.0764847,-0.105075758 26.1160605,0.983287879 C26.6878938,1.28856061 27.2309696,1.6480303 27.6988332,2.03515152 C28.1910302,2.44107576 28.6102272,2.8835 28.9110756,3.33366667 C28.9608484,3.40666667 29.0073029,3.47966667 29.0504393,3.55377273 C28.3746363,3.72631818 27.7607726,3.95748485 27.1944696,4.24948485 C27.0064393,4.00725758 26.7608938,3.76171212 26.4744241,3.52501515 C26.1005756,3.2175303 25.6669999,2.92995455 25.2079847,2.68551515 C23.843106,1.95772727 22.3034696,1.56839394 21.7073029,2.19884848 L20.1477575,3.84909091 C19.5781363,4.45189394 20.0349393,5.87207576 20.8180302,7.13187879 C21.0923332,7.57319697 21.4075605,7.9879697 21.7404847,8.34080303 C22.0568181,8.67593939 22.384212,8.95356061 22.6983332,9.14048485 L22.6983332,9.14380303 L22.7204544,9.15707576 C22.4295605,9.69683333 22.1453029,10.2730909 21.8621514,10.8847424 C21.8134847,10.8570909 21.7648181,10.8294394 21.7161514,10.8017879 L21.7150453,10.804 C21.2416514,10.5230606 20.7715756,10.128197 20.3335756,9.66365152 C19.9121666,9.21680303 19.5161969,8.69916667 19.1766363,8.15387879 C17.9820908,6.23154545 17.4677726,3.87231818 18.7408484,2.52624242 L20.3003938,0.874893939 Z" id="Fill-7"></path>
                    <path d="M39.0564166,29.6837909 C40.3626741,27.9450636 39.4037196,27.1321091 36.8166438,27.2084273 C33.9972953,27.2902758 33.4652802,28.2746697 34.8533863,29.795503 C36.364265,31.4512758 37.8563408,31.2798364 39.0564166,29.6837909" id="Fill-9"></path>
                    <path d="M19.066915,16.2841985 C22.7688999,6.9623197 24.6525211,2.21953182 32.8207787,2.21953182 L36.877809,2.21953182 L40.9348393,2.21953182 C49.1019908,2.21953182 50.985612,6.9623197 54.6887029,16.2841985 C55.4540969,18.2142742 56.3046575,20.3545015 57.3819605,22.8519864 L57.4505363,23.3585621 C57.0965969,26.0695167 54.015112,30.6320167 50.2135817,34.1658803 C47.024809,37.1290167 43.2796878,39.4285167 40.108612,39.4285167 L36.877809,39.4285167 L33.6458999,39.4285167 C30.4748241,39.4285167 26.730809,37.1290167 23.5420363,34.1658803 C19.7393999,30.6320167 16.657915,26.0695167 16.3039756,23.3585621 L16.3725514,22.8519864 C17.4498544,20.3545015 18.300415,18.2142742 19.066915,16.2841985 L19.066915,16.2841985 Z M34.2177332,36.9575773 C33.0618999,36.5317439 32.170415,35.8371379 31.586415,34.8671227 C30.9802938,33.8583955 30.6816575,32.5311227 30.7358544,30.8731379 C30.7955817,29.0591985 31.275612,26.8636682 32.2301423,24.2743803 C33.2720514,21.4472894 34.3482484,19.4231985 35.4266575,18.3359409 C35.9321272,17.8282591 36.4066272,17.5550621 36.841309,17.5384712 C37.2627181,17.5229864 37.7217332,17.7508348 38.2172484,18.2408197 C39.1762029,19.1876076 40.1528544,20.98385 41.1328241,23.72135 C42.3229453,27.0505924 42.9246423,29.9363045 42.8505363,32.2103652 C42.8073999,33.5088803 42.5452635,34.5939258 42.0453241,35.4267894 C41.5785666,36.2087742 40.8806423,36.7839258 39.9360666,37.1212742 C39.178415,37.3922591 38.2625969,37.5172439 37.1841878,37.4829561 C36.0659605,37.4464561 35.071612,37.2716985 34.2177332,36.9575773 L34.2177332,36.9575773 Z M50.6836575,11.657547 C49.471415,12.2260621 47.7691878,12.4107742 45.9320211,12.6098652 C42.7742181,12.9527439 39.1374908,13.3487136 38.100006,15.8484106 C38.6010514,16.0530318 39.0932484,16.3903803 39.5721726,16.8637742 C40.7401726,18.0185015 41.8772029,20.0558652 42.955612,23.0698803 C44.2242635,26.6159106 44.8613544,29.7416379 44.779506,32.2711985 C44.726415,33.8993197 44.3746878,35.2962742 43.703309,36.4189258 C43.6789756,36.4565318 43.6557484,36.4952439 43.6325211,36.5339561 C45.3856272,35.6767591 47.2117332,34.3174106 48.8962635,32.7512288 C52.2841272,29.6033803 55.0348999,25.7023045 55.4950211,23.3607742 C54.5338544,21.1221076 53.6744453,18.9553348 52.8946726,16.9953955 C52.0949908,14.9812591 51.3882181,13.2005015 50.6836575,11.657547 L50.6836575,11.657547 Z M36.8767029,13.9802742 C35.1136423,11.4595621 31.3497181,11.0492136 28.0282181,10.6886379 C26.3381575,10.5050318 24.7841423,10.3369106 23.9147787,9.92877424 C25.9388696,6.09627424 28.228415,4.15624394 32.8207787,4.15624394 L36.877809,4.15624394 L40.9348393,4.15624394 C45.5272029,4.15624394 47.8156423,6.09627424 49.8408393,9.92877424 C48.9703696,10.3358045 47.4174605,10.5050318 45.7273999,10.6886379 C42.4047938,11.0492136 38.6397635,11.4584561 36.8767029,13.9802742 L36.8767029,13.9802742 Z M33.8095969,30.4705318 C33.8140211,30.8222591 33.9611272,31.1408045 34.195612,31.3708652 C34.4278847,31.5998197 34.7486423,31.7413955 35.1025817,31.7413955 C35.4598393,31.7413955 35.782809,31.5965015 36.0150817,31.3642288 L36.0172938,31.3620167 C36.2495666,31.13085 36.3933544,30.8067742 36.3933544,30.4495167 L37.3622635,30.4495167 C37.3622635,30.8067742 37.5060514,31.13085 37.7372181,31.3620167 L37.7394302,31.3620167 C37.972809,31.5965015 38.2957787,31.7413955 38.6530363,31.7413955 C39.0069756,31.7413955 39.3266272,31.5998197 39.560006,31.3708652 C39.7933847,31.1408045 39.9404908,30.8222591 39.9460211,30.4705318 L40.910506,30.4849106 C40.9005514,31.1020924 40.6439453,31.6584409 40.236915,32.0588348 C39.8287787,32.4603348 39.268006,32.7091985 38.6530363,32.7091985 C38.0292181,32.7091985 37.4640211,32.4559106 37.0558847,32.0466682 L37.0558847,32.0455621 C36.9928393,31.9825167 36.933112,31.915047 36.877809,31.8442591 C36.822506,31.915047 36.7627787,31.9814106 36.6997332,32.0455621 L36.6986272,32.0455621 L36.6975211,32.0466682 C36.2882787,32.4559106 35.7241878,32.7091985 35.1025817,32.7091985 C34.486506,32.7091985 33.9268393,32.4603348 33.5175969,32.0588348 C33.1105666,31.6584409 32.8539605,31.1020924 32.845112,30.4849106 L33.8095969,30.4705318 Z M35.6578241,15.8539409 C34.6236575,13.3487136 30.983612,12.9527439 27.8235969,12.6098652 C25.9853241,12.4107742 24.2842029,12.2260621 23.0708544,11.657547 C22.3662938,13.2005015 21.6595211,14.980153 20.8598393,16.9953955 C20.0811726,18.9553348 19.2206575,21.1221076 18.2605969,23.3607742 C18.7207181,25.7023045 21.4703847,29.6033803 24.8582484,32.7512288 C26.6810363,34.4446076 28.6697332,35.8979712 30.5522484,36.733047 C30.3243999,36.4653803 30.1164605,36.1755924 29.9295363,35.8658955 C29.1331726,34.5419409 28.7405211,32.8607288 28.8068847,30.8123045 C28.8732484,28.7860015 29.3897787,26.3880621 30.4150969,23.6085318 C31.5510211,20.5259409 32.7765363,18.2662591 34.0573544,16.9754864 C34.5727787,16.4556379 35.107006,16.0795773 35.6578241,15.8539409 L35.6578241,15.8539409 Z" id="Fill-11"></path>
                    <path d="M8.66784383,53.3404364 L8.66784383,49.7910879 L5.11849535,49.7910879 L5.11849535,51.343997 L6.9280105,51.343997 L6.9280105,52.5108909 C6.47231353,52.8382848 5.88831353,53.0019818 5.23463171,53.0019818 C3.78679838,53.0019818 2.75926807,51.9036636 2.75926807,50.4104818 L2.75926807,50.3861485 C2.75926807,48.9969364 3.79896504,47.841103 5.10632868,47.841103 C6.0520105,47.841103 6.61278322,48.1441636 7.24323777,48.6695424 L8.37584383,47.3035576 C7.5230711,46.5801939 6.6360105,46.1831182 5.16494989,46.1831182 C2.68958625,46.1831182 0.878965042,48.0866485 0.878965042,50.4104818 L0.878965042,50.432603 C0.878965042,52.8504515 2.63096504,54.6367394 5.1760105,54.6367394 C6.67029838,54.6367394 7.82723777,54.0527394 8.66784383,53.3404364" id="Fill-13"></path>
                    <path d="M18.8956969,49.1370742 C18.8956969,49.82615 18.3935453,50.2929076 17.5175453,50.2929076 L15.6958635,50.2929076 L15.6958635,47.945847 L17.4832575,47.945847 C18.3592575,47.945847 18.8956969,48.3429227 18.8956969,49.113847 L18.8956969,49.1370742 Z M20.9629241,54.4959379 L18.9653787,51.5770439 C20.0050756,51.1921348 20.7173787,50.3625894 20.7173787,49.0430591 L20.7173787,49.0198318 C20.7173787,47.3386197 19.5615453,46.3232561 17.6347878,46.3232561 L13.898515,46.3232561 L13.898515,54.4959379 L15.6958635,54.4959379 L15.6958635,51.8801045 L17.109409,51.8801045 L18.861409,54.4959379 L20.9629241,54.4959379 Z" id="Fill-16"></path>
                    <polygon id="Fill-18" points="32.0663347 54.4961591 32.0663347 52.8967955 27.6288196 52.8967955 27.6288196 51.1801894 31.4823347 51.1801894 31.4823347 49.5808258 27.6288196 49.5808258 27.6288196 47.9228409 32.0077135 47.9228409 32.0077135 46.3223712 25.8436378 46.3223712 25.8436378 54.4961591"></polygon>
                    <polygon id="Fill-20" points="43.3920635 54.4961591 43.3920635 52.8967955 38.9545484 52.8967955 38.9545484 51.1801894 42.8080635 51.1801894 42.8080635 49.5808258 38.9545484 49.5808258 38.9545484 47.9228409 43.3334423 47.9228409 43.3334423 46.3223712 37.1682605 46.3223712 37.1682605 54.4961591"></polygon>
                    <polygon id="Fill-22" points="55.055915 54.4961591 55.055915 52.9200227 50.5608847 52.9200227 55.055915 47.6894621 55.055915 46.3223712 48.3885817 46.3223712 48.3885817 47.8996136 52.7442484 47.8996136 48.2492181 53.1301742 48.2492181 54.4961591"></polygon>
                    <polygon id="Fill-24" points="66.1365408 54.4961591 66.1365408 52.8614015 62.0618135 52.8614015 62.0618135 46.3223712 60.263359 46.3223712 60.263359 54.4961591"></polygon>
                    <polygon id="Fill-26" points="71.0756544 54.4964909 72.874109 54.4964909 72.874109 46.322703 71.0756544 46.322703"></polygon>
                </g>
            </g>
        </g>
    </g>
</svg>