<?xml version="1.0" encoding="UTF-8"?>
<svg width="118px" height="47px" viewBox="0 0 118 47" version="1.1" xmlns="http://www.w3.org/2000/svg" xmlns:xlink="http://www.w3.org/1999/xlink">
    <!-- Generator: Sketch 56.2 (81672) - https://sketch.com -->
    <title>weleda</title>
    <desc>Created with Sketch.</desc>
    <g id="Page-1" stroke="none" stroke-width="1" fill="none" fill-rule="evenodd" opacity="0.299497768">
        <g id="01_LANDING_PAGE_desktop" transform="translate(-550.000000, -2725.000000)" fill="#000000" fill-rule="nonzero">
            <g id="weleda" transform="translate(550.000000, 2725.000000)">
                <path d="M41.2591823,0.0164854327 C43.2653783,-0.0310271839 45.2706046,0.0387872732 47.2709828,0.192960866 C47.6520533,0.225928804 48.0486382,0.232716321 48.4229213,0.316105811 C48.4752822,0.512943794 48.3812266,0.73984078 48.3269264,0.930860892 C48.1165134,1.56597852 47.9138576,2.20303544 47.7199285,2.8430013 C47.6598105,3.0272339 47.6026014,3.24249514 47.4852744,3.39957767 C47.2031076,3.47811893 46.8840943,3.44515099 46.5932007,3.46551354 C44.0663053,3.56926558 41.5345615,3.91639858 39.0900859,4.5728484 C38.5286613,6.30269551 38.1291675,8.08296417 37.955601,9.89620076 C40.8674456,9.89426147 43.7802599,9.90104899 46.6911349,9.89232218 C46.8637318,9.89620076 47.0314804,9.90492757 47.1982594,9.95534912 C47.1381414,10.4498682 46.9209408,10.9308122 46.7822816,11.4078777 C46.6310169,11.844218 46.5321131,12.3106174 46.3333358,12.7275649 C46.2993982,12.8332562 46.1054692,12.8274383 46.0133529,12.8516794 C43.2644086,13.1096051 40.3932891,13.4276487 37.742279,14.2266364 C37.7519755,15.3679088 37.7897916,16.5518457 38.0089315,17.6746949 C38.0525655,17.8715328 38.0884424,18.089703 38.1863765,18.2681177 C38.3531555,18.4310181 38.5752043,18.5454363 38.7797994,18.6550062 C39.8163502,19.1931593 40.9954388,19.5053851 42.1347719,19.7439178 C43.9198888,20.1046258 45.7447612,20.2811013 47.5657549,20.2975852 C47.7548357,20.3024335 47.9410076,20.3295835 48.1262099,20.3673997 C47.9031915,21.1760838 47.6200551,21.968284 47.379583,22.7730895 C47.289406,22.9902901 47.2806792,23.2462764 46.9829981,23.2462764 C45.5711947,23.3548767 44.1303018,23.356816 42.7146198,23.3490588 C40.7287863,23.3063944 38.7448922,23.1968245 36.7959053,22.7876342 C36.5651297,22.736243 36.3188398,22.6906697 36.1026089,22.5927355 C35.9086799,22.5044978 35.8097761,22.2892365 35.7147508,22.1098522 C34.9603668,20.5283608 34.4833014,18.8644496 34.1623488,17.1452686 C33.7424924,14.8462397 33.5728045,12.4977589 33.5757134,10.1628532 C33.5408062,7.37221421 33.7289174,4.54569834 34.2661008,1.80354161 C34.3136135,1.60379469 34.3553082,1.33132438 34.5133604,1.18684723 C34.6888662,1.031704 34.9535793,0.962859185 35.1717495,0.889166147 C37.1236454,0.285077164 39.2248666,0.0804820184 41.2591823,0.0164854327 Z" id="p1"></path>
                <path d="M69.2799904,0.131873216 C72.0425097,-0.103750577 74.8583594,0.00872827081 77.6199091,0.216232352 C77.8972276,0.241443128 78.1861819,0.255018161 78.4557433,0.328711199 C78.4557433,0.744689006 78.2385427,1.15969717 78.1328514,1.55919101 C77.9108026,2.18267289 77.7808702,2.86918172 77.4637962,3.44999922 C74.6527946,3.47714929 71.8282181,3.85434128 69.1083632,4.56606089 C68.5323939,6.2939687 68.1455054,8.08296417 67.9651514,9.89523111 C70.8934801,9.89523111 73.8227783,9.8991097 76.7511069,9.89232218 C76.9188556,9.90298828 77.0701202,9.88165608 77.2097491,9.9892867 C77.1612669,10.3616305 77.0070933,10.7242778 76.898493,11.0830465 C76.7200783,11.5969585 76.5901458,12.131233 76.38749,12.6354486 C76.3186452,12.8090151 76.2468914,12.8216204 76.0723553,12.8448919 C73.309836,13.1096051 70.4154449,13.4198916 67.7527991,14.2285757 C67.7615259,15.3252444 67.7983725,16.4490633 67.9923015,17.5302177 C68.0407838,17.7677808 68.0785999,18.029585 68.1852609,18.2487248 C68.3200416,18.4009591 68.5207582,18.5047112 68.6952943,18.6055543 C69.7037253,19.1485556 70.8643907,19.4675689 71.9785131,19.7090106 C73.8004765,20.0900811 75.6651043,20.276253 77.5248838,20.2975852 C77.7304486,20.3004942 77.9340741,20.3140692 78.1386693,20.3334621 C78.0097065,20.8687063 77.8245042,21.3864968 77.6586949,21.9188321 C77.5093695,22.3765046 77.3997996,22.8167236 77.1767812,23.247246 C76.1993788,23.2918497 75.209371,23.3500284 74.22809,23.3509981 C71.754525,23.3645731 69.1675115,23.2870015 66.7414591,22.7750288 C66.3652368,22.6751553 65.9996805,22.6664285 65.8105997,22.2717829 C65.1463927,20.9588833 64.6925988,19.5199297 64.3658283,18.0877637 C63.7520429,15.3116694 63.5610228,12.4192177 63.5862335,9.58106606 C63.5736282,6.9455703 63.7830715,4.29262093 64.2969835,1.70560744 C64.3561319,1.37980664 64.4695804,1.13739533 64.8002294,1.02200754 C66.2265775,0.514883085 67.7760706,0.26956284 69.2799904,0.131873216 Z" id="p2"></path>
                <path d="M0.0773794016,0.321923683 C0.257733416,0.290895035 0.448753528,0.293803971 0.632016478,0.292834325 C1.95752152,0.301561133 3.28496585,0.294773616 4.61047089,0.294773616 C4.75494803,0.311257585 4.95081637,0.27150213 5.03905408,0.415009625 C5.15250258,0.734022909 5.14280612,1.10442739 5.1893491,1.43798535 C5.84579892,7.36251775 7.00452498,13.2831716 8.40372306,19.0758322 C8.94575475,18.9032354 9.46548459,18.7054277 9.9842448,18.4736825 C10.4390084,13.0931211 10.8850452,7.69122749 11.333991,2.30872677 C11.3562928,2.17103715 11.3621107,2.00037959 11.4881646,1.91311152 C11.6074309,1.85881138 11.7509384,1.846206 11.8799012,1.82681309 C14.3680109,1.5611303 16.8599992,1.29156892 19.3461696,1.01812896 C19.5624005,1.01522003 19.7708742,0.946375216 19.883353,1.18587759 C19.9812872,1.51264803 19.9744997,1.876265 20.0161944,2.21370154 C20.580528,7.98987822 21.151649,13.7650853 21.7159825,19.5412619 C22.3171626,19.6605283 22.9115551,19.735191 23.5234013,19.7730072 C24.2070011,15.2437942 24.8954493,10.7145813 25.5780795,6.18536844 C25.6420761,5.6937583 25.8922446,5.33595921 26.1162326,4.90834566 C26.7697735,3.6875623 27.4252537,2.46774859 28.0778249,1.24599559 C28.2261807,0.975464573 28.3522345,0.679722775 28.5384064,0.433432885 C28.6557335,0.264714614 28.8719644,0.361679137 29.0416523,0.364588073 C29.9792992,0.506156278 30.9159765,0.651603063 31.8545931,0.779596235 C32.0650061,0.807715947 32.2705709,0.84165353 32.4635303,0.934739473 C32.404382,1.33423331 32.2560263,1.72596999 32.1454867,2.11479773 C30.1897123,8.72583896 28.2290896,15.3359105 26.2742848,21.9469518 C26.1685935,22.2766312 26.1036272,22.6509142 25.9271518,22.949565 C25.7710389,23.1842191 25.5295972,23.2297924 25.2648841,23.2307621 C23.261597,23.2297924 21.2505528,23.2259138 19.2472658,23.2317317 C19.0261866,23.2239746 18.8215915,23.233671 18.6383285,23.0901635 C18.4405209,22.9350203 18.3959172,22.7178197 18.3639189,22.4812263 C17.7772836,17.0250325 17.1761035,11.5533245 16.5894682,6.09810036 C16.2336084,5.93616961 15.8729003,5.7946014 15.5034655,5.66660823 C14.5493346,11.0423214 13.6010215,16.4199739 12.6517388,21.7966568 C12.5761065,22.1593041 12.5615618,22.569464 12.40254,22.9049613 C12.2512754,23.1822798 11.981714,23.2327014 11.6898508,23.2307621 C10.005577,23.2278531 8.32421215,23.2278531 6.64090802,23.2307621 C6.35098409,23.2317317 6.07269591,23.1880977 5.91658302,22.9146577 C5.75271298,22.6004927 5.67514136,22.2368757 5.56266251,21.9013784 C3.36253747,14.9412649 1.47851677,7.91521554 0.0347150112,0.75826404 C0.0162917516,0.589545768 -0.0525530602,0.463491887 0.0773794016,0.321923683 Z" id="p3"></path>
                <path d="M52.8958948,0.296712906 C53.277935,0.301561133 53.6667628,0.274411066 54.0468637,0.311257585 C54.2475803,0.320954037 54.272791,0.531367054 54.3309697,0.681662066 C54.7275546,2.12255489 55.1309271,3.56150842 55.5342995,5.00046195 C55.6593837,5.47364883 55.8348895,5.87896054 55.781559,6.37929748 C55.3801259,10.595315 54.983541,14.8152111 54.5850168,19.0321982 C57.0915497,19.3560597 59.6009916,19.6634372 62.1094638,19.9746934 C62.267516,20.0144488 62.4915041,19.992147 62.5448346,20.186076 C62.734885,20.6612022 62.8512424,21.167357 63.0141428,21.6531493 C63.1644379,22.1699702 63.3903652,22.692609 63.4301207,23.220096 C59.4128804,23.2404585 55.3917616,23.2239746 51.3735518,23.2278531 C51.3240999,23.1754923 51.2756176,23.1231314 51.2261657,23.069801 C50.987633,15.7004972 50.7820682,8.32343618 50.5512926,0.952193087 C50.5435354,0.746628297 50.5425658,0.540093861 50.5522623,0.334529071 C51.3260392,0.252109225 52.1172697,0.316105811 52.8958948,0.296712906 Z" id="p4"></path>
                <path d="M81.5973938,0.292834325 C82.7939361,0.307379004 83.9895086,0.275380711 85.1850812,0.319014747 C85.9278295,0.326771909 86.6696081,0.307379004 87.4123563,0.340346942 C89.493215,0.377193461 91.5672862,0.626392287 93.5996626,1.07145945 C93.8517703,1.12382029 94.0592744,1.20817943 94.2338106,1.40404777 C95.7726376,3.07086793 97.0719622,4.95101005 98.029002,7.00956689 C98.1666917,7.28106755 98.1279058,7.54675035 98.0862111,7.83473498 C97.6469618,10.5642863 96.9187582,13.1852374 96.0625615,15.8090974 C95.2858757,18.1760014 94.4025288,20.5021804 93.4697301,22.8118753 C93.3979764,22.9524739 93.3165262,23.2123388 93.1255061,23.2142781 C92.7444355,23.2520943 92.3556077,23.2239746 91.9725979,23.2288228 C88.8697331,23.2307621 85.7649291,23.2249442 82.6620643,23.2317317 C82.4545602,23.2113692 82.2102096,23.2724568 82.1200326,23.0300455 C82.0347038,22.6635196 82.0550664,22.2679043 82.0269467,21.8936213 C81.6642994,15.1390726 81.3026217,8.38355419 80.9370654,1.62900546 C80.9263993,1.25278311 80.8585242,0.851349982 80.92446,0.479975856 C81.0689372,0.246291354 81.3637093,0.31028794 81.5973938,0.292834325 Z M85.6737824,3.58962813 C85.5283356,8.98958246 85.4110086,14.3924457 85.2781672,19.7924001 C87.4084777,19.7380999 89.47964,19.434601 91.4305662,18.5367095 C92.5757172,15.1313154 93.4774873,11.439876 93.5172427,7.83376534 C93.5153034,7.60395942 93.5249999,7.39451605 93.3960371,7.19379948 C92.6717121,6.04573952 91.6041327,5.14687839 90.3726832,4.5835145 C88.8997921,3.90573248 87.3561169,3.67495691 85.7503844,3.59447636 L85.6737824,3.58962813 Z" id="p5"></path>
                <path d="M103.216604,0.294773616 C106.314621,0.297682552 109.43106,0.297682552 112.529077,0.295743261 C112.868453,0.301561133 113.221404,0.268593195 113.555931,0.323862973 C113.739194,0.354891621 113.801251,0.635119094 113.8604,0.781535525 C114.724354,3.58962813 115.400196,6.4869281 115.975196,9.36677446 C116.776123,13.4092255 117.403484,17.5040373 117.797159,21.6075759 C117.846611,22.1389415 117.900912,22.6703071 117.923213,23.2045816 C117.227008,23.2511246 116.524015,23.220096 115.825871,23.2297924 C115.477768,23.2259138 115.121908,23.2511246 114.776715,23.2065209 C114.645812,22.8962345 114.621571,22.5335871 114.553696,22.2048774 C114.220138,20.4100641 113.852643,18.620099 113.495813,16.8301339 C110.025453,16.794257 106.578364,17.1229667 103.229209,18.0654619 C102.894682,19.7623411 102.603788,21.4815221 102.447675,23.2055513 C101.575964,23.2550032 100.699405,23.2152477 99.8267243,23.233671 C99.6502489,23.2239746 99.4146251,23.2550032 99.2623908,23.1541601 C99.2429979,22.7992699 99.2866319,22.4395316 99.3069945,22.085611 C99.6318256,17.1404203 100.169979,12.1448081 101.09696,7.27331039 C101.530391,5.02567273 102.033637,2.77706542 102.676512,0.579849316 C102.748265,0.294773616 102.971284,0.308348649 103.216604,0.294773616 Z M106.796534,4.23347257 C105.806526,7.28882472 104.947421,10.384902 104.191098,13.50619 C107.028279,13.5100686 109.864492,13.50619 112.701674,13.5081293 C112.128613,11.3681222 111.495435,9.24362952 110.809896,7.13562077 C110.426886,5.93713925 109.995394,4.75611135 109.479543,3.60708175 C108.58553,3.81749476 107.690547,4.02208991 106.796534,4.23347257 Z" id="p6"></path>
                <path d="M65.6913333,27.803609 C66.4049922,27.6950087 66.9722347,28.107108 67.4890556,28.5376305 C68.2705897,29.2406233 68.9357663,30.1695434 69.1694508,31.2070638 C69.3614406,32.206768 68.9008591,33.0736309 68.7049907,34.0209743 C68.5498475,34.5571881 69.11709,35.0807965 69.2528403,35.5917996 C69.4564658,36.3568497 69.2741725,37.2479536 68.9629164,37.9645215 C68.7903195,38.3814689 68.499426,38.7499341 68.3530095,39.1736691 C68.2027145,39.6332809 68.529485,40.1287696 68.6662049,40.5592921 C68.8494679,41.0344183 68.7059604,41.5415427 68.5382118,41.9982456 C68.1862305,42.9009854 67.7353455,43.7678482 67.2893087,44.6259842 C67.0022937,45.1331087 66.7220662,45.7342887 66.2973616,46.1366915 L65.9511983,46.1366915 C66.0985843,45.7401066 66.3031795,45.3764897 66.5029264,45.0051155 C67.0061723,44.0858918 67.441543,43.1298216 67.835219,42.1592068 C67.96903,41.7936505 68.1648984,41.3883388 68.1697466,40.9956325 C68.0863571,40.4497222 67.7198312,40.0385926 67.7314669,39.447109 C67.7382544,38.6529696 68.3355559,38.1157861 68.5643922,37.3875825 C68.7418373,36.8038561 68.8581947,36.1629206 68.5828154,35.5888906 C68.3617363,35.1195823 68.0562981,34.7646922 68.0960535,34.2090855 C68.1901091,33.2753171 68.7932285,32.2843397 68.6245102,31.3001497 C68.4606401,30.5147371 67.9486675,29.779746 67.4037268,29.205716 C67.077926,28.8673098 66.6832804,28.5066018 66.2401526,28.3349746 C65.9919234,28.2321922 65.78248,28.3117031 65.5352205,28.3582461 C65.826114,28.9972423 66.5378336,29.4675202 66.6745536,30.1346362 C66.7724878,31.0538598 65.9618644,32.0409587 65.011612,32.0254444 C64.350314,31.9730835 64.0080292,31.4737162 63.472785,31.1973673 C63.2866132,31.0907064 62.9569338,31.1013725 62.8405764,30.9171399 C63.0364447,30.7018786 63.2643113,30.6398213 63.5445388,30.7270894 C63.8936111,30.8686576 64.1709296,31.1585815 64.517093,31.3166337 C64.7769579,31.4368697 65.1221516,31.5260771 65.3936523,31.392266 C65.6981209,31.24488 65.9783483,30.9384721 66.0937361,30.6194588 C66.2168811,30.2800829 66.0210127,29.899982 65.8086604,29.6391474 C65.5517044,29.3104377 65.1415445,28.92161 65.0901533,28.4910875 C65.0571854,28.1197134 65.3364432,27.8453038 65.6913333,27.803609 Z" id="p9"></path>
                <path d="M63.5406602,28.2205565 C64.227169,28.391214 64.8419241,28.8566437 65.2200858,29.4510363 C65.3985005,29.7419298 65.5458866,30.1123343 65.4363167,30.4536494 C65.3635933,30.67085 65.2675984,30.8899898 65.0203388,30.9442899 C64.6751451,31.0344669 64.3997659,30.821145 64.1389313,30.6301249 C63.8237966,30.3818957 63.4844208,30.1685737 63.172195,29.916466 C63.3661241,29.8408337 63.519328,29.719628 63.7365286,29.7942907 C64.0477847,29.9184053 64.2834085,30.2219042 64.5830288,30.3731689 C64.7032649,30.4109851 64.8458027,30.3741385 64.9699173,30.3770475 C64.8797403,29.6837511 64.3124978,29.1058426 63.6890159,28.845008 C63.2536452,28.6627147 62.7882155,28.7121666 62.3964788,28.9710619 C61.6110662,29.5024275 61.0661256,30.2558418 60.6452995,31.0945849 C60.244836,31.8528475 60.0227873,32.6566834 59.8249797,33.4857301 C59.6892293,34.0723655 59.6203845,34.6764545 59.5903255,35.2776345 C59.5660844,35.9059646 59.8017082,36.4518749 60.1100554,36.9842101 C60.3175594,37.3517057 60.5444564,37.7453816 60.4998527,38.1846309 C60.4232508,38.8546558 60.0906625,39.4160804 60.1207215,40.1258607 C60.1536894,40.7881284 60.5270028,41.4087013 60.8440768,41.9730349 C61.2813868,42.7642654 61.7574826,43.5331941 62.1705515,44.3360603 C62.4759897,44.9226957 62.7872459,45.4889685 62.948207,46.1366915 L62.7407029,46.1366915 C62.4653236,46.0057894 62.3867824,45.7624085 62.2432749,45.5161186 C61.6139751,44.3253942 60.8634697,43.2015754 60.201202,42.0312136 C59.8346761,41.3534316 59.4788163,40.7338283 59.536995,39.9290227 C59.5505701,39.3375391 59.8211011,38.8478683 59.9219442,38.2825651 C59.9936979,37.8365283 59.7221973,37.4564274 59.5263289,37.0821443 C59.2286478,36.5488394 59.0046598,35.9961416 59.0065866,35.374599 C59.025992,33.9627956 59.3711857,32.5451742 59.9238835,31.2497282 C60.4087061,30.2189953 60.9749789,29.2638947 61.9320188,28.6055056 C62.3935699,28.2864923 62.9802053,28.0828668 63.5406602,28.2205565 Z" id="p10"></path>
                <path d="M63.9139736,32.4957223 C64.0128774,32.4627544 64.1127509,32.4326954 64.2126244,32.4045757 C64.2591673,32.7778891 64.2834085,33.1521721 64.3028014,33.5274248 C65.1638463,33.2384706 65.9424715,32.9097608 66.7278841,32.450149 C66.7346716,32.7061353 66.7366109,32.9146091 66.5252283,33.0949631 C65.9608947,33.6185715 65.0484586,33.8260756 64.336739,34.095637 C64.3852212,34.7753583 64.4230374,35.4550796 64.4608535,36.1348009 C65.1570588,36.3073977 65.9036857,36.4382999 66.5552873,36.7427685 C67.0119902,36.9686958 67.0362313,37.5727848 66.6590393,37.8869498 C66.0937361,38.3446224 65.298627,38.5463086 64.6324808,38.8245968 C64.6790237,39.6449167 64.7381721,40.4642669 64.7808365,41.2845868 C65.4149845,41.5822678 66.2275472,41.8828579 66.6813411,42.4365253 C66.8335754,42.6071829 66.7996379,42.7914155 66.823879,43.0037678 C66.5843766,42.8825621 66.3603886,42.7390546 66.1412487,42.5858507 C65.7262406,42.2988357 65.2831127,42.1000584 64.831258,41.8809186 C64.8467723,42.3919216 64.9291922,42.9087425 64.9001028,43.4197456 C64.8244705,43.4342902 64.6101789,43.6010692 64.6130878,43.445926 C64.4744286,42.9077729 64.5209715,42.3104714 64.4589143,41.756804 C63.8703396,41.5376642 63.2778864,41.3262815 62.6951296,41.0935666 C62.4391432,40.985936 62.1492193,40.8637607 61.9455938,40.671771 C61.7603916,40.488508 61.636277,40.201493 61.7313022,39.944537 C61.8583257,39.5809201 62.2345481,39.3036015 62.5632578,39.1280957 C63.1072288,38.8449593 63.6773802,38.6035177 64.2475316,38.3746814 C64.2097154,37.8025907 64.1728689,37.2314697 64.1350527,36.659379 C63.3864866,36.4993875 62.5942865,36.3035192 61.9058383,35.9631737 C61.6430645,35.8177269 61.3065976,35.6141014 61.2794475,35.2824827 C61.242601,34.9043211 61.5276767,34.6745152 61.8195399,34.5038576 C62.4924737,34.139271 63.2332827,33.8852239 63.9556684,33.6369948 C63.9304576,33.2617421 63.8713092,32.8700054 63.9139736,32.4957223 Z M61.8176006,35.1670949 C62.3964788,35.7265802 63.3438222,35.8817235 64.1030545,36.0659561 C64.0691169,35.4463528 64.0216043,34.8277191 63.9847577,34.2081158 C63.2633417,34.4805861 62.4536879,34.726876 61.8176006,35.1670949 Z M64.5044876,36.7253148 C64.5423037,37.2353482 64.5694538,37.7463513 64.6033914,38.2573543 C65.2065107,38.0023376 65.9579858,37.8103479 66.4340816,37.353645 C65.8736267,36.9609386 65.1619071,36.883367 64.5044876,36.7253148 Z M62.1977016,40.1355571 C62.3993878,40.3023361 62.6117401,40.4439043 62.855121,40.5437778 C63.3700027,40.759039 63.8916718,40.9597556 64.4162499,41.1517454 C64.3755248,40.4177239 64.3299514,39.6856418 64.2834085,38.95259 C63.5881728,39.2619068 62.707735,39.55377 62.1977016,40.1355571 Z" id="p11"></path>
                <path d="M50.0160484,33.3722816 C50.246824,33.3189511 50.4999014,33.3141029 50.7297073,33.3732513 C50.8596398,33.551666 50.8538219,34.2692035 50.7287377,34.4524664 C50.5008711,34.4941612 50.2477936,34.4941612 50.0208967,34.4524664 C49.883207,34.1877533 49.899691,33.6447519 50.0160484,33.3722816 Z" id="p12"></path>
                <path d="M27.9769818,33.4508229 C28.7885749,33.4120371 29.6059858,33.3393137 30.3807324,33.6486305 C30.9848214,33.8842543 31.4386153,34.3884698 31.6558159,34.9944981 C31.8972575,35.6393122 31.8545931,36.252128 31.8555628,36.9250618 C31.8507146,37.5747241 31.8991968,38.1662077 31.6897534,38.7945378 C31.5006726,39.3889303 31.1079663,39.8989637 30.5387845,40.1685251 C29.7068289,40.5883815 28.6848229,40.4710544 27.7820831,40.4332382 C27.591063,40.4051185 27.2972605,40.42839 27.1547227,40.2800343 C27.126603,40.1355571 27.1256333,39.9813836 27.123694,39.8349671 C27.1324208,37.8627087 27.1246637,35.8856021 27.126603,33.9143133 C27.1411476,33.8095916 27.1207851,33.6243894 27.213871,33.5536053 C27.4514341,33.4673068 27.727783,33.4711854 27.9769818,33.4508229 Z M28.0244944,34.1906622 C28.0225552,36.0300792 28.028373,37.8694962 28.0225552,39.7079436 C28.5956155,39.7438205 29.2394599,39.780667 29.7979756,39.6245541 C30.2430427,39.4965609 30.5930847,39.1794869 30.7782869,38.7567216 C31.0468787,38.165238 30.9731856,37.5563008 30.9828821,36.9250618 C30.9751249,36.3704247 31.032334,35.7779714 30.8277388,35.2533934 C30.6677474,34.8228709 30.354552,34.4631325 29.914333,34.3079893 C29.3315762,34.0995155 28.6334317,34.1635121 28.0244944,34.1906622 Z" id="p13"></path>
                <path d="M78.3946556,33.4382175 C79.131586,33.3519191 79.9616023,33.4847605 80.4793929,34.0636387 C81.0039709,34.6560919 81.0854211,35.4880475 81.0892997,36.2453405 C81.0757247,37.0443281 81.137782,37.8840409 80.9991227,38.6694535 C80.8905225,39.2434835 80.6422933,39.7903634 80.1371081,40.1151946 C79.5446549,40.5030527 78.7854226,40.4952955 78.1057013,40.4642669 C77.7032986,40.4332382 77.2688975,40.4089971 76.8907358,40.2635503 C76.7288051,40.1239214 76.8054071,39.8087867 76.8403143,39.6264934 C77.2582314,39.5828594 77.6848753,39.7244276 78.1057013,39.7312151 C78.6739134,39.7457598 79.3410294,39.810726 79.7860965,39.3802035 C80.2476477,38.9448328 80.1991654,38.195297 80.2234065,37.6144795 C79.3167882,37.8084086 78.3694448,37.9257356 77.4919159,37.5417561 C76.9382485,37.293527 76.5911155,36.749556 76.5445725,36.1512849 C76.4815456,35.4599278 76.5756011,34.6619098 77.035213,34.1101816 C77.3745888,33.6922645 77.8691079,33.4944569 78.3946556,33.4382175 Z M80.2146797,36.9483332 C80.203044,36.2909138 80.2844942,35.5074404 80.04984,34.8868675 C79.9140897,34.5125844 79.6173783,34.2478713 79.2246719,34.1712693 C78.8329353,34.0995155 78.3723538,34.1159995 78.0145547,34.3099286 C77.6315448,34.5368255 77.4647658,34.9460158 77.4153139,35.3716901 C77.3736192,35.7634268 77.3561656,36.2346744 77.5820929,36.5769591 C77.7799005,36.8920938 78.1425478,37.0375406 78.497438,37.0821443 C79.0627412,37.1480802 79.6581034,37.0462674 80.2146797,36.9483332 Z" id="p14"></path>
                <path d="M85.3615566,33.4721551 C85.9161937,33.5642714 86.4688915,33.7911684 86.6928796,34.349684 C86.9246248,34.9818927 86.8625675,35.7711839 86.3738663,36.2715209 C85.6514806,37.0307531 84.562569,37.4457613 83.8576369,38.2195382 C83.4804449,38.6335767 83.4232358,39.1261565 83.3970554,39.6633399 C84.4927545,39.6866114 85.6029983,39.6226148 86.6938492,39.6933989 C86.7500886,39.8960548 86.7539672,40.1016196 86.7209993,40.3091236 C86.5978543,40.4390561 86.4175003,40.4041489 86.2536303,40.4186936 C85.2180491,40.4148182 84.182468,40.4138453 83.1478566,40.4186936 C83.0004705,40.4041489 82.7881182,40.441965 82.6853358,40.3168808 C82.6417018,39.9648996 82.6562464,39.6032219 82.6669125,39.250271 C82.6921233,38.5734587 83.0043491,37.9315535 83.4969289,37.4719417 C84.1398036,36.8746402 84.9775771,36.4945393 85.6282091,35.9127521 C85.9860082,35.601496 86.0461262,35.0982501 85.8890437,34.6696669 C85.7581415,34.3816823 85.4856712,34.2536891 85.1879901,34.2003586 C84.4113043,34.0636387 83.5269879,34.2478713 82.7425449,34.2847178 C82.7435145,34.0743048 82.7464234,33.8638917 82.7522413,33.6534787 C83.5919541,33.4227032 84.4976027,33.3528887 85.3615566,33.4721551 Z" id="p15"></path>
                <path d="M74.438503,33.4905783 C74.4598352,35.5724067 74.4355941,37.6552046 74.4511084,39.737033 C74.4501388,39.9561728 74.4491691,40.1685251 74.3929297,40.3828167 C74.1417916,40.4332382 73.8567159,40.4458436 73.6113957,40.3605148 C73.5532169,40.064773 73.5735795,39.7467294 73.5716402,39.4461394 C73.5764884,37.7192012 73.5716402,35.992263 73.5735795,34.2643552 C73.1197855,34.3138071 72.6504772,34.4165895 72.1937743,34.3913788 C72.1627457,34.2061765 72.1501403,34.0112778 72.17826,33.8251059 C72.2568013,33.6777199 72.432307,33.685477 72.5758145,33.6515394 C73.1992964,33.5662107 73.8043551,33.4527622 74.438503,33.4905783 Z" id="p16"></path>
                <path d="M90.7430877,33.4876694 C90.7867217,35.5374994 90.7440574,37.5902384 90.7653896,39.6400684 C90.7624806,39.8824797 90.7779949,40.1607679 90.6946055,40.3905738 C90.4386191,40.4342079 90.157422,40.4080275 89.8994964,40.3857256 C89.8733159,38.345592 89.8936785,36.3025495 89.8888303,34.2614463 C89.4272791,34.319625 88.9666976,34.3787734 88.5041769,34.4291949 C88.4925411,34.2081158 88.4712089,33.9705527 88.5070858,33.7514129 C89.2158965,33.5603928 90.0080966,33.4740944 90.7430877,33.4876694 Z" id="p17"></path>
                <path d="M37.0101969,35.9418415 C37.4843534,36.6089574 37.4145389,37.3313431 37.395146,38.1070593 C36.3033255,38.1206343 35.2105353,38.1070593 34.1187148,38.1148165 C34.140047,38.4755245 34.137138,38.8856844 34.3194313,39.2095459 C34.457121,39.4587448 34.7005019,39.6255237 34.9758812,39.6885507 C35.7147508,39.8436939 36.520526,39.6129184 37.2370938,39.6672185 C37.2632743,39.8640565 37.258426,40.0715606 37.258426,40.2703378 C36.5709476,40.4322686 35.8553494,40.5040223 35.1504173,40.4652365 C34.5317836,40.4225721 33.9461179,40.174343 33.6164385,39.6264934 C33.1752499,38.9428935 33.2935467,37.9974894 33.2896681,37.214016 C33.3110003,36.3975748 33.7095245,35.6092532 34.5201479,35.3358132 C35.3414374,35.074009 36.4778616,35.177761 37.0101969,35.9418415 Z M34.109988,37.4544881 C34.9322471,37.4603059 35.7554759,37.4603059 36.5787047,37.4544881 C36.5331314,36.9958459 36.53701,36.4509052 36.1171536,36.1561331 C35.6876008,35.8671788 34.9419436,35.874936 34.5414801,36.2152814 C34.1575006,36.5430215 34.1584702,36.9890583 34.109988,37.4544881 Z" id="p21"></path>
                <path d="M41.6014671,35.3319346 C42.101804,35.497744 42.4828746,35.902086 42.6603197,36.3946658 C42.8852774,36.9987548 42.8406737,37.7424727 42.8319469,38.3804993 C42.8077057,39.0960974 42.5846873,39.8330278 41.9359947,40.2189466 C41.273727,40.5941993 40.4534071,40.4681455 39.731991,40.3905738 C39.7271428,40.9966021 39.76205,41.6249322 39.6893267,42.224173 C39.4372189,42.2280516 39.1540825,42.2571409 38.9126408,42.180539 C38.86028,41.7917112 38.88743,41.3893084 38.8835515,40.9975718 C38.8835515,39.3171766 38.8883997,37.6358117 38.8806425,35.9554165 C38.8961568,35.8177269 38.8544621,35.6005264 38.9494873,35.4928957 C39.2064433,35.361024 39.5254566,35.330965 39.8076234,35.2834524 C40.3806837,35.210729 41.04683,35.1409145 41.6014671,35.3319346 Z M39.7329607,36.0058381 C39.7339303,37.2324393 39.7310214,38.4590405 39.7339303,39.6856418 C40.2420244,39.7292758 40.8878082,39.8592083 41.3677826,39.6546131 C41.8632713,39.4286858 41.965084,38.8721094 41.9854466,38.3824386 C41.9864162,37.8462247 42.0310199,37.2731644 41.9059357,36.7485863 C41.8099408,36.3743033 41.5481366,36.0572293 41.1602785,35.9689916 C40.7045452,35.8768753 40.1925725,35.9554165 39.7329607,36.0058381 Z" id="p22"></path>
                <path d="M53.7695452,35.2116986 C54.3765431,35.1893968 54.9990553,35.2563023 55.5953871,35.3687812 C55.5924782,35.5801638 55.584721,35.7905768 55.5430263,35.9980809 C54.9437855,36.0155345 54.2747303,35.8788146 53.668702,35.9495987 C53.5154981,35.9709308 53.3555066,35.9990506 53.2265438,36.0901972 C53.0403719,36.3335782 53.0743095,36.6904076 53.3302959,36.8727009 C53.9411724,37.3497664 54.7605226,37.6455082 55.3151597,38.1914184 C55.8494342,38.7082394 55.8251931,39.7622437 55.1784397,40.1782215 C54.6974956,40.502083 54.032319,40.4894777 53.4767123,40.4652365 C53.1063078,40.4351775 52.6835425,40.4351775 52.3393184,40.2858522 C52.2171431,40.1481625 52.2859879,39.8475725 52.2617468,39.6720667 C52.96377,39.660431 53.7394861,39.8553297 54.4250253,39.7069739 C54.8623353,39.6197059 54.9825713,39.0272526 54.6722849,38.7402376 C54.3038197,38.3931047 53.8034827,38.1700862 53.3748995,37.9014945 C52.9792843,37.6629618 52.5080367,37.3604325 52.3364095,36.9095474 C52.1890234,36.4770857 52.2404146,35.8826931 52.6108191,35.5704674 C52.9181966,35.2931488 53.3719906,35.2330308 53.7695452,35.2116986 Z" id="p23"></path>
                <path d="M45.0970381,35.3202989 C45.1707312,35.5161672 45.1649133,35.7479124 45.1678222,35.9554165 C45.1590954,36.7960989 45.1649133,37.6367814 45.1600651,38.4774638 C45.1620044,38.8013253 45.1717008,39.220212 45.3966585,39.477168 C45.6061019,39.7166704 45.9066919,39.7447901 46.2072819,39.7409115 C46.6484705,39.7331544 47.0179054,39.5528004 47.4164296,39.386991 C47.4241867,38.0265788 47.4028545,36.6651968 47.4290349,35.3057542 C47.6850213,35.2853917 47.9468255,35.2563023 48.1999029,35.314481 C48.2377191,35.494835 48.2435369,35.6742194 48.2454762,35.858452 C48.2396584,37.0540246 48.2396584,38.2505668 48.2435369,39.4461394 C48.2425673,39.750608 48.2619602,40.0802874 48.1999029,40.3779685 C47.9545827,40.4342079 47.6859909,40.4080275 47.4358225,40.3905738 C47.4290349,40.2858522 47.4222474,40.1811305 47.4164296,40.0773784 C46.9917249,40.2722771 46.5844739,40.4545704 46.1083781,40.4729937 C45.5605286,40.4991741 44.9942558,40.4060882 44.6606978,39.9261138 C44.2330842,39.3084498 44.321322,38.5094621 44.3135648,37.7977425 C44.3329577,36.9890583 44.2767183,36.1706778 44.3387756,35.3658722 C44.5327046,35.2136379 44.8730501,35.2669684 45.0970381,35.3202989 Z" id="p24"></path>
                <path d="M50.0160484,35.3125417 C50.233249,35.270847 50.5813516,35.2136379 50.7626753,35.3687812 C50.8063093,35.6877944 50.7869164,36.0203828 50.787886,36.3432746 C50.7859468,37.5068489 50.7840075,38.6704232 50.790795,39.8339975 C50.7898253,39.9959282 50.7869164,40.1607679 50.7626753,40.3207594 C50.5823213,40.4768723 50.2322793,40.4225721 50.0160484,40.3799077 C49.9345982,40.2034323 49.9384768,40.0269569 49.9345982,39.8359368 C49.9404161,38.5094621 49.9404161,37.1829874 49.9345982,35.8565127 C49.9384768,35.6654926 49.9345982,35.4899868 50.0160484,35.3125417 Z" id="p25"></path>
            </g>
        </g>
    </g>
</svg>