<?xml version="1.0" encoding="UTF-8"?>
<svg width="63px" height="63px" viewBox="0 0 63 63" version="1.1" xmlns="http://www.w3.org/2000/svg" xmlns:xlink="http://www.w3.org/1999/xlink">
    <!-- Generator: Sketch 56.2 (81672) - https://sketch.com -->
    <title>KOOZMETIK</title>
    <desc>Created with Sketch.</desc>
    <g id="Page-1" stroke="none" stroke-width="1" fill="none" fill-rule="evenodd" opacity="0.299497768">
        <g id="01_LANDING_PAGE_desktop" transform="translate(-386.000000, -2716.000000)" fill="#000000" fill-rule="nonzero">
            <g id="KOOZMETIK" transform="translate(386.000000, 2716.000000)">
                <polygon id="Shape" points="9.94185 9.75195 11.7306 9.75195 11.7306 14.868 16.57125 9.75195 18.7659 9.75195 14.5359 14.1264 18.95445 19.92645 16.7886 19.92645 13.31415 15.3477 11.7306 16.97535 11.7306 19.92645 9.94185 19.92645"></polygon>
                <path d="M34.04925,14.8392 C34.04925,12.86235 32.61105,11.21985 30.59055,11.21985 C28.57005,11.21985 27.15975,12.83355 27.15975,14.8392 C27.15975,16.8156 28.59975,18.45855 30.62025,18.45855 C32.63985,18.4581 34.04925,16.84485 34.04925,14.8392 M25.2855,14.8392 C25.2855,11.97495 27.49455,9.5769 30.62025,9.5769 C33.74505,9.5769 35.9253,11.9466 35.9253,14.8392 C35.9253,17.703 33.71535,20.10105 30.59055,20.10105 C27.4653,20.1006 25.2855,17.7309 25.2855,14.8392" id="Shape"></path>
                <path d="M51.10155,14.8392 C51.10155,12.86235 49.66245,11.21985 47.64195,11.21985 C45.62235,11.21985 44.21205,12.83355 44.21205,14.8392 C44.21205,16.8156 45.65205,18.45855 47.67165,18.45855 C49.6926,18.4581 51.10155,16.84485 51.10155,14.8392 M42.33735,14.8392 C42.33735,11.97495 44.5455,9.5769 47.6712,9.5769 C50.796,9.5769 52.97625,11.9466 52.97625,14.8392 C52.97625,17.703 50.7672,20.10105 47.6415,20.10105 C44.51715,20.1006 42.33735,17.7309 42.33735,14.8392" id="Shape"></path>
                <polygon id="Shape" points="9.94185 35.1918 15.94485 27.92385 10.1304 27.92385 10.1304 26.33895 18.27045 26.33895 18.27045 27.6624 12.26655 34.9299 18.27045 34.9299 18.27045 36.5139 9.94185 36.5139"></polygon>
                <polygon id="Shape" points="25.605 26.3394 27.5085 26.3394 30.6045 31.1499 33.7005 26.3394 35.60445 26.3394 35.60445 36.51345 33.81705 36.51345 33.81705 29.21805 30.6045 34.0146 30.54735 34.0146 27.3627 29.2464 27.3627 36.51345 25.605 36.51345"></polygon>
                <polygon id="Shape" points="43.96275 26.3394 51.5079 26.3394 51.5079 27.9378 45.75105 27.9378 45.75105 30.5838 50.85225 30.5838 50.85225 32.18265 45.75105 32.18265 45.75105 34.91505 51.5799 34.91505 51.5799 36.51345 43.96275 36.51345"></polygon>
                <polygon id="Shape" points="13.1688 44.58465 9.94185 44.58465 9.94185 42.9273 18.19845 42.9273 18.19845 44.58465 14.97285 44.58465 14.97285 53.1018 13.1688 53.1018"></polygon>
                <polygon id="Rectangle-path" points="29.7117 42.9273 31.5 42.9273 31.5 53.10225 29.7117 53.10225"></polygon>
                <polygon id="Rectangle-path" transform="translate(30.604546, 14.909645) rotate(-135.028358) translate(-30.604546, -14.909645) " points="29.7103414 8.11490367 31.4987509 8.11490367 31.4987509 21.7043859 29.7103414 21.7043859"></polygon>
                <polygon id="Rectangle-path" transform="translate(47.656871, 14.911830) rotate(-135.008103) translate(-47.656871, -14.911830) " points="46.7629544 8.11801995 48.5507873 8.11801995 48.5507873 21.7056398 46.7629544 21.7056398"></polygon>
                <polygon id="Shape" points="43.96365 42.9273 45.75195 42.9273 45.75195 48.0438 50.59215 42.9273 52.7877 42.9273 48.55815 47.30355 52.97625 53.1018 50.81175 53.1018 47.3373 48.5244 45.75195 50.1516 45.75195 53.1018 43.96365 53.1018"></polygon>
                <path d="M62.775,62.775 L0.225,62.775 L0.225,0.225 L62.775,0.225 L62.775,62.775 Z M2.14425,60.85575 L60.85575,60.85575 L60.85575,2.1438 L2.14425,2.1438 L2.14425,60.85575 Z" id="Shape"></path>
            </g>
        </g>
    </g>
</svg>