<?xml version="1.0" encoding="UTF-8"?>
<svg width="139px" height="50px" viewBox="0 0 139 50" version="1.1" xmlns="http://www.w3.org/2000/svg" xmlns:xlink="http://www.w3.org/1999/xlink">
    <!-- Generator: Sketch 56.2 (81672) - https://sketch.com -->
    <title>_UMAI</title>
    <desc>Created with Sketch.</desc>
    <g id="Page-1" stroke="none" stroke-width="1" fill="none" fill-rule="evenodd" opacity="0.299497768">
        <g id="01_LANDING_PAGE_desktop" transform="translate(-984.000000, -2723.000000)" fill="#000000" fill-rule="nonzero">
            <g id="_UMAI" transform="translate(984.000000, 2723.000000)">
                <path d="M94.4836601,0 C97.3132548,0.271354378 99.6854724,2.60773264 99.9346405,5.45098039 C97.0879795,5.20010559 94.7669609,2.82788807 94.4836601,0 Z" id="p1"></path>
                <path d="M107.202614,0 C106.936463,2.82124142 104.587167,5.22015155 101.751634,5.45098039 C102.02461,2.61606023 104.367081,0.256476493 107.202614,0 Z" id="p2"></path>
                <path d="M56.5342206,9.86448478 C57.8332041,10.5203895 58.7302517,11.6484016 59.2582492,12.9728246 C59.66932,11.8646339 60.3124172,10.873569 61.3062949,10.1906352 C62.8172081,9.13289871 64.7282302,8.92027024 66.5241525,9.19776841 C67.9875643,9.42481236 69.3578,10.0879249 70.3060031,11.2321543 C71.3857488,12.5151328 71.752972,14.230576 71.7712418,15.8613283 C71.7675879,20.4454538 71.7748958,25.0277774 71.7657609,29.6119029 C70.79198,29.5019848 69.8894514,29.2569215 69.1732749,28.5595722 C68.398635,27.83159 68.0259309,26.8405251 68.0241039,25.7936002 C68.0204499,22.4870474 68.0222769,19.1768907 68.0259309,15.8703379 C68.0241039,14.767553 67.8889073,13.6179178 67.4467779,12.59622 C67.1069594,11.834001 66.5954048,11.1654827 65.8262458,10.7870761 C64.174655,9.99782806 62.0297794,10.536607 60.9683034,12.0159965 C59.8885577,13.4791687 59.6364343,15.5549991 59.662012,17.3136888 C59.667493,21.4130935 59.667493,25.5124982 59.662012,29.6119029 C59.0189147,29.5164003 58.4123571,29.4443229 57.838685,29.1163705 C56.6840331,28.4874948 55.9642026,27.2747918 55.9660295,25.9737939 C55.9605486,22.5447094 55.9715105,19.113823 55.9642026,15.6865404 C55.9294899,14.2630109 55.6536158,12.6286548 54.678008,11.5186622 C53.7754794,10.4825489 52.2627391,10.1672101 50.9801985,10.6411193 C49.6611183,11.1024149 48.7512817,12.2826831 48.247035,13.527821 C47.6349964,14.9873892 47.5856679,16.4685807 47.5637441,18.0254536 C47.5564362,21.9320511 47.571052,25.8386487 47.5564362,29.7452462 C46.6740044,29.6227145 45.8609979,29.4226996 45.2197275,28.7685968 C44.4688384,28.0460204 44.2295039,27.098202 44.2660435,26.0855139 C43.8494918,27.2819995 43.1223534,28.1757598 42.0426076,28.8550897 C40.4239025,29.8749856 38.4471091,30.1128412 36.5671457,29.9182321 C34.9484406,29.7326326 33.3516592,29.0893414 32.2920103,27.8297881 C31.26342,26.6026696 30.8925429,25.0061542 30.8888889,23.4420736 C30.8943698,20.016593 30.8870619,16.5839046 30.8907159,13.1620279 C30.877927,11.8394068 31.6123733,10.6176941 32.7834681,9.98341257 C33.3498322,9.66627181 33.9545629,9.59419436 34.5885253,9.51851304 C34.5940063,14.1603005 34.5885253,18.8092958 34.5903523,23.4510833 C34.623238,24.7502792 34.8826693,26.280123 35.7102916,27.3324537 C36.346081,28.1541366 37.3162079,28.6100264 38.361241,28.6262439 C39.8721543,28.7163407 41.3775866,28.143325 42.3678103,27.0045013 C43.4658258,25.7863925 43.7910284,24.1340171 43.8166062,22.5501152 C43.8202601,19.4219541 43.8129522,16.2901891 43.8166062,13.1620279 C43.8202601,12.2232192 44.1673865,11.3636956 44.8159647,10.6807619 C45.5431032,9.90773125 46.515057,9.59239242 47.5582632,9.51851304 C47.5527822,10.704187 47.5966298,11.8970687 47.5198966,13.0809408 C47.8505801,12.0790643 48.3858855,11.1889078 49.2007191,10.4969644 C51.1482808,8.79773859 54.292515,8.68962242 56.5342206,9.86448478 Z" id="p3"></path>
                <path d="M88.1239054,9.7948468 C89.5603889,10.3712848 90.7913983,11.4016678 91.54358,12.7400848 C92.3911603,14.2208099 92.6957021,15.9951582 92.6645141,17.6776367 C92.6553411,21.7127028 92.6663487,25.7495703 92.6590103,29.7864378 C91.8279413,29.6819584 91.0537446,29.543253 90.3859541,29.0100478 C89.5163587,28.3705619 89.1145836,27.4338501 88.987997,26.3962617 C88.5183421,27.3383776 87.8542208,28.156199 86.9589411,28.7398425 C85.3169837,29.8440816 83.3209504,30.0602458 81.3799549,29.9575678 C79.7636817,29.8512871 78.1602505,29.4369722 76.9457524,28.3309318 C75.8761868,27.3437817 75.3900206,25.9477209 75.4065319,24.5246395 C75.3790131,23.1826197 75.7862919,21.8622164 76.7274363,20.8678608 C77.8428666,19.6753547 79.3857562,19.0845057 80.9653377,18.7422456 C83.528259,18.2054377 86.360865,18.3855746 88.9898316,18.35315 C89.0246888,16.5715962 89.0173504,14.9125356 88.268838,13.2498722 C87.7037844,11.9853113 86.6067,11.0017639 85.2417655,10.636086 C83.2695819,10.1028809 81.0497288,10.4523464 79.3178764,11.5133526 C78.6299054,11.9294688 78.0813632,12.4428589 77.4722795,12.9526463 C77.3255124,12.3960234 77.1255421,11.9384757 77.6117083,11.4719212 C80.3929458,8.97522399 84.6748774,8.47444347 88.1239054,9.7948468 Z M88.9916662,19.4790055 C87.5533481,19.4826082 86.1131954,19.4718 84.6748774,19.4790055 C83.2017021,19.5024233 81.5707522,19.9077313 80.5121941,20.9741416 C79.4444631,22.0351478 79.1252446,23.6239551 79.257335,25.0650501 C79.3674103,26.2503508 79.8480728,27.3960214 80.9249767,28.0301032 C82.357791,28.8821506 84.3629972,28.7038151 85.8141574,27.9796649 C87.2121145,27.3149598 88.1862814,26.0594057 88.6339212,24.6165093 C89.1806289,22.9862705 88.9421322,21.2263332 88.9916662,19.4790055 Z" id="p4"></path>
                <path d="M99.0319744,9.08496732 C100.130731,9.16383243 101.148829,9.55815798 101.84429,10.4418057 C102.469846,11.1928166 102.668805,12.1087273 102.659843,13.0676554 C102.654466,18.4018046 102.661636,23.7377462 102.656258,29.0718954 C102.032494,28.9768988 101.448164,28.908788 100.890719,28.5933276 C99.7507369,27.9857078 99.005088,26.7399975 99.0265971,25.4476852 C99.0319744,19.9934459 99.0230123,14.5356218 99.0319744,9.08496732 Z" id="p5"></path>
                <path d="M36.4558824,40.8840033 C36.7205882,40.8823529 36.9836601,40.8823529 37.248366,40.8823529 C36.870915,41.3724956 36.5228758,41.8890432 36.124183,42.3610325 C35.9689542,42.5805239 35.6781046,42.5838246 35.4313725,42.6993464 C35.7320261,42.0656266 36.1013072,41.4847168 36.4558824,40.8840033 Z" id="p7"></path>
                <path d="M87.2156863,40.8827738 C87.4820261,40.8811224 87.748366,40.8844252 88.0147059,40.8910309 C88.3660131,41.4904999 88.7320261,42.0718031 89.0326797,42.6993464 C88.8398693,42.6365921 88.6519608,42.567232 88.4656863,42.4912663 C88,42.0024431 87.6356209,41.4128827 87.2156863,40.8827738 Z" id="p8"></path>
                <path d="M3.06234853,42.7110567 C4.04059876,42.7574589 4.72792588,43.3235649 5.33188906,44.1124012 C5.1311351,44.2775928 4.92867984,44.4409283 4.72452327,44.6042638 C4.47953538,44.3017219 4.21413184,43.934217 3.88748133,43.737472 C3.15421899,43.3124284 2.21339747,43.3718231 1.55499253,43.9360731 C0.558027955,44.760175 0.452547061,46.5345926 1.27257595,47.5424469 C1.94459132,48.390678 3.17463465,48.5521574 4.02358571,47.9285127 C4.35704144,47.674229 4.61393846,47.2733146 4.86403026,46.9262266 C5.06138161,47.0914182 5.25703165,47.260322 5.45098039,47.4310818 C5.16856381,47.8227158 4.92697853,48.2106377 4.54758757,48.500187 C3.42302514,49.3558423 1.68088908,49.2296285 0.736664953,48.1141212 C0.328351815,47.6426756 0.108883503,47.0561526 0,46.4250836 L0,45.3318493 C0.23307875,43.6873576 1.54478471,42.5718503 3.06234853,42.7110567 Z" id="p9"></path>
                <path d="M10.3518057,42.8372398 C11.1267694,42.6200265 12.0011836,42.653444 12.7404952,42.9801922 C14.1234207,43.589132 14.7295061,45.0706381 14.481818,46.5057311 C14.2528941,48.0596416 12.8005409,49.1494211 11.2318492,49.0528819 C9.60498845,49.0473123 8.25020934,47.7570282 8.19204015,46.1455654 C8.04943182,44.6789116 8.89569966,43.2549577 10.3518057,42.8372398 Z M10.3912107,43.6503973 C8.85441831,44.3243155 8.56169595,46.4871658 9.70819185,47.6363541 C10.5394483,48.4699334 11.980543,48.5330552 12.8680922,47.7514586 C13.978936,46.845475 13.9639246,44.8849857 12.8493279,43.9864281 C12.1738148,43.4127622 11.19995,43.3050839 10.3912107,43.6503973 Z" id="p10"></path>
                <path d="M18.6003622,42.7619823 C19.3565395,42.875265 19.9815079,43.2578262 20.6220142,43.6738151 C20.4821732,43.9003805 20.3388793,44.1269459 20.1955855,44.3516542 C19.534362,43.8948092 18.8904028,43.4936771 18.0824326,43.4546781 C17.4919929,43.4175363 16.6805698,43.5772463 16.4716715,44.2736563 C16.4785772,44.7230728 16.8065993,44.9589237 17.1708765,45.0722064 C17.9702145,45.2987717 18.9301108,45.1632039 19.7277224,45.4547676 C20.373408,45.6980468 20.8982433,46.299745 20.8947905,47.0667246 C20.9189605,48.0101279 20.2491049,48.6563964 19.4618518,48.9052469 C18.0340925,49.3082361 16.6356826,48.886676 15.4444444,48.0082708 C15.5860119,47.7687058 15.7293057,47.5309979 15.874326,47.295147 C16.941261,48.1141252 18.3793789,48.7418227 19.6189572,47.9637006 C20.2249348,47.5644256 20.3129828,46.6878775 19.6569387,46.2848883 C18.7212125,45.7649022 17.220943,46.1976049 16.2644997,45.4974807 C15.5808326,45.0480642 15.5393982,44.0136632 16.0607807,43.4063937 C16.6702112,42.7025553 17.7716749,42.6097007 18.6003622,42.7619823 Z" id="p11"></path>
                <path d="M24.5628941,42.7747094 C24.796284,42.7360617 25.0277917,42.7186702 25.2630637,42.6993464 C26.0535778,43.9959764 26.909968,45.2500938 27.7117752,46.5389942 C28.509818,45.2539586 29.3511508,43.9959764 30.1717797,42.7244674 C30.4108161,42.7263998 30.6498525,42.7302646 30.8888889,42.7302646 C30.8888889,44.8404283 30.8888889,46.9505921 30.8888889,49.0588235 C30.6216198,49.0588235 30.356233,49.0588235 30.0889639,49.0588235 C30.0889639,47.4568768 30.0870818,45.8568625 30.0908461,44.2568482 C29.2984499,45.4665209 28.5022893,46.6703964 27.7117752,47.8820014 C26.9193789,46.6742612 26.1213362,45.4703857 25.3383508,44.2549159 C25.3345864,45.8568625 25.3383508,47.4568768 25.3364686,49.0588235 C25.0691996,49.0588235 24.8019305,49.0588235 24.5365436,49.0588235 C24.5572476,46.9660512 24.4932536,44.863617 24.5628941,42.7747094 Z" id="p12"></path>
                <path d="M33.6143791,42.6993464 C35.0446363,42.6993464 36.4765605,42.6993464 37.9068178,42.6993464 C37.9068178,42.9576091 37.9068178,43.2158719 37.9068178,43.4760764 C36.7266055,43.4760764 35.5447263,43.4760764 34.364514,43.4760764 C34.364514,44.0741586 34.364514,44.6741825 34.364514,45.2722646 C35.0729748,45.2722646 35.7814355,45.2722646 36.4898963,45.2722646 C36.4898963,45.5305274 36.4898963,45.7907319 36.4898963,46.0489947 C35.7814355,46.0489947 35.0729748,46.0489947 34.364514,46.0489947 C34.364514,46.7927137 34.364514,47.5383745 34.364514,48.2820935 C35.6280746,48.2820935 36.8933022,48.2820935 38.1568627,48.2820935 C38.1568627,48.5403562 38.1568627,48.8005608 38.1568627,49.0588235 C36.6432572,49.0588235 35.1279846,49.0588235 33.6143791,49.0588235 C33.6143791,46.9383505 33.6143791,44.8178776 33.6143791,42.6993464 Z" id="p13"></path>
                <path d="M39.9738562,42.6993464 C41.7908497,42.6993464 43.6078431,42.6993464 45.4248366,42.6993464 C45.4248366,42.9576091 45.4248366,43.2158719 45.4248366,43.4760764 C44.6322814,43.4760764 43.8397261,43.4760764 43.0454404,43.4760764 C43.0454404,45.3363449 43.0454404,47.1985551 43.0454404,49.0588235 C42.7997137,49.0588235 42.5557174,49.0588235 42.3099907,49.0568817 C42.3099907,47.1966133 42.3099907,45.3363449 42.3099907,43.4760764 C41.5312792,43.4760764 40.7525677,43.4760764 39.9738562,43.4760764 C39.9738562,43.2178137 39.9738562,42.9576091 39.9738562,42.6993464 Z" id="p14"></path>
                <path d="M47.2765272,42.7765714 C47.5625013,42.7379589 47.8524749,42.7205833 48.1424486,42.6993464 C48.1584471,44.8191721 48.1444484,46.9389978 48.148448,49.0588235 C47.8484753,49.0588235 47.5485025,49.0588235 47.2485298,49.0588235 C47.2705278,46.9660266 47.2045338,44.8655071 47.2765272,42.7765714 Z" id="p15"></path>
                <path d="M56.2882686,43.5890181 C57.4859104,44.7572829 57.5403487,46.9109703 56.4928814,48.1947143 C56.179392,48.5815696 55.693202,48.8567951 55.2802221,49.1204727 C55.4172563,49.3995474 55.5524134,49.6786222 55.6856933,49.9596216 C55.3834671,49.963471 55.0812408,49.9653956 54.7790146,49.9673203 C54.6720152,49.7517591 54.5650159,49.5381225 54.4561394,49.3244859 C53.6320567,49.2763696 52.8830612,49.2532738 52.1903812,48.7336173 C50.5872682,47.6423387 50.4370937,44.9228031 51.8130677,43.5909428 C52.9806747,42.3995822 55.1187845,42.4053561 56.2882686,43.5890181 Z M54.0882118,48.5507752 C53.9605634,48.2678511 53.8329151,47.984927 53.7052667,47.7020029 C54.007493,47.7020029 54.307842,47.7039276 54.6100683,47.7058522 C54.7245763,47.9329614 54.8390844,48.1600705 54.9554697,48.3891043 C55.4566771,48.0176461 55.9259725,47.7077769 56.1737605,47.0976617 C56.6486874,45.9544174 56.344584,44.5109272 55.2802221,43.8392231 C54.2534038,43.1848409 52.8154827,43.461991 52.1396973,44.5032286 C51.4319999,45.5617881 51.5821744,47.151552 52.5620632,47.9791531 C53.0125867,48.3775564 53.5306889,48.429522 54.0882118,48.5507752 Z" id="p16"></path>
                <path d="M59.0552531,42.6993464 C59.293849,42.6993464 59.5324449,42.6993464 59.7693605,42.6993464 C59.7811223,44.0809174 59.7491975,45.4643862 59.7777618,46.8459572 C59.8180879,47.3545576 59.8432917,47.9162952 60.3389663,48.1193558 C60.8682459,48.3603716 61.7823035,48.3565761 62.3115831,48.1174581 C62.7837342,47.8973176 62.8139787,47.3298867 62.8559851,46.8326729 C62.9097532,45.4567952 62.8610258,44.0752241 62.8778283,42.6993464 C63.1164243,42.6993464 63.3533399,42.6993464 63.5919358,42.6993464 C63.5868951,44.0144957 63.6003371,45.3296451 63.5919358,46.6447944 C63.5717728,47.2198164 63.5583308,47.918193 63.2088382,48.3793493 C62.8324615,48.876563 62.210768,49.0037131 61.6630055,49.0473616 C61.0009859,49.0872146 60.1608595,49.0435661 59.6030155,48.5824098 C59.1207829,48.1554133 59.0686951,47.4779121 59.0535728,46.8326729 C59.0485321,45.4548974 59.0602938,44.0771219 59.0552531,42.6993464 Z" id="p17"></path>
                <path d="M67.2287582,42.6993464 C68.6717241,42.6993464 70.1163718,42.6993464 71.5593377,42.6993464 C71.5593377,42.9576091 71.5593377,43.2158719 71.5593377,43.4760764 C70.3535026,43.4760764 69.1493492,43.4760764 67.943514,43.4760764 C67.943514,44.0741586 67.943514,44.6741825 67.943514,45.2722646 C68.6717241,45.2722646 69.401616,45.2722646 70.129826,45.2722646 C70.129826,45.5305274 70.129826,45.7907319 70.129826,46.0489947 C69.401616,46.0489947 68.6717241,46.0489947 67.943514,46.0489947 C67.943514,46.7927137 67.943514,47.5383745 67.943514,48.2820935 C69.2183021,48.2820935 70.494772,48.2820935 71.7712418,48.2820935 C71.7695601,48.5403562 71.7695601,48.8005608 71.7712418,49.0588235 C70.2559594,49.0588235 68.7423588,49.0588235 67.2287582,49.0588235 C67.2287582,46.9383505 67.2287582,44.8178776 67.2287582,42.6993464 Z" id="p18"></path>
                <path d="M76.7337316,42.762335 C77.4889964,42.8775176 78.1250088,43.2509324 78.7644779,43.6745073 C78.6296709,43.901157 78.4931356,44.1278068 78.3531437,44.3507409 C77.6773805,43.9030148 77.0396398,43.4924444 76.2204281,43.4590043 C75.7174943,43.4237063 74.9172939,43.564898 74.6805175,44.1203756 C74.4558392,44.4975059 74.8343358,44.9136497 75.1627118,45.023259 C75.9715537,45.3149312 76.9152026,45.1588773 77.7361425,45.4152516 C78.2338914,45.5750211 78.6763349,45.8815555 78.906198,46.3980197 C79.1568008,47.0370977 79.0565597,47.819225 78.5778221,48.3078224 C77.9245267,49.0137806 76.911746,49.1233899 76.0337723,49.0305007 C75.1298742,48.9450426 74.3279454,48.5456189 73.5882353,48.0012879 C73.7282272,47.7653493 73.8699473,47.5294106 74.0099392,47.2934719 C74.8032265,47.8582385 75.5809591,48.3264003 76.5626304,48.3171113 C77.193458,48.3189691 77.9867453,48.0755993 78.2200651,47.3677833 C78.3583286,46.7918701 78.0524205,46.3422862 77.5494867,46.1657966 C76.5902832,45.8499732 75.2750509,46.1323565 74.3849791,45.489563 C73.7351403,45.0604147 73.6867481,43.9828996 74.2052365,43.4199908 C74.823966,42.6991703 75.8851389,42.6099966 76.7337316,42.762335 Z" id="p19"></path>
                <path d="M88.2543307,42.8319957 C88.449679,42.7800895 88.6450274,42.735873 88.8421517,42.6993464 C89.8242212,44.8140456 90.767221,46.9479693 91.7581699,49.0588235 C91.4793545,49.0588235 91.1987633,49.0588235 90.918172,49.0588235 C90.6571155,48.497467 90.3960591,47.9341881 90.1261232,47.3766765 C89.0801215,47.3766765 88.0341198,47.3766765 86.9881181,47.3766765 C86.7288376,47.9361105 86.469557,48.4955446 86.21738,49.0588235 C85.9438923,49.0588235 85.6721805,49.0569011 85.3986928,49.0549786 C86.1942934,47.2401822 87.0325155,45.4465329 87.8352197,43.6355814 C87.963084,43.3664379 88.0767413,43.0665351 88.2543307,42.8319957 Z M87.3397452,46.607695 C88.1548806,46.607695 88.9682401,46.607695 89.7833756,46.607695 C89.373144,45.7195213 88.9629125,44.8294252 88.550905,43.943174 C88.1424493,44.8275027 87.7251142,45.709909 87.3397452,46.607695 Z" id="p20"></path>
                <path d="M99.0261438,42.7012876 C99.328976,42.7012876 99.6318083,42.7012876 99.9346405,42.6993464 C99.9346405,44.8191721 99.9346405,46.9389978 99.9346405,49.0588235 C99.6318083,49.0588235 99.328976,49.0588235 99.0261438,49.0588235 C99.0261438,46.9389978 99.0261438,44.8211133 99.0261438,42.7012876 Z" id="p21"></path>
                <path d="M102.660131,42.7012876 C102.908825,42.7012876 103.15939,42.7012876 103.408085,42.7012876 C104.204655,43.982501 105.036754,45.2404195 105.833325,46.5235741 C106.641115,45.2462432 107.445165,43.9689124 108.267914,42.7032289 C108.518479,42.7012876 108.767173,42.7012876 109.017738,42.6993464 C109.019608,44.8191721 109.017738,46.9389978 109.019608,49.0588235 C108.754084,49.0588235 108.488561,49.0588235 108.223037,49.0588235 C108.223037,47.4340121 108.223037,45.8092006 108.223037,44.1843891 C107.437686,45.4248366 106.622416,46.6439305 105.829585,47.8804955 C105.051713,46.6497542 104.242053,45.4384252 103.454832,44.2135076 C103.452962,45.8286129 103.454832,47.4437182 103.454832,49.0588235 C103.189308,49.0588235 102.925654,49.0588235 102.660131,49.0588235 C102.660131,46.9389978 102.660131,44.8191721 102.660131,42.7012876 Z" id="p22"></path>
                <path d="M111.777614,42.7334438 C112.686565,42.665575 113.603013,42.7237483 114.515712,42.7024181 C115.261614,42.7140527 116.044999,42.6384274 116.66346,43.1600482 C117.64925,44.0268308 117.195712,45.9911501 115.885698,46.2296608 C114.791209,46.3828505 113.65174,46.2587474 112.54788,46.2955905 C112.54788,47.2166682 112.54788,48.1377459 112.54788,49.0588235 C112.281754,49.0588235 112.015628,49.0588235 111.751377,49.0588235 C111.771992,46.9529491 111.710146,44.8373791 111.777614,42.7334438 Z M112.54788,43.4858189 C112.54788,44.1625686 112.54788,44.8412574 112.54788,45.5180071 C113.584272,45.4831031 114.665642,45.6130235 115.687041,45.4404426 C116.376719,45.2988875 116.524775,44.4010792 116.148076,43.8755801 C115.885698,43.5207229 115.484635,43.5032709 115.089195,43.4838797 C114.24209,43.4664277 113.394985,43.4896971 112.54788,43.4858189 Z" id="p23"></path>
                <path d="M120.990567,42.7669593 C121.175157,42.7341188 121.363297,42.7109372 121.553212,42.6993464 C122.566681,44.791483 123.482531,46.9473689 124.464052,49.0568917 C124.183618,49.0568917 123.903183,49.0568917 123.622748,49.0568917 C123.363612,48.4928069 123.104477,47.928722 122.843566,47.366569 C121.794598,47.366569 120.743856,47.366569 119.693113,47.366569 C119.441077,47.928722 119.19614,48.4947387 118.944104,49.0588235 C118.665444,49.0568917 118.38501,49.0549599 118.104575,49.0510963 C118.92458,47.2410022 119.742811,45.4289762 120.545067,43.609223 C120.676409,43.323317 120.809527,43.0200248 120.990567,42.7669593 Z M120.051644,46.5957818 C120.871649,46.5919182 121.689879,46.59385 122.509884,46.5919182 C122.096332,45.687837 121.682779,44.7856876 121.265677,43.8835382 C120.862774,44.7876194 120.470521,45.697496 120.051644,46.5957818 Z" id="p24"></path>
                <path d="M129.773915,42.7777354 C130.57342,42.9243046 131.09005,43.4753309 131.610068,44.1061354 C131.411885,44.273113 131.213703,44.4363801 131.013826,44.5977918 C130.548012,43.9873957 130.058485,43.5013052 129.292856,43.4660544 C128.135944,43.3621572 127.150113,44.3120745 127.040012,45.5625516 C126.863849,46.887241 127.690457,48.1896668 128.938838,48.2954193 C129.939914,48.4067377 130.608992,47.8037628 131.132397,46.9410449 C131.332273,47.1006014 131.53215,47.2620131 131.732026,47.4234248 C131.464395,47.7981969 131.228947,48.1766796 130.876623,48.4623969 C129.738343,49.3696422 127.947925,49.2434813 126.995971,48.0727824 C126.218486,47.1655371 126.113466,45.6812913 126.49628,44.5588304 C127.031542,43.1543627 128.435759,42.4530566 129.773915,42.7777354 Z" id="p25"></path>
                <path d="M133.54902,42.6993464 C135.366013,42.6993464 137.183007,42.6993464 139,42.6993464 L139,43.4760764 C138.221289,43.4760764 137.442577,43.4760764 136.663866,43.4760764 C136.663866,45.3363449 136.663866,47.1966133 136.663866,49.0568817 C136.418139,49.0588235 136.174143,49.0588235 135.928416,49.0588235 C135.928416,47.1985551 135.928416,45.3363449 135.928416,43.4760764 C135.13413,43.4760764 134.341575,43.4760764 133.54902,43.4760764 C133.54902,43.2158719 133.54902,42.9576091 133.54902,42.6993464 Z" id="p26"></path>
            </g>
        </g>
    </g>
</svg>