<?xml version="1.0" encoding="UTF-8"?>
<svg width="126px" height="21px" viewBox="0 0 126 21" version="1.1" xmlns="http://www.w3.org/2000/svg" xmlns:xlink="http://www.w3.org/1999/xlink">
    <!-- Generator: Sketch 56.2 (81672) - https://sketch.com -->
    <title>BAIOBAY</title>
    <desc>Created with Sketch.</desc>
    <g id="Page-1" stroke="none" stroke-width="1" fill="none" fill-rule="evenodd" opacity="0.299497768">
        <g id="01_LANDING_PAGE_desktop" transform="translate(-764.000000, -2737.000000)" fill="#010101" fill-rule="nonzero">
            <g id="BAIOBAY" transform="translate(764.000000, 2737.000000)">
                <path d="M0.11287082,0.156641023 C2.49475423,0.153127155 4.87835246,0.158355842 7.26195069,0.153127155 C8.6080835,0.144637291 9.92506439,0.791124005 10.7224552,1.87831917 C11.452968,2.85919556 11.746202,4.14188008 11.4752606,5.33882365 C11.2626231,6.41915953 10.6521476,7.33658763 9.82731972,8.0516671 C12.6276189,9.26232922 14.2858488,12.4724701 13.6719436,15.4596846 C13.1334905,18.3422951 10.5372547,20.5904227 7.60148482,20.6881673 C5.10470855,20.7087452 2.60450264,20.6933118 0.107726363,20.6967414 C0.116300458,13.8494697 0.106011545,7.00219795 0.11287082,0.156641023 Z M1.52073711,1.58679996 C1.51730747,3.55884166 1.52245193,5.53088336 1.51730747,7.50463988 C3.50821218,7.49435097 5.50426135,7.5337918 7.49345123,7.48063241 C9.36431862,7.33144317 10.619566,5.21878633 9.99708678,3.47824517 C9.61982663,2.42363157 8.57893158,1.5902296 7.43857703,1.58851478 C5.46653533,1.58337032 3.49277881,1.58851478 1.52073711,1.58679996 Z M1.52073711,8.8970728 C1.51730747,12.3610069 1.52245193,15.824941 1.51730747,19.2888751 C3.5459382,19.2854455 5.57628374,19.3008789 7.60319964,19.2820159 C10.1514205,19.1499748 12.305233,16.9858734 12.3721109,14.4290785 C12.5367335,11.697372 10.3657728,9.09599179 7.60662928,8.91936545 C5.57971338,8.8696357 3.54765302,8.90907653 1.52073711,8.8970728 Z" id="p1"></path>
                <path d="M25.7717056,0.14635211 C28.2187521,7.0159165 30.6915209,13.875192 33.1488563,20.7430416 C32.649844,20.7516156 32.1525466,20.7516156 31.6552491,20.7413267 C30.2988274,16.9481474 28.9235426,13.1618273 27.5705506,9.36864799 C27.4916689,9.19373646 27.4522281,8.92793954 27.3167574,8.79589849 C26.2895809,8.77189102 25.2572599,8.78903921 24.2283686,8.79075403 C22.8307912,12.7794227 21.4246397,16.762947 20.0167734,20.7464712 C19.5211908,20.7499008 19.0238933,20.7499008 18.5265958,20.7447564 C20.8844718,14.055248 23.2320588,7.36402473 25.577931,0.671086684 C25.6413793,0.496175159 25.7065424,0.321263635 25.7717056,0.14635211 Z M24.7273809,7.42747303 C25.4424603,7.42918785 26.1575398,7.42918785 26.8709045,7.42747303 C26.5039332,6.43973736 26.1575398,5.4434276 25.7974278,4.45226229 L25.7717056,4.50199204 C25.3738676,5.45200169 25.0634854,6.45174109 24.7273809,7.42747303 Z" id="p2"></path>
                <path d="M39.7800609,0.154926204 C40.243062,0.154926204 40.7043483,0.154926204 41.1673494,0.156641023 C41.1724938,7.01934614 41.1673494,13.8820513 41.170779,20.7464712 C40.7060631,20.7499008 40.243062,20.7499008 39.7783461,20.748186 C39.7783461,13.8837661 39.7749165,7.01934614 39.7800609,0.154926204 Z" id="p3"></path>
                <path d="M56.2183146,0.326408091 C59.1386511,-0.0868632564 62.1653064,0.789409186 64.3825672,2.74087306 C66.4780759,4.54486251 67.7864827,7.20283176 67.9082348,9.96883459 C68.019698,12.0471951 67.4812449,14.1444185 66.3751868,15.9055375 C65.1696691,17.8484273 63.3005165,19.3729013 61.146704,20.1428549 C59.3941591,20.7841972 57.454699,20.9110938 55.6284169,20.549267 C53.2208112,20.075977 51.017269,18.693833 49.5270914,16.7457988 C48.1569511,14.9761057 47.371564,12.7245485 47.4092901,10.4832803 C47.3681344,7.57323263 48.6799708,4.72663331 50.8577908,2.807751 C52.3496832,1.47705155 54.2376988,0.602493929 56.2183146,0.326408091 Z M55.7021541,1.85259688 C53.1916593,2.41848711 51.0018356,4.11272815 49.8134661,6.39172243 C48.4107443,9.02911385 48.479337,12.3335698 49.9918073,14.9092278 C51.1458804,16.9087066 53.0887702,18.4211768 55.3163199,19.0265079 C57.492425,19.6369834 59.888027,19.3591827 61.8686428,18.2737024 C65.1267986,16.545165 67.0216735,12.7554153 66.4043387,9.10971034 C66.0356526,6.70896392 64.6226419,4.50542168 62.6077297,3.15242959 C60.6013916,1.78571895 58.0668893,1.31071412 55.7021541,1.85259688 Z" id="p4"></path>
                <path d="M73.7369042,0.154926204 C76.0999246,0.153211385 78.462945,0.158355842 80.8259654,0.153211385 C82.0537757,0.132633559 83.2712971,0.635075488 84.0926953,1.55593322 C85.1044384,2.64655802 85.4508319,4.22762102 85.0409901,5.6526355 C84.7820525,6.61121925 84.2058734,7.39660629 83.461642,8.03794855 C84.2916143,8.41863834 85.023842,8.94165809 85.6394619,9.61901154 C87.3577104,11.4693011 87.9338896,14.262741 86.9667317,16.6171874 C86.0355851,18.9922115 83.6691351,20.6470117 81.1157698,20.6933118 C78.6550047,20.7018859 76.1942396,20.6984563 73.7334745,20.6950266 C73.738619,13.8494697 73.7317597,7.00219795 73.7369042,0.154926204 Z M75.1430556,1.58851478 C75.1430556,3.56055648 75.1413408,5.53259818 75.1430556,7.50463988 C77.0756565,7.49949542 79.011687,7.52350289 80.9442879,7.49092133 C82.7637107,7.48920651 84.1441399,5.51716481 83.7291537,3.79205703 C83.442779,2.5539578 82.2921355,1.56793695 81.0043065,1.58679996 C79.049413,1.58679996 77.0962343,1.58337032 75.1430556,1.58851478 Z M75.1447705,8.89878762 C75.1413408,12.3610069 75.1430556,15.824941 75.1430556,19.2871603 C77.1511085,19.2888751 79.1608762,19.2974492 81.1689291,19.2854455 C83.4342049,19.1979897 85.4422578,17.4968894 85.9069737,15.2813435 C86.4540009,12.8788822 85.1010088,10.2980798 82.8563109,9.31720342 C82.0452016,8.94165809 81.1929366,8.88335425 80.3115197,8.89878762 C78.5898416,8.89535798 76.8664486,8.89535798 75.1447705,8.89878762 Z" id="p5"></path>
                <path d="M109.84413,0.156641023 C110.476898,0.153211385 111.107952,0.158355842 111.74072,0.149781748 C113.841373,2.33274617 115.888867,4.57058479 117.996379,6.7432603 C120.014721,4.53800323 122.05707,2.35675363 124.080557,0.156641023 C124.70818,0.154926204 125.337519,0.154926204 125.965142,0.156641023 C123.542103,2.80603618 121.098487,5.43656832 118.677162,8.08767829 C118.675447,12.1912398 118.673733,16.2948014 118.677162,20.398363 C118.214161,20.4019472 117.749445,20.4035074 117.286444,20.4000778 C117.288159,16.4645685 117.279585,12.5273443 117.289874,8.59183504 C117.272726,8.38262714 117.343033,8.08939311 117.164692,7.94020387 C114.72279,5.35597184 112.287747,2.74601752 109.84413,0.156641023 Z" id="p6"></path>
                <path d="M100.345749,0.153211385 C102.773932,7.0244906 105.260419,13.8803364 107.71261,20.7430416 C107.213598,20.7516156 106.712871,20.7516156 106.213859,20.7396119 C104.793989,16.752658 103.344967,12.7759931 101.923382,8.79075403 C100.875628,8.79246885 99.8244436,8.76503175 98.7784041,8.80447258 C97.3996897,12.7931413 95.9763901,16.7680914 94.5805275,20.7499008 C94.08323,20.7499008 93.5859326,20.748186 93.0886351,20.7464712 C95.4499407,14.0518183 97.7940981,7.35030618 100.150259,0.653938495 C100.213708,0.487601065 100.280585,0.319548816 100.345749,0.153211385 Z M100.352608,4.39738809 C99.9787773,5.40227194 99.6358135,6.41915953 99.2739868,7.42747303 C99.9856366,7.42918785 100.699001,7.42918785 101.412366,7.42575821 C101.091695,6.40372616 100.678423,5.4159905 100.352608,4.39738809 Z" id="p7"></path>
            </g>
        </g>
    </g>
</svg>