<?xml version="1.0" encoding="UTF-8"?>
<svg width="90px" height="116px" viewBox="0 0 90 116" version="1.1" xmlns="http://www.w3.org/2000/svg" xmlns:xlink="http://www.w3.org/1999/xlink">
    <!-- Generator: Sketch 56.2 (81672) - https://sketch.com -->
    <title>shoppingBAG</title>
    <desc>Created with Sketch.</desc>
    <defs>
        <polygon id="path-1" points="0.420593023 0.324418605 37.9568721 0.324418605 37.9568721 32.229314 0.420593023 32.229314"></polygon>
        <polygon id="path-3" points="0.000418604651 0.202395349 71.2772791 0.202395349 71.2772791 91.0465116 0.000418604651 91.0465116"></polygon>
        <polygon id="path-5" points="0.158755814 0.202395349 24.8574767 0.202395349 24.8574767 91.0465116 0.158755814 91.0465116"></polygon>
        <polygon id="path-7" points="0.157395349 0.439534884 24.8588372 0.439534884 24.8588372 8.37209302 0.157395349 8.37209302"></polygon>
        <polygon id="path-9" points="0.550360465 0.324418605 38.0845465 0.324418605 38.0845465 32.229314 0.550360465 32.229314"></polygon>
    </defs>
    <g id="Page-1" stroke="none" stroke-width="1" fill="none" fill-rule="evenodd">
        <g id="01_LANDING_PAGE_desktop" transform="translate(-1103.000000, -1926.000000)">
            <g id="ESHOP-B2B" transform="translate(0.000000, 1496.000000)">
                <g id="shoppingBAG" transform="translate(1103.000000, 429.000000)">
                    <g id="Group-3" transform="translate(30.348837, 0.722093)">
                        <mask id="mask-2" fill="white">
                            <use xlink:href="#path-1"></use>
                        </mask>
                        <g id="Clip-2"></g>
                        <path d="M36.5880349,32.229314 C35.8335,32.229314 35.2212907,31.6171047 35.2212907,30.8615233 L35.2212907,19.091407 C35.2212907,10.2504767 28.0286163,3.05884884 19.1887326,3.05884884 C10.3488488,3.05884884 3.15722093,10.2504767 3.15722093,19.091407 L3.15722093,30.8615233 C3.15722093,31.6171047 2.54501163,32.229314 1.78838372,32.229314 C1.03384884,32.229314 0.420593023,31.6171047 0.420593023,30.8615233 L0.420593023,19.091407 C0.420593023,8.7435 8.83977907,0.324313953 19.1887326,0.324313953 C29.537686,0.324313953 37.9568721,8.7435 37.9568721,19.091407 L37.9568721,30.8615233 C37.9568721,31.6171047 37.3446628,32.229314 36.5880349,32.229314" id="Fill-1" fill="#003362" opacity="0.455636161" mask="url(#mask-2)"></path>
                    </g>
                    <g id="Group-6" transform="translate(0.000000, 25.838372)">
                        <mask id="mask-4" fill="white">
                            <use xlink:href="#path-3"></use>
                        </mask>
                        <g id="Clip-5"></g>
                        <polygon id="Fill-4" fill="#8DD393" mask="url(#mask-4)" points="71.2772791 0.202395349 6.2365814 0.202395349 0.000418604651 91.0469302 65.0421628 91.0469302"></polygon>
                    </g>
                    <g id="Group-9" transform="translate(64.883721, 25.838372)">
                        <mask id="mask-6" fill="white">
                            <use xlink:href="#path-5"></use>
                        </mask>
                        <g id="Clip-8"></g>
                        <polygon id="Fill-7" fill="#6DB874" mask="url(#mask-6)" points="17.4973605 0.202395349 6.39387209 0.202395349 0.158755814 91.0469302 24.8574767 91.0469302"></polygon>
                    </g>
                    <g id="Group-12" transform="translate(64.883721, 108.512791)">
                        <mask id="mask-8" fill="white">
                            <use xlink:href="#path-7"></use>
                        </mask>
                        <g id="Clip-11"></g>
                        <polygon id="Fill-10" fill="#A0DDA5" mask="url(#mask-8)" points="0.157395349 8.37209302 12.5282093 0.439534884 24.8592558 8.37209302"></polygon>
                    </g>
                    <polygon id="Fill-13" fill="#5AA862" points="77.4122442 108.952221 77.4122442 26.0402442 82.3810814 26.0402442 89.7422442 116.884779"></polygon>
                    <path d="M19.7089535,30.2757907 C20.43,30.2757907 21.017093,30.8618372 21.017093,31.5839302 C21.017093,32.3060233 20.43,32.8920698 19.7089535,32.8920698 C18.9868605,32.8920698 18.400814,32.3060233 18.400814,31.5839302 C18.400814,30.8618372 18.9868605,30.2757907 19.7089535,30.2757907 M19.7089535,35.1619535 C21.685814,35.1619535 23.2869767,33.5607907 23.2869767,31.5839302 C23.2869767,29.6070698 21.685814,28.005907 19.7089535,28.005907 C17.732093,28.005907 16.1298837,29.6070698 16.1298837,31.5839302 C16.1298837,33.5607907 17.732093,35.1619535 19.7089535,35.1619535" id="Fill-15" fill="#6DB874"></path>
                    <path d="M54.5075581,30.2757907 C55.2296512,30.2757907 55.8156977,30.8618372 55.8156977,31.5839302 C55.8156977,32.3060233 55.2296512,32.8920698 54.5075581,32.8920698 C53.7865116,32.8920698 53.1994186,32.3060233 53.1994186,31.5839302 C53.1994186,30.8618372 53.7865116,30.2757907 54.5075581,30.2757907 M54.5075581,35.1619535 C56.4844186,35.1619535 58.0866279,33.5607907 58.0866279,31.5839302 C58.0866279,29.6070698 56.4844186,28.005907 54.5075581,28.005907 C52.5317442,28.005907 50.9295349,29.6070698 50.9295349,31.5839302 C50.9295349,33.5607907 52.5317442,35.1619535 54.5075581,35.1619535" id="Fill-17" fill="#6DB874"></path>
                    <g id="Group-21" transform="translate(17.790698, 0.722093)">
                        <mask id="mask-10" fill="white">
                            <use xlink:href="#path-9"></use>
                        </mask>
                        <g id="Clip-20"></g>
                        <path d="M36.7178023,32.229314 C35.9622209,32.229314 35.3500116,31.6171047 35.3500116,30.8615233 L35.3500116,19.091407 C35.3500116,10.2504767 28.1583837,3.05884884 19.3174535,3.05884884 C10.4765233,3.05884884 3.28489535,10.2504767 3.28489535,19.091407 L3.28489535,30.8615233 C3.28489535,31.6171047 2.67268605,32.229314 1.91815116,32.229314 C1.16256977,32.229314 0.550360465,31.6171047 0.550360465,30.8615233 L0.550360465,19.091407 C0.550360465,8.7435 8.96954651,0.324313953 19.3174535,0.324313953 C29.666407,0.324313953 38.0845465,8.7435 38.0845465,19.091407 L38.0845465,30.8615233 C38.0845465,31.6171047 37.4723372,32.229314 36.7178023,32.229314" id="Fill-19" fill="#003362" mask="url(#mask-10)"></path>
                    </g>
                </g>
            </g>
        </g>
    </g>
</svg>