<?xml version="1.0" encoding="UTF-8"?>
<svg width="121px" height="61px" viewBox="0 0 121 61" version="1.1" xmlns="http://www.w3.org/2000/svg" xmlns:xlink="http://www.w3.org/1999/xlink">
    <!-- Generator: Sketch 56.2 (81672) - https://sketch.com -->
    <title>Group 7</title>
    <desc>Created with Sketch.</desc>
    <defs>
        <path d="M63.8125275,17.3342644 C62.2528789,16.0439702 62.0313133,13.7327362 63.3259519,12.1730877 C64.6162461,10.6134391 66.9274801,10.3918735 68.4871286,11.6865121 C70.0467771,12.9768063 70.2639984,15.2880403 68.9737042,16.8476888 C67.68341,18.4073373 65.372176,18.6245586 63.8125275,17.3342644 L63.8125275,17.3342644 Z M81.2819437,14.5059888 L63.798363,0.035115493 L48.5786942,1.75256583 L0.0858391339,59.3667787 L33.9489253,87.3924455 L82.4417803,29.7782326 L81.2819437,14.5059888 Z" id="path-1"></path>
        <filter x="-8.5%" y="-5.7%" width="117.0%" height="116.0%" filterUnits="objectBoundingBox" id="filter-2">
            <feOffset dx="0" dy="2" in="SourceAlpha" result="shadowOffsetOuter1"></feOffset>
            <feGaussianBlur stdDeviation="2" in="shadowOffsetOuter1" result="shadowBlurOuter1"></feGaussianBlur>
            <feColorMatrix values="0 0 0 0 0.894117647   0 0 0 0 0.807843137   0 0 0 0 0.705882353  0 0 0 0.486639493 0" type="matrix" in="shadowBlurOuter1"></feColorMatrix>
        </filter>
    </defs>
    <g id="Page-1" stroke="none" stroke-width="1" fill="none" fill-rule="evenodd">
        <g id="01_LANDING_PAGE_desktop" transform="translate(-510.000000, -2111.000000)">
            <g id="MARKETPLACE-B2B" transform="translate(0.000000, 2040.000000)">
                <g id="Group-7" transform="translate(578.500000, 100.500000) scale(-1, 1) rotate(6.000000) translate(-578.500000, -100.500000) translate(511.000000, 40.000000)">
                    <g id="Group-2" transform="translate(60.641625, 60.801824) rotate(51.000000) translate(-60.641625, -60.801824) translate(19.141625, 16.801824)">
                        <g id="Fill-1">
                            <use fill="black" fill-opacity="1" filter="url(#filter-2)" xlink:href="#path-1"></use>
                            <use fill="#FFFFFF" fill-rule="evenodd" xlink:href="#path-1"></use>
                        </g>
                        <path d="M67.6089783,13.3819762 C68.2727435,13.9311079 68.3651899,14.9147376 67.8160582,15.5785028 C67.2650776,16.242268 66.2832968,16.3365634 65.6195316,15.7855828 C64.9539175,15.2364511 64.8614711,14.2528214 65.4124517,13.5890562 C65.9615833,12.925291 66.9452131,12.8328446 67.6089783,13.3819762 M63.1733997,18.7420188 C65.4697684,20.6427169 68.8717962,20.3210034 70.7706453,18.0246347 C72.6713434,15.728266 72.3514789,12.3262383 70.0551101,10.4255402 C67.7587414,8.52669104 64.3567137,8.8465556 62.4560156,11.1429243 C60.5553175,13.439293 60.877031,16.8413207 63.1733997,18.7420188" id="Fill-3" fill="#EFE4DA"></path>
                    </g>
                    <path d="M99,63.3614662 C99,63.3614662 102.417,48.3464662 116.013,48.3464662 C129.609,48.3464662 129.012,63.2024662 121.916,59.9534662 C114.819,56.7034662 113.889,41.1964662 125.032,43.1734662 C133.256,44.6324662 134.915,52.7234662 134.915,52.7234662" id="Stroke-5" stroke="#003362" stroke-width="0.5"></path>
                    <path d="M31.401084,55.9010264 L33.093084,49.6010264 L34.803084,49.6010264 C35.955084,49.6010264 36.756084,49.9160264 37.260084,50.4200264 C37.728084,50.8790264 37.953084,51.4820264 37.953084,52.2560264 C37.953084,53.2010264 37.593084,54.0650264 36.936084,54.7220264 C36.180084,55.4780264 35.064084,55.9010264 33.660084,55.9010264 L31.401084,55.9010264 Z M32.778084,54.8930264 L33.795084,54.8930264 C34.722084,54.8930264 35.541084,54.5960264 36.099084,54.0380264 C36.549084,53.5880264 36.801084,52.9850264 36.801084,52.3010264 C36.801084,51.8060264 36.639084,51.4190264 36.360084,51.1400264 C36.027084,50.8070264 35.487084,50.6090264 34.722084,50.6090264 L33.939084,50.6090264 L32.778084,54.8930264 Z M38.439084,55.9010264 L40.131084,49.6010264 L41.247084,49.6010264 L39.555084,55.9010264 L38.439084,55.9010264 Z M43.722084,55.9910264 C42.534084,55.9910264 41.625084,55.5770264 41.049084,54.8120264 L41.886084,54.1190264 C42.399084,54.7040264 42.975084,55.0100264 43.785084,55.0100264 C44.487084,55.0100264 45.000084,54.6590264 45.000084,54.1370264 C45.000084,53.7590264 44.739084,53.5340264 43.839084,53.1830264 C42.876084,52.7960264 42.219084,52.3640264 42.219084,51.4910264 C42.219084,50.3030264 43.290084,49.5110264 44.640084,49.5110264 C45.684084,49.5110264 46.440084,49.8890264 46.953084,50.4560264 L46.179084,51.2120264 C45.702084,50.7440264 45.216084,50.4920264 44.559084,50.4920264 C43.821084,50.4920264 43.389084,50.8970264 43.389084,51.3200264 C43.389084,51.7250264 43.704084,51.9230264 44.613084,52.2830264 C45.576084,52.6610264 46.179084,53.1020264 46.179084,53.9750264 C46.179084,55.2080264 45.054084,55.9910264 43.722084,55.9910264 Z M46.962084,55.9010264 L48.654084,49.6010264 L50.643084,49.6010264 C51.498084,49.6010264 52.119084,49.7810264 52.551084,50.2220264 C52.857084,50.5280264 53.019084,50.9420264 53.019084,51.4640264 C53.019084,52.9850264 51.723084,53.8580264 49.941084,53.8580264 L48.627084,53.8580264 L48.078084,55.9010264 L46.962084,55.9010264 Z M48.888084,52.8770264 L49.995084,52.8770264 C51.147084,52.8770264 51.867084,52.3910264 51.867084,51.5540264 C51.867084,51.3020264 51.786084,51.0950264 51.624084,50.9330264 C51.408084,50.7170264 51.075084,50.6090264 50.607084,50.6090264 L49.491084,50.6090264 L48.888084,52.8770264 Z M56.412084,56.0090264 C54.720084,56.0090264 53.586084,54.8120264 53.586084,53.2460264 C53.586084,51.3380264 55.143084,49.4930264 57.321084,49.4930264 C59.013084,49.4930264 60.156084,50.6900264 60.156084,52.2560264 C60.156084,54.1640264 58.599084,56.0090264 56.412084,56.0090264 Z M56.529084,54.9920264 C57.987084,54.9920264 59.004084,53.6060264 59.004084,52.3190264 C59.004084,51.2840264 58.338084,50.5100264 57.213084,50.5100264 C55.755084,50.5100264 54.738084,51.8960264 54.738084,53.1830264 C54.738084,54.2270264 55.404084,54.9920264 56.529084,54.9920264 Z M60.597084,55.9010264 L62.289084,49.6010264 L63.315084,49.6010264 L65.448084,54.0560264 L66.654084,49.6010264 L67.743084,49.6010264 L66.051084,55.9010264 L65.124084,55.9010264 L62.919084,51.3200264 L61.695084,55.9010264 L60.597084,55.9010264 Z M67.734084,55.9010264 L69.426084,49.6010264 L70.542084,49.6010264 L68.850084,55.9010264 L67.734084,55.9010264 Z M70.524084,55.9010264 L72.216084,49.6010264 L74.628084,49.6010264 C76.014084,49.6010264 76.689084,50.2490264 76.689084,51.1130264 C76.689084,51.9770264 76.086084,52.5350264 75.249084,52.7150264 C75.807084,52.9310264 76.221084,53.3270264 76.221084,54.0020264 C76.221084,55.1180264 75.249084,55.9010264 73.539084,55.9010264 L70.524084,55.9010264 Z M72.585084,52.2560264 L74.151084,52.2560264 C75.033084,52.2560264 75.573084,51.9140264 75.573084,51.2930264 C75.573084,50.8520264 75.231084,50.5820264 74.529084,50.5820264 L73.035084,50.5820264 L72.585084,52.2560264 Z M71.874084,54.9200264 L73.692084,54.9200264 C74.574084,54.9200264 75.123084,54.5510264 75.123084,53.9390264 C75.123084,53.4620264 74.700084,53.1920264 74.016084,53.1920264 L72.333084,53.1920264 L71.874084,54.9200264 Z M76.977084,55.9010264 L78.669084,49.6010264 L79.785084,49.6010264 L78.363084,54.8930264 L81.675084,54.8930264 L81.396084,55.9010264 L76.977084,55.9010264 Z M82.539084,55.9010264 L84.231084,49.6010264 L88.857084,49.6010264 L88.587084,50.5910264 L85.068084,50.5910264 L84.627084,52.2380264 L87.750084,52.2380264 L87.480084,53.2190264 L84.357084,53.2190264 L83.907084,54.9110264 L87.480084,54.9110264 L87.210084,55.9010264 L82.539084,55.9010264 Z M33.133584,65.9010264 L34.825584,59.6010264 L36.814584,59.6010264 C37.669584,59.6010264 38.290584,59.7810264 38.722584,60.2220264 C39.028584,60.5280264 39.190584,60.9420264 39.190584,61.4640264 C39.190584,62.9850264 37.894584,63.8580264 36.112584,63.8580264 L34.798584,63.8580264 L34.249584,65.9010264 L33.133584,65.9010264 Z M35.059584,62.8770264 L36.166584,62.8770264 C37.318584,62.8770264 38.038584,62.3910264 38.038584,61.5540264 C38.038584,61.3020264 37.957584,61.0950264 37.795584,60.9330264 C37.579584,60.7170264 37.246584,60.6090264 36.778584,60.6090264 L35.662584,60.6090264 L35.059584,62.8770264 Z M39.199584,65.9010264 L40.891584,59.6010264 L43.177584,59.6010264 C44.059584,59.6010264 44.680584,59.7990264 45.085584,60.2130264 C45.382584,60.5100264 45.544584,60.9240264 45.544584,61.4010264 C45.544584,61.9860264 45.337584,62.4810264 44.968584,62.8410264 C44.599584,63.2190264 44.059584,63.4710264 43.393584,63.5970264 L44.563584,65.9010264 L43.294584,65.9010264 L42.214584,63.7050264 L40.900584,63.7050264 L40.315584,65.9010264 L39.199584,65.9010264 Z M41.161584,62.7240264 L42.592584,62.7240264 C43.258584,62.7240264 43.780584,62.5530264 44.077584,62.2470264 C44.275584,62.0490264 44.392584,61.7970264 44.392584,61.4910264 C44.392584,61.2570264 44.311584,61.0680264 44.167584,60.9150264 C43.960584,60.7170264 43.618584,60.6090264 43.114584,60.6090264 L41.737584,60.6090264 L41.161584,62.7240264 Z M45.769584,65.9010264 L47.461584,59.6010264 L48.577584,59.6010264 L46.885584,65.9010264 L45.769584,65.9010264 Z M48.559584,65.9010264 L50.251584,59.6010264 L51.277584,59.6010264 L53.410584,64.0560264 L54.616584,59.6010264 L55.705584,59.6010264 L54.013584,65.9010264 L53.086584,65.9010264 L50.881584,61.3200264 L49.657584,65.9010264 L48.559584,65.9010264 Z M57.028584,65.9010264 L58.450584,60.6270264 L56.443584,60.6270264 L56.722584,59.6010264 L61.834584,59.6010264 L61.555584,60.6270264 L59.557584,60.6270264 L58.135584,65.9010264 L57.028584,65.9010264 Z M61.195584,65.9010264 L62.887584,59.6010264 L67.513584,59.6010264 L67.243584,60.5910264 L63.724584,60.5910264 L63.283584,62.2380264 L66.406584,62.2380264 L66.136584,63.2190264 L63.013584,63.2190264 L62.563584,64.9110264 L66.136584,64.9110264 L65.866584,65.9010264 L61.195584,65.9010264 Z M67.135584,65.9010264 L68.827584,59.6010264 L69.952584,59.6010264 L71.050584,62.5800264 L73.750584,59.6010264 L75.019584,59.6010264 L73.327584,65.9010264 L72.202584,65.9010264 L73.417584,61.3830264 L70.645584,64.3530264 L70.609584,64.3530264 L69.448584,61.4010264 L68.242584,65.9010264 L67.135584,65.9010264 Z M74.947584,65.9010264 L76.639584,59.6010264 L78.628584,59.6010264 C79.483584,59.6010264 80.104584,59.7810264 80.536584,60.2220264 C80.842584,60.5280264 81.004584,60.9420264 81.004584,61.4640264 C81.004584,62.9850264 79.708584,63.8580264 77.926584,63.8580264 L76.612584,63.8580264 L76.063584,65.9010264 L74.947584,65.9010264 Z M76.873584,62.8770264 L77.980584,62.8770264 C79.132584,62.8770264 79.852584,62.3910264 79.852584,61.5540264 C79.852584,61.3020264 79.771584,61.0950264 79.609584,60.9330264 C79.393584,60.7170264 79.060584,60.6090264 78.592584,60.6090264 L77.476584,60.6090264 L76.873584,62.8770264 Z M83.506584,65.9910264 C82.318584,65.9910264 81.409584,65.5770264 80.833584,64.8120264 L81.670584,64.1190264 C82.183584,64.7040264 82.759584,65.0100264 83.569584,65.0100264 C84.271584,65.0100264 84.784584,64.6590264 84.784584,64.1370264 C84.784584,63.7590264 84.523584,63.5340264 83.623584,63.1830264 C82.660584,62.7960264 82.003584,62.3640264 82.003584,61.4910264 C82.003584,60.3030264 83.074584,59.5110264 84.424584,59.5110264 C85.468584,59.5110264 86.224584,59.8890264 86.737584,60.4560264 L85.963584,61.2120264 C85.486584,60.7440264 85.000584,60.4920264 84.343584,60.4920264 C83.605584,60.4920264 83.173584,60.8970264 83.173584,61.3200264 C83.173584,61.7250264 83.488584,61.9230264 84.397584,62.2830264 C85.360584,62.6610264 85.963584,63.1020264 85.963584,63.9750264 C85.963584,65.2080264 84.838584,65.9910264 83.506584,65.9910264 Z M44.887584,75.9010264 L45.130584,75.0010264 L48.487584,72.5890264 C49.135584,72.1210264 49.459584,71.7430264 49.459584,71.2840264 C49.459584,70.8070264 49.099584,70.5100264 48.505584,70.5100264 C47.893584,70.5100264 47.389584,70.8520264 46.912584,71.3290264 L46.219584,70.6180264 C46.813584,69.9700264 47.578584,69.5110264 48.550584,69.5110264 C49.783584,69.5110264 50.602584,70.1950264 50.602584,71.1760264 C50.602584,71.9410264 50.206584,72.4990264 49.171584,73.2370264 L46.831584,74.9290264 L49.774584,74.9290264 L49.513584,75.9010264 L44.887584,75.9010264 Z M53.554584,76.0090264 C52.105584,76.0090264 51.196584,74.9830264 51.196584,73.4710264 C51.196584,71.5720264 52.483584,69.4930264 54.535584,69.4930264 C55.975584,69.4930264 56.884584,70.5190264 56.884584,72.0310264 C56.884584,73.9300264 55.606584,76.0090264 53.554584,76.0090264 Z M53.635584,75.0100264 C54.868584,75.0100264 55.741584,73.3990264 55.741584,72.0310264 C55.741584,71.0860264 55.264584,70.4920264 54.445584,70.4920264 C53.212584,70.4920264 52.339584,72.1030264 52.339584,73.4710264 C52.339584,74.4160264 52.816584,75.0100264 53.635584,75.0100264 Z M56.767584,75.9010264 L57.010584,75.0010264 L60.367584,72.5890264 C61.015584,72.1210264 61.339584,71.7430264 61.339584,71.2840264 C61.339584,70.8070264 60.979584,70.5100264 60.385584,70.5100264 C59.773584,70.5100264 59.269584,70.8520264 58.792584,71.3290264 L58.099584,70.6180264 C58.693584,69.9700264 59.458584,69.5110264 60.430584,69.5110264 C61.663584,69.5110264 62.482584,70.1950264 62.482584,71.1760264 C62.482584,71.9410264 62.086584,72.4990264 61.051584,73.2370264 L58.711584,74.9290264 L61.654584,74.9290264 L61.393584,75.9010264 L56.767584,75.9010264 Z M65.434584,76.0090264 C63.985584,76.0090264 63.076584,74.9830264 63.076584,73.4710264 C63.076584,71.5720264 64.363584,69.4930264 66.415584,69.4930264 C67.855584,69.4930264 68.764584,70.5190264 68.764584,72.0310264 C68.764584,73.9300264 67.486584,76.0090264 65.434584,76.0090264 Z M65.515584,75.0100264 C66.748584,75.0100264 67.621584,73.3990264 67.621584,72.0310264 C67.621584,71.0860264 67.144584,70.4920264 66.325584,70.4920264 C65.092584,70.4920264 64.219584,72.1030264 64.219584,73.4710264 C64.219584,74.4160264 64.696584,75.0100264 65.515584,75.0100264 Z M72.634584,73.9120264 L73.363584,69.9160264 L73.453584,69.6010264 L74.731584,69.6010264 L74.641584,69.9160264 L73.237584,73.9120264 L72.634584,73.9120264 Z M71.806584,75.9010264 L72.130584,74.6680264 L73.336584,74.6680264 L73.003584,75.9010264 L71.806584,75.9010264 Z" id="DISPONIBLEPRINTEMPS2020!" fill="#0083FF" fill-rule="nonzero" transform="translate(60.129084, 62.751026) scale(-1, 1) rotate(-1.000000) translate(-60.129084, -62.751026) "></path>
                </g>
            </g>
        </g>
    </g>
</svg>